<?xml version="1.0" encoding="utf-8"?>
<svg xmlns="http://www.w3.org/2000/svg" xmlns:xlink="http://www.w3.org/1999/xlink" width="500" height="375" viewBox="0 0 2000 1500">
<defs>
  <clipPath id="clip080">
    <rect x="0" y="0" width="2000" height="1500"/>
  </clipPath>
</defs>
<defs>
  <clipPath id="clip081">
    <rect x="400" y="0" width="1401" height="1401"/>
  </clipPath>
</defs>
<defs>
  <clipPath id="clip082">
    <rect x="399" y="47" width="1554" height="1126"/>
  </clipPath>
</defs>
<polyline clip-path="url(#clip080)" style="stroke:#808080; stroke-linecap:round; stroke-linejoin:round; stroke-width:4; stroke-opacity:1; fill:none" points="399.279,1172.19 1952.76,1172.19 "/>
<polyline clip-path="url(#clip080)" style="stroke:#808080; stroke-linecap:round; stroke-linejoin:round; stroke-width:4; stroke-opacity:1; fill:none" points="443.245,1172.19 443.245,1153.29 "/>
<polyline clip-path="url(#clip080)" style="stroke:#808080; stroke-linecap:round; stroke-linejoin:round; stroke-width:4; stroke-opacity:1; fill:none" points="809.631,1172.19 809.631,1153.29 "/>
<polyline clip-path="url(#clip080)" style="stroke:#808080; stroke-linecap:round; stroke-linejoin:round; stroke-width:4; stroke-opacity:1; fill:none" points="1176.02,1172.19 1176.02,1153.29 "/>
<polyline clip-path="url(#clip080)" style="stroke:#808080; stroke-linecap:round; stroke-linejoin:round; stroke-width:4; stroke-opacity:1; fill:none" points="1542.4,1172.19 1542.4,1153.29 "/>
<polyline clip-path="url(#clip080)" style="stroke:#808080; stroke-linecap:round; stroke-linejoin:round; stroke-width:4; stroke-opacity:1; fill:none" points="1908.79,1172.19 1908.79,1153.29 "/>
<path clip-path="url(#clip080)" d="M405.549 1199.91 Q401.938 1199.91 400.109 1203.47 Q398.304 1207.01 398.304 1214.14 Q398.304 1221.25 400.109 1224.81 Q401.938 1228.36 405.549 1228.36 Q409.183 1228.36 410.989 1224.81 Q412.817 1221.25 412.817 1214.14 Q412.817 1207.01 410.989 1203.47 Q409.183 1199.91 405.549 1199.91 M405.549 1196.2 Q411.359 1196.2 414.415 1200.81 Q417.493 1205.39 417.493 1214.14 Q417.493 1222.87 414.415 1227.48 Q411.359 1232.06 405.549 1232.06 Q399.739 1232.06 396.66 1227.48 Q393.604 1222.87 393.604 1214.14 Q393.604 1205.39 396.66 1200.81 Q399.739 1196.2 405.549 1196.2 Z" fill="#808080" fill-rule="nonzero" fill-opacity="1" /><path clip-path="url(#clip080)" d="M425.711 1225.51 L430.595 1225.51 L430.595 1231.39 L425.711 1231.39 L425.711 1225.51 Z" fill="#808080" fill-rule="nonzero" fill-opacity="1" /><path clip-path="url(#clip080)" d="M450.78 1199.91 Q447.169 1199.91 445.34 1203.47 Q443.535 1207.01 443.535 1214.14 Q443.535 1221.25 445.34 1224.81 Q447.169 1228.36 450.78 1228.36 Q454.414 1228.36 456.22 1224.81 Q458.049 1221.25 458.049 1214.14 Q458.049 1207.01 456.22 1203.47 Q454.414 1199.91 450.78 1199.91 M450.78 1196.2 Q456.59 1196.2 459.646 1200.81 Q462.724 1205.39 462.724 1214.14 Q462.724 1222.87 459.646 1227.48 Q456.59 1232.06 450.78 1232.06 Q444.97 1232.06 441.891 1227.48 Q438.836 1222.87 438.836 1214.14 Q438.836 1205.39 441.891 1200.81 Q444.97 1196.2 450.78 1196.2 Z" fill="#808080" fill-rule="nonzero" fill-opacity="1" /><path clip-path="url(#clip080)" d="M480.942 1199.91 Q477.331 1199.91 475.502 1203.47 Q473.697 1207.01 473.697 1214.14 Q473.697 1221.25 475.502 1224.81 Q477.331 1228.36 480.942 1228.36 Q484.576 1228.36 486.382 1224.81 Q488.21 1221.25 488.21 1214.14 Q488.21 1207.01 486.382 1203.47 Q484.576 1199.91 480.942 1199.91 M480.942 1196.2 Q486.752 1196.2 489.808 1200.81 Q492.886 1205.39 492.886 1214.14 Q492.886 1222.87 489.808 1227.48 Q486.752 1232.06 480.942 1232.06 Q475.132 1232.06 472.053 1227.48 Q468.998 1222.87 468.998 1214.14 Q468.998 1205.39 472.053 1200.81 Q475.132 1196.2 480.942 1196.2 Z" fill="#808080" fill-rule="nonzero" fill-opacity="1" /><path clip-path="url(#clip080)" d="M772.433 1199.91 Q768.821 1199.91 766.993 1203.47 Q765.187 1207.01 765.187 1214.14 Q765.187 1221.25 766.993 1224.81 Q768.821 1228.36 772.433 1228.36 Q776.067 1228.36 777.872 1224.81 Q779.701 1221.25 779.701 1214.14 Q779.701 1207.01 777.872 1203.47 Q776.067 1199.91 772.433 1199.91 M772.433 1196.2 Q778.243 1196.2 781.298 1200.81 Q784.377 1205.39 784.377 1214.14 Q784.377 1222.87 781.298 1227.48 Q778.243 1232.06 772.433 1232.06 Q766.622 1232.06 763.544 1227.48 Q760.488 1222.87 760.488 1214.14 Q760.488 1205.39 763.544 1200.81 Q766.622 1196.2 772.433 1196.2 Z" fill="#808080" fill-rule="nonzero" fill-opacity="1" /><path clip-path="url(#clip080)" d="M792.595 1225.51 L797.479 1225.51 L797.479 1231.39 L792.595 1231.39 L792.595 1225.51 Z" fill="#808080" fill-rule="nonzero" fill-opacity="1" /><path clip-path="url(#clip080)" d="M811.692 1227.45 L828.011 1227.45 L828.011 1231.39 L806.067 1231.39 L806.067 1227.45 Q808.729 1224.7 813.312 1220.07 Q817.918 1215.42 819.099 1214.07 Q821.344 1211.55 822.224 1209.81 Q823.127 1208.05 823.127 1206.36 Q823.127 1203.61 821.182 1201.87 Q819.261 1200.14 816.159 1200.14 Q813.96 1200.14 811.506 1200.9 Q809.076 1201.67 806.298 1203.22 L806.298 1198.49 Q809.122 1197.36 811.576 1196.78 Q814.03 1196.2 816.067 1196.2 Q821.437 1196.2 824.631 1198.89 Q827.826 1201.57 827.826 1206.06 Q827.826 1208.19 827.016 1210.11 Q826.229 1212.01 824.122 1214.61 Q823.543 1215.28 820.442 1218.49 Q817.34 1221.69 811.692 1227.45 Z" fill="#808080" fill-rule="nonzero" fill-opacity="1" /><path clip-path="url(#clip080)" d="M837.872 1196.83 L856.228 1196.83 L856.228 1200.76 L842.154 1200.76 L842.154 1209.23 Q843.173 1208.89 844.191 1208.73 Q845.21 1208.54 846.228 1208.54 Q852.015 1208.54 855.395 1211.71 Q858.775 1214.88 858.775 1220.3 Q858.775 1225.88 855.303 1228.98 Q851.83 1232.06 845.511 1232.06 Q843.335 1232.06 841.066 1231.69 Q838.821 1231.32 836.414 1230.58 L836.414 1225.88 Q838.497 1227.01 840.719 1227.57 Q842.941 1228.12 845.418 1228.12 Q849.423 1228.12 851.761 1226.02 Q854.099 1223.91 854.099 1220.3 Q854.099 1216.69 851.761 1214.58 Q849.423 1212.48 845.418 1212.48 Q843.543 1212.48 841.668 1212.89 Q839.816 1213.31 837.872 1214.19 L837.872 1196.83 Z" fill="#808080" fill-rule="nonzero" fill-opacity="1" /><path clip-path="url(#clip080)" d="M1138.32 1199.91 Q1134.71 1199.91 1132.88 1203.47 Q1131.08 1207.01 1131.08 1214.14 Q1131.08 1221.25 1132.88 1224.81 Q1134.71 1228.36 1138.32 1228.36 Q1141.96 1228.36 1143.76 1224.81 Q1145.59 1221.25 1145.59 1214.14 Q1145.59 1207.01 1143.76 1203.47 Q1141.96 1199.91 1138.32 1199.91 M1138.32 1196.2 Q1144.13 1196.2 1147.19 1200.81 Q1150.27 1205.39 1150.27 1214.14 Q1150.27 1222.87 1147.19 1227.48 Q1144.13 1232.06 1138.32 1232.06 Q1132.51 1232.06 1129.43 1227.48 Q1126.38 1222.87 1126.38 1214.14 Q1126.38 1205.39 1129.43 1200.81 Q1132.51 1196.2 1138.32 1196.2 Z" fill="#808080" fill-rule="nonzero" fill-opacity="1" /><path clip-path="url(#clip080)" d="M1158.48 1225.51 L1163.37 1225.51 L1163.37 1231.39 L1158.48 1231.39 L1158.48 1225.51 Z" fill="#808080" fill-rule="nonzero" fill-opacity="1" /><path clip-path="url(#clip080)" d="M1173.6 1196.83 L1191.95 1196.83 L1191.95 1200.76 L1177.88 1200.76 L1177.88 1209.23 Q1178.9 1208.89 1179.92 1208.73 Q1180.94 1208.54 1181.95 1208.54 Q1187.74 1208.54 1191.12 1211.71 Q1194.5 1214.88 1194.5 1220.3 Q1194.5 1225.88 1191.03 1228.98 Q1187.56 1232.06 1181.24 1232.06 Q1179.06 1232.06 1176.79 1231.69 Q1174.55 1231.32 1172.14 1230.58 L1172.14 1225.88 Q1174.22 1227.01 1176.45 1227.57 Q1178.67 1228.12 1181.14 1228.12 Q1185.15 1228.12 1187.49 1226.02 Q1189.83 1223.91 1189.83 1220.3 Q1189.83 1216.69 1187.49 1214.58 Q1185.15 1212.48 1181.14 1212.48 Q1179.27 1212.48 1177.39 1212.89 Q1175.54 1213.31 1173.6 1214.19 L1173.6 1196.83 Z" fill="#808080" fill-rule="nonzero" fill-opacity="1" /><path clip-path="url(#clip080)" d="M1213.71 1199.91 Q1210.1 1199.91 1208.27 1203.47 Q1206.47 1207.01 1206.47 1214.14 Q1206.47 1221.25 1208.27 1224.81 Q1210.1 1228.36 1213.71 1228.36 Q1217.35 1228.36 1219.15 1224.81 Q1220.98 1221.25 1220.98 1214.14 Q1220.98 1207.01 1219.15 1203.47 Q1217.35 1199.91 1213.71 1199.91 M1213.71 1196.2 Q1219.52 1196.2 1222.58 1200.81 Q1225.66 1205.39 1225.66 1214.14 Q1225.66 1222.87 1222.58 1227.48 Q1219.52 1232.06 1213.71 1232.06 Q1207.9 1232.06 1204.83 1227.48 Q1201.77 1222.87 1201.77 1214.14 Q1201.77 1205.39 1204.83 1200.81 Q1207.9 1196.2 1213.71 1196.2 Z" fill="#808080" fill-rule="nonzero" fill-opacity="1" /><path clip-path="url(#clip080)" d="M1505.2 1199.91 Q1501.59 1199.91 1499.76 1203.47 Q1497.96 1207.01 1497.96 1214.14 Q1497.96 1221.25 1499.76 1224.81 Q1501.59 1228.36 1505.2 1228.36 Q1508.84 1228.36 1510.64 1224.81 Q1512.47 1221.25 1512.47 1214.14 Q1512.47 1207.01 1510.64 1203.47 Q1508.84 1199.91 1505.2 1199.91 M1505.2 1196.2 Q1511.01 1196.2 1514.07 1200.81 Q1517.15 1205.39 1517.15 1214.14 Q1517.15 1222.87 1514.07 1227.48 Q1511.01 1232.06 1505.2 1232.06 Q1499.39 1232.06 1496.32 1227.48 Q1493.26 1222.87 1493.26 1214.14 Q1493.26 1205.39 1496.32 1200.81 Q1499.39 1196.2 1505.2 1196.2 Z" fill="#808080" fill-rule="nonzero" fill-opacity="1" /><path clip-path="url(#clip080)" d="M1525.37 1225.51 L1530.25 1225.51 L1530.25 1231.39 L1525.37 1231.39 L1525.37 1225.51 Z" fill="#808080" fill-rule="nonzero" fill-opacity="1" /><path clip-path="url(#clip080)" d="M1539.26 1196.83 L1561.48 1196.83 L1561.48 1198.82 L1548.93 1231.39 L1544.05 1231.39 L1555.85 1200.76 L1539.26 1200.76 L1539.26 1196.83 Z" fill="#808080" fill-rule="nonzero" fill-opacity="1" /><path clip-path="url(#clip080)" d="M1570.64 1196.83 L1589 1196.83 L1589 1200.76 L1574.93 1200.76 L1574.93 1209.23 Q1575.95 1208.89 1576.96 1208.73 Q1577.98 1208.54 1579 1208.54 Q1584.79 1208.54 1588.17 1211.71 Q1591.55 1214.88 1591.55 1220.3 Q1591.55 1225.88 1588.07 1228.98 Q1584.6 1232.06 1578.28 1232.06 Q1576.11 1232.06 1573.84 1231.69 Q1571.59 1231.32 1569.19 1230.58 L1569.19 1225.88 Q1571.27 1227.01 1573.49 1227.57 Q1575.71 1228.12 1578.19 1228.12 Q1582.19 1228.12 1584.53 1226.02 Q1586.87 1223.91 1586.87 1220.3 Q1586.87 1216.69 1584.53 1214.58 Q1582.19 1212.48 1578.19 1212.48 Q1576.32 1212.48 1574.44 1212.89 Q1572.59 1213.31 1570.64 1214.19 L1570.64 1196.83 Z" fill="#808080" fill-rule="nonzero" fill-opacity="1" /><path clip-path="url(#clip080)" d="M1860.86 1227.45 L1868.5 1227.45 L1868.5 1201.09 L1860.19 1202.75 L1860.19 1198.49 L1868.45 1196.83 L1873.13 1196.83 L1873.13 1227.45 L1880.77 1227.45 L1880.77 1231.39 L1860.86 1231.39 L1860.86 1227.45 Z" fill="#808080" fill-rule="nonzero" fill-opacity="1" /><path clip-path="url(#clip080)" d="M1890.21 1225.51 L1895.1 1225.51 L1895.1 1231.39 L1890.21 1231.39 L1890.21 1225.51 Z" fill="#808080" fill-rule="nonzero" fill-opacity="1" /><path clip-path="url(#clip080)" d="M1915.28 1199.91 Q1911.67 1199.91 1909.84 1203.47 Q1908.04 1207.01 1908.04 1214.14 Q1908.04 1221.25 1909.84 1224.81 Q1911.67 1228.36 1915.28 1228.36 Q1918.92 1228.36 1920.72 1224.81 Q1922.55 1221.25 1922.55 1214.14 Q1922.55 1207.01 1920.72 1203.47 Q1918.92 1199.91 1915.28 1199.91 M1915.28 1196.2 Q1921.09 1196.2 1924.15 1200.81 Q1927.23 1205.39 1927.23 1214.14 Q1927.23 1222.87 1924.15 1227.48 Q1921.09 1232.06 1915.28 1232.06 Q1909.47 1232.06 1906.39 1227.48 Q1903.34 1222.87 1903.34 1214.14 Q1903.34 1205.39 1906.39 1200.81 Q1909.47 1196.2 1915.28 1196.2 Z" fill="#808080" fill-rule="nonzero" fill-opacity="1" /><path clip-path="url(#clip080)" d="M1945.44 1199.91 Q1941.83 1199.91 1940 1203.47 Q1938.2 1207.01 1938.2 1214.14 Q1938.2 1221.25 1940 1224.81 Q1941.83 1228.36 1945.44 1228.36 Q1949.08 1228.36 1950.88 1224.81 Q1952.71 1221.25 1952.71 1214.14 Q1952.71 1207.01 1950.88 1203.47 Q1949.08 1199.91 1945.44 1199.91 M1945.44 1196.2 Q1951.25 1196.2 1954.31 1200.81 Q1957.39 1205.39 1957.39 1214.14 Q1957.39 1222.87 1954.31 1227.48 Q1951.25 1232.06 1945.44 1232.06 Q1939.63 1232.06 1936.56 1227.48 Q1933.5 1222.87 1933.5 1214.14 Q1933.5 1205.39 1936.56 1200.81 Q1939.63 1196.2 1945.44 1196.2 Z" fill="#808080" fill-rule="nonzero" fill-opacity="1" /><path clip-path="url(#clip080)" d="M1190.19 1271.81 Q1190.19 1273.61 1189.06 1274.64 Q1187.94 1275.64 1186.65 1275.64 Q1185.43 1275.64 1184.78 1274.93 Q1184.14 1274.23 1184.14 1273.32 Q1184.14 1272.1 1185.04 1271.04 Q1185.94 1269.97 1187.29 1269.75 Q1185.97 1268.91 1184.01 1268.91 Q1182.72 1268.91 1181.59 1269.59 Q1180.5 1270.26 1179.82 1271.13 Q1179.18 1272 1178.6 1273.26 Q1178.05 1274.48 1177.82 1275.22 Q1177.63 1275.93 1177.47 1276.71 L1175.22 1285.72 Q1174.12 1290.01 1174.12 1291.52 Q1174.12 1293.39 1175.02 1294.64 Q1175.92 1295.87 1177.73 1295.87 Q1178.44 1295.87 1179.24 1295.67 Q1180.05 1295.45 1181.08 1294.87 Q1182.14 1294.26 1183.07 1293.36 Q1184.04 1292.42 1184.97 1290.84 Q1185.91 1289.27 1186.52 1287.24 Q1186.71 1286.53 1187.36 1286.53 Q1188.16 1286.53 1188.16 1287.17 Q1188.16 1287.72 1187.71 1288.88 Q1187.29 1290.01 1186.36 1291.49 Q1185.46 1292.94 1184.27 1294.26 Q1183.07 1295.55 1181.3 1296.45 Q1179.53 1297.35 1177.6 1297.35 Q1174.83 1297.35 1172.99 1295.87 Q1171.16 1294.39 1170.48 1292.33 Q1170.32 1292.62 1170.1 1293 Q1169.87 1293.39 1169.19 1294.26 Q1168.55 1295.09 1167.81 1295.74 Q1167.07 1296.35 1165.91 1296.83 Q1164.78 1297.35 1163.56 1297.35 Q1162.01 1297.35 1160.63 1296.9 Q1159.27 1296.45 1158.31 1295.42 Q1157.34 1294.39 1157.34 1292.97 Q1157.34 1291.39 1158.4 1290.3 Q1159.5 1289.17 1160.98 1289.17 Q1161.91 1289.17 1162.66 1289.72 Q1163.43 1290.26 1163.43 1291.46 Q1163.43 1292.78 1162.53 1293.77 Q1161.63 1294.77 1160.34 1295.03 Q1161.66 1295.87 1163.62 1295.87 Q1165.75 1295.87 1167.42 1294 Q1169.1 1292.13 1169.9 1289.01 Q1171.9 1281.5 1172.67 1278.15 Q1173.44 1274.77 1173.44 1273.32 Q1173.44 1271.97 1173.09 1271.04 Q1172.74 1270.1 1172.12 1269.68 Q1171.54 1269.23 1171 1269.07 Q1170.48 1268.91 1169.9 1268.91 Q1168.94 1268.91 1167.84 1269.3 Q1166.78 1269.68 1165.49 1270.59 Q1164.23 1271.46 1163.04 1273.26 Q1161.85 1275.06 1161.05 1277.54 Q1160.88 1278.28 1160.18 1278.28 Q1159.4 1278.25 1159.4 1277.61 Q1159.4 1277.06 1159.82 1275.93 Q1160.27 1274.77 1161.17 1273.32 Q1162.11 1271.87 1163.3 1270.59 Q1164.52 1269.27 1166.29 1268.36 Q1168.1 1267.46 1170.03 1267.46 Q1170.9 1267.46 1171.74 1267.66 Q1172.61 1267.82 1173.64 1268.3 Q1174.7 1268.78 1175.63 1269.85 Q1176.57 1270.91 1177.15 1272.45 Q1177.53 1271.71 1178.05 1271 Q1178.6 1270.3 1179.43 1269.43 Q1180.3 1268.53 1181.5 1268.01 Q1182.72 1267.46 1184.07 1267.46 Q1185.39 1267.46 1186.68 1267.82 Q1187.97 1268.14 1189.06 1269.2 Q1190.19 1270.23 1190.19 1271.81 Z" fill="#808080" fill-rule="nonzero" fill-opacity="1" /><polyline clip-path="url(#clip080)" style="stroke:#808080; stroke-linecap:round; stroke-linejoin:round; stroke-width:4; stroke-opacity:1; fill:none" points="399.279,1172.19 399.279,47.2441 "/>
<polyline clip-path="url(#clip080)" style="stroke:#808080; stroke-linecap:round; stroke-linejoin:round; stroke-width:4; stroke-opacity:1; fill:none" points="399.279,1076.26 418.177,1076.26 "/>
<polyline clip-path="url(#clip080)" style="stroke:#808080; stroke-linecap:round; stroke-linejoin:round; stroke-width:4; stroke-opacity:1; fill:none" points="399.279,783.152 418.177,783.152 "/>
<polyline clip-path="url(#clip080)" style="stroke:#808080; stroke-linecap:round; stroke-linejoin:round; stroke-width:4; stroke-opacity:1; fill:none" points="399.279,490.043 418.177,490.043 "/>
<polyline clip-path="url(#clip080)" style="stroke:#808080; stroke-linecap:round; stroke-linejoin:round; stroke-width:4; stroke-opacity:1; fill:none" points="399.279,196.935 418.177,196.935 "/>
<path clip-path="url(#clip080)" d="M263.932 1076.71 L293.608 1076.71 L293.608 1080.65 L263.932 1080.65 L263.932 1076.71 Z" fill="#808080" fill-rule="nonzero" fill-opacity="1" /><path clip-path="url(#clip080)" d="M313.701 1062.06 Q310.09 1062.06 308.261 1065.62 Q306.455 1069.17 306.455 1076.3 Q306.455 1083.4 308.261 1086.97 Q310.09 1090.51 313.701 1090.51 Q317.335 1090.51 319.14 1086.97 Q320.969 1083.4 320.969 1076.3 Q320.969 1069.17 319.14 1065.62 Q317.335 1062.06 313.701 1062.06 M313.701 1058.36 Q319.511 1058.36 322.566 1062.96 Q325.645 1067.55 325.645 1076.3 Q325.645 1085.02 322.566 1089.63 Q319.511 1094.21 313.701 1094.21 Q307.891 1094.21 304.812 1089.63 Q301.756 1085.02 301.756 1076.3 Q301.756 1067.55 304.812 1062.96 Q307.891 1058.36 313.701 1058.36 Z" fill="#808080" fill-rule="nonzero" fill-opacity="1" /><path clip-path="url(#clip080)" d="M333.863 1087.66 L338.747 1087.66 L338.747 1093.54 L333.863 1093.54 L333.863 1087.66 Z" fill="#808080" fill-rule="nonzero" fill-opacity="1" /><path clip-path="url(#clip080)" d="M352.96 1089.61 L369.279 1089.61 L369.279 1093.54 L347.335 1093.54 L347.335 1089.61 Q349.997 1086.85 354.58 1082.22 Q359.187 1077.57 360.367 1076.23 Q362.612 1073.7 363.492 1071.97 Q364.395 1070.21 364.395 1068.52 Q364.395 1065.76 362.45 1064.03 Q360.529 1062.29 357.427 1062.29 Q355.228 1062.29 352.775 1063.06 Q350.344 1063.82 347.566 1065.37 L347.566 1060.65 Q350.39 1059.51 352.844 1058.93 Q355.298 1058.36 357.335 1058.36 Q362.705 1058.36 365.899 1061.04 Q369.094 1063.73 369.094 1068.22 Q369.094 1070.35 368.284 1072.27 Q367.497 1074.17 365.39 1076.76 Q364.812 1077.43 361.71 1080.65 Q358.608 1083.84 352.96 1089.61 Z" fill="#808080" fill-rule="nonzero" fill-opacity="1" /><path clip-path="url(#clip080)" d="M312.103 768.951 Q308.492 768.951 306.664 772.516 Q304.858 776.057 304.858 783.187 Q304.858 790.293 306.664 793.858 Q308.492 797.4 312.103 797.4 Q315.738 797.4 317.543 793.858 Q319.372 790.293 319.372 783.187 Q319.372 776.057 317.543 772.516 Q315.738 768.951 312.103 768.951 M312.103 765.247 Q317.914 765.247 320.969 769.854 Q324.048 774.437 324.048 783.187 Q324.048 791.914 320.969 796.52 Q317.914 801.104 312.103 801.104 Q306.293 801.104 303.215 796.52 Q300.159 791.914 300.159 783.187 Q300.159 774.437 303.215 769.854 Q306.293 765.247 312.103 765.247 Z" fill="#808080" fill-rule="nonzero" fill-opacity="1" /><path clip-path="url(#clip080)" d="M332.265 794.553 L337.15 794.553 L337.15 800.432 L332.265 800.432 L332.265 794.553 Z" fill="#808080" fill-rule="nonzero" fill-opacity="1" /><path clip-path="url(#clip080)" d="M357.335 768.951 Q353.724 768.951 351.895 772.516 Q350.089 776.057 350.089 783.187 Q350.089 790.293 351.895 793.858 Q353.724 797.4 357.335 797.4 Q360.969 797.4 362.775 793.858 Q364.603 790.293 364.603 783.187 Q364.603 776.057 362.775 772.516 Q360.969 768.951 357.335 768.951 M357.335 765.247 Q363.145 765.247 366.2 769.854 Q369.279 774.437 369.279 783.187 Q369.279 791.914 366.2 796.52 Q363.145 801.104 357.335 801.104 Q351.525 801.104 348.446 796.52 Q345.39 791.914 345.39 783.187 Q345.39 774.437 348.446 769.854 Q351.525 765.247 357.335 765.247 Z" fill="#808080" fill-rule="nonzero" fill-opacity="1" /><path clip-path="url(#clip080)" d="M313.701 475.842 Q310.09 475.842 308.261 479.407 Q306.455 482.949 306.455 490.078 Q306.455 497.185 308.261 500.749 Q310.09 504.291 313.701 504.291 Q317.335 504.291 319.14 500.749 Q320.969 497.185 320.969 490.078 Q320.969 482.949 319.14 479.407 Q317.335 475.842 313.701 475.842 M313.701 472.138 Q319.511 472.138 322.566 476.745 Q325.645 481.328 325.645 490.078 Q325.645 498.805 322.566 503.411 Q319.511 507.995 313.701 507.995 Q307.891 507.995 304.812 503.411 Q301.756 498.805 301.756 490.078 Q301.756 481.328 304.812 476.745 Q307.891 472.138 313.701 472.138 Z" fill="#808080" fill-rule="nonzero" fill-opacity="1" /><path clip-path="url(#clip080)" d="M333.863 501.444 L338.747 501.444 L338.747 507.323 L333.863 507.323 L333.863 501.444 Z" fill="#808080" fill-rule="nonzero" fill-opacity="1" /><path clip-path="url(#clip080)" d="M352.96 503.388 L369.279 503.388 L369.279 507.323 L347.335 507.323 L347.335 503.388 Q349.997 500.634 354.58 496.004 Q359.187 491.351 360.367 490.009 Q362.612 487.486 363.492 485.749 Q364.395 483.99 364.395 482.3 Q364.395 479.546 362.45 477.81 Q360.529 476.074 357.427 476.074 Q355.228 476.074 352.775 476.837 Q350.344 477.601 347.566 479.152 L347.566 474.43 Q350.39 473.296 352.844 472.717 Q355.298 472.138 357.335 472.138 Q362.705 472.138 365.899 474.824 Q369.094 477.509 369.094 481.999 Q369.094 484.129 368.284 486.05 Q367.497 487.949 365.39 490.541 Q364.812 491.212 361.71 494.43 Q358.608 497.624 352.96 503.388 Z" fill="#808080" fill-rule="nonzero" fill-opacity="1" /><path clip-path="url(#clip080)" d="M311.617 182.733 Q308.006 182.733 306.178 186.298 Q304.372 189.84 304.372 196.969 Q304.372 204.076 306.178 207.641 Q308.006 211.182 311.617 211.182 Q315.252 211.182 317.057 207.641 Q318.886 204.076 318.886 196.969 Q318.886 189.84 317.057 186.298 Q315.252 182.733 311.617 182.733 M311.617 179.03 Q317.428 179.03 320.483 183.636 Q323.562 188.219 323.562 196.969 Q323.562 205.696 320.483 210.303 Q317.428 214.886 311.617 214.886 Q305.807 214.886 302.729 210.303 Q299.673 205.696 299.673 196.969 Q299.673 188.219 302.729 183.636 Q305.807 179.03 311.617 179.03 Z" fill="#808080" fill-rule="nonzero" fill-opacity="1" /><path clip-path="url(#clip080)" d="M331.779 208.335 L336.664 208.335 L336.664 214.215 L331.779 214.215 L331.779 208.335 Z" fill="#808080" fill-rule="nonzero" fill-opacity="1" /><path clip-path="url(#clip080)" d="M359.696 183.729 L347.89 202.178 L359.696 202.178 L359.696 183.729 M358.469 179.655 L364.349 179.655 L364.349 202.178 L369.279 202.178 L369.279 206.066 L364.349 206.066 L364.349 214.215 L359.696 214.215 L359.696 206.066 L344.094 206.066 L344.094 201.553 L358.469 179.655 Z" fill="#808080" fill-rule="nonzero" fill-opacity="1" /><path clip-path="url(#clip080)" d="M177.091 633.584 Q177.091 634.035 176.801 635.098 L170.488 660.283 Q169.103 665.886 164.595 669.816 Q160.118 673.745 155.03 673.745 Q151.97 673.745 150.005 672.102 Q148.041 670.492 148.041 668.012 Q148.041 665.822 149.2 664.759 Q150.36 663.729 151.745 663.729 Q152.195 663.729 152.678 663.857 Q153.162 663.986 153.677 664.534 Q154.192 665.081 154.192 666.015 Q154.192 667.529 152.872 668.721 Q152.228 669.268 151.616 669.397 Q151.036 669.526 150.038 669.526 Q150.424 670.427 151.133 671.039 Q151.841 671.651 152.646 671.877 Q153.451 672.134 153.967 672.199 Q154.514 672.295 155.03 672.295 Q159.152 672.295 162.308 668.141 Q163.242 666.885 163.918 665.629 Q164.627 664.405 165.142 662.891 Q165.657 661.41 165.883 660.605 Q166.141 659.8 166.591 657.964 Q163.596 660.959 159.925 660.959 Q158.379 660.959 156.994 660.54 Q155.641 660.122 154.45 659.252 Q153.258 658.35 152.55 656.772 Q151.873 655.194 151.873 653.101 Q151.873 650.879 152.743 647.851 Q153.612 644.824 155.706 639.252 Q156.833 636.128 156.833 634.615 Q156.833 633.874 156.672 633.423 Q156.511 632.94 156.189 632.779 Q155.867 632.586 155.674 632.553 Q155.513 632.521 155.191 632.521 Q153.29 632.521 151.519 634.454 Q149.748 636.386 148.524 640.701 Q148.266 641.507 148.105 641.7 Q147.944 641.893 147.461 641.893 Q146.656 641.861 146.656 641.217 Q146.656 640.959 146.946 639.961 Q147.236 638.93 147.912 637.416 Q148.621 635.871 149.587 634.486 Q150.553 633.069 152.067 632.07 Q153.612 631.072 155.384 631.072 Q157.799 631.072 159.281 632.65 Q160.794 634.196 160.794 636.482 Q160.794 637.416 160.537 638.254 Q160.311 639.059 159.474 641.217 Q156.092 649.912 156.092 654.163 Q156.092 655.194 156.253 656.064 Q156.447 656.901 156.865 657.738 Q157.284 658.543 158.121 659.027 Q158.991 659.477 160.182 659.477 Q161.696 659.477 163.113 658.769 Q164.562 658.028 165.464 657.03 Q166.398 656.031 166.946 655.194 Q167.525 654.325 167.654 653.874 L170.617 642.022 L171.938 636.74 Q172.549 633.874 172.839 633.165 Q173.226 632.489 173.902 632.135 Q174.578 631.78 175.158 631.78 Q175.963 631.78 176.511 632.264 Q177.091 632.747 177.091 633.584 Z" fill="#808080" fill-rule="nonzero" fill-opacity="1" /><polyline clip-path="url(#clip082)" style="stroke:#005cab; stroke-linecap:round; stroke-linejoin:round; stroke-width:4; stroke-opacity:1; fill:none" points="1908.79,490.043 1908.22,490.086 1906.53,490.215 1903.71,490.43 1899.77,490.729 1894.71,491.111 1888.54,491.577 1881.28,492.123 1872.93,492.748 1863.5,493.45 1853.01,494.227 1841.48,495.078 1828.92,495.998 1815.36,496.987 1800.81,498.042 1785.3,499.159 1768.84,500.337 1751.48,501.573 1733.22,502.865 1714.11,504.209 1694.17,505.604 1673.42,507.046 1651.91,508.534 1629.67,510.063 1606.73,511.632 1583.12,513.237 1558.89,514.875 1534.07,516.542 1508.69,518.236 1482.8,519.951 1456.44,521.684 1429.64,523.429 1402.46,525.182 1374.92,526.936 1347.08,528.685 1318.97,530.424 1290.65,532.143 1262.15,533.836 1233.51,535.494 1204.79,537.109 1176.02,538.671 1147.25,540.171 1118.52,541.599 1089.89,542.944 1061.39,544.196 1033.06,545.344 1004.96,546.407 977.114,547.418 949.578,548.366 922.393,549.236 895.598,550.018 869.235,550.696 843.346,551.259 817.969,551.696 793.145,551.992 768.911,552.139 745.305,552.124 722.363,551.938 700.12,551.572 678.611,551.017 657.869,550.266 637.926,549.313 618.813,548.152 600.559,546.779 583.192,545.189 566.74,543.38 551.227,541.351 536.677,539.099 523.113,536.625 510.556,533.928 499.024,531.01 488.537,527.871 479.11,524.513 470.757,520.939 463.492,517.15 457.325,513.149 452.267,508.938 448.325,504.52 445.504,499.896 443.81,495.07 443.245,490.043 443.81,484.904 445.504,479.74 448.325,474.556 452.267,469.358 457.325,464.156 463.492,458.957 470.757,453.775 479.11,448.62 488.537,443.508 499.024,438.452 510.556,433.47 523.113,428.577 536.677,423.791 551.227,419.129 566.74,414.609 583.192,410.249 600.559,406.067 618.813,402.079 637.926,398.303 657.869,394.754 678.611,391.447 700.12,388.396 722.363,385.615 745.305,383.115 768.911,380.907 793.145,378.999 817.969,377.4 843.346,376.115 869.235,375.148 895.598,374.504 922.393,374.184 949.578,374.188 977.114,374.514 1004.96,375.16 1033.06,376.122 1061.39,377.347 1089.89,378.798 1118.52,380.468 1147.25,382.346 1176.02,384.422 1204.79,386.686 1233.51,389.127 1262.15,391.734 1290.65,394.494 1318.97,397.396 1347.08,400.428 1374.92,403.577 1402.46,406.831 1429.64,410.177 1456.44,413.603 1482.8,417.095 1508.69,420.641 1534.07,424.227 1558.89,427.841 1583.12,431.469 1606.73,435.098 1629.67,438.715 1651.91,442.306 1673.42,445.858 1694.17,449.359 1714.11,452.793 1733.22,456.15 1751.48,459.414 1768.84,462.575 1785.3,465.618 1800.81,468.532 1815.36,471.304 1828.92,473.923 1841.48,476.378 1853.01,478.658 1863.5,480.754 1872.93,482.655 1881.28,484.353 1888.54,485.842 1894.71,487.113 1899.77,488.161 1903.71,488.982 1906.53,489.571 1908.22,489.925 1908.79,490.043 "/>
<polyline clip-path="url(#clip082)" style="stroke:#be4c4d; stroke-linecap:round; stroke-linejoin:round; stroke-width:4; stroke-opacity:1; fill:none" points="1908.79,783.152 1908.22,783.195 1906.53,783.324 1903.71,783.539 1899.77,783.838 1894.71,784.22 1888.54,784.685 1881.28,785.231 1872.93,785.856 1863.5,786.559 1853.01,787.336 1841.48,788.186 1828.92,789.107 1815.36,790.096 1800.81,791.15 1785.3,792.268 1768.84,793.446 1751.48,794.682 1733.22,795.974 1714.11,797.318 1694.17,798.713 1673.42,800.155 1651.91,801.642 1629.67,803.172 1606.73,804.741 1583.12,806.346 1558.89,807.984 1534.07,809.651 1508.69,811.345 1482.8,813.06 1456.44,814.793 1429.64,816.538 1402.46,818.29 1374.92,820.045 1347.08,821.794 1318.97,823.532 1290.65,825.252 1262.15,826.945 1233.51,828.603 1204.79,830.218 1176.02,831.78 1147.25,833.28 1118.52,834.708 1089.89,836.053 1061.39,837.305 1033.06,838.453 1004.96,839.516 977.114,840.527 949.578,841.475 922.393,842.345 895.598,843.126 869.235,843.805 843.346,844.368 817.969,844.804 793.145,845.101 768.911,845.247 745.305,845.233 722.363,845.047 700.12,844.68 678.611,844.126 657.869,843.375 637.926,842.422 618.813,841.261 600.559,839.888 583.192,838.298 566.74,836.489 551.227,834.46 536.677,832.208 523.113,829.734 510.556,827.037 499.024,824.119 488.537,820.98 479.11,817.622 470.757,814.048 463.492,810.259 457.325,806.258 452.267,802.047 448.325,797.628 445.504,793.005 443.81,788.179 443.245,783.152 443.81,778.013 445.504,772.849 448.325,767.665 452.267,762.467 457.325,757.265 463.492,752.066 470.757,746.883 479.11,741.729 488.537,736.616 499.024,731.561 510.556,726.578 523.113,721.686 536.677,716.899 551.227,712.238 566.74,707.718 583.192,703.358 600.559,699.176 618.813,695.188 637.926,691.412 657.869,687.863 678.611,684.556 700.12,681.505 722.363,678.724 745.305,676.224 768.911,674.016 793.145,672.108 817.969,670.509 843.346,669.223 869.235,668.257 895.598,667.613 922.393,667.293 949.578,667.297 977.114,667.623 1004.96,668.269 1033.06,669.231 1061.39,670.455 1089.89,671.907 1118.52,673.577 1147.25,675.455 1176.02,677.531 1204.79,679.795 1233.51,682.236 1262.15,684.843 1290.65,687.603 1318.97,690.505 1347.08,693.537 1374.92,696.686 1402.46,699.94 1429.64,703.286 1456.44,706.712 1482.8,710.204 1508.69,713.75 1534.07,717.336 1558.89,720.95 1583.12,724.578 1606.73,728.207 1629.67,731.824 1651.91,735.415 1673.42,738.967 1694.17,742.467 1714.11,745.902 1733.22,749.259 1751.48,752.523 1768.84,755.684 1785.3,758.727 1800.81,761.641 1815.36,764.413 1828.92,767.032 1841.48,769.487 1853.01,771.767 1863.5,773.862 1872.93,775.764 1881.28,777.462 1888.54,778.951 1894.71,780.222 1899.77,781.27 1903.71,782.091 1906.53,782.68 1908.22,783.034 1908.79,783.152 "/>
<path clip-path="url(#clip080)" d="M1515.05 240.262 L1900.97 240.262 L1900.97 84.7422 L1515.05 84.7422  Z" fill="#000000" fill-rule="evenodd" fill-opacity="0"/>
<polyline clip-path="url(#clip080)" style="stroke:#000000; stroke-linecap:round; stroke-linejoin:round; stroke-width:4; stroke-opacity:0; fill:none" points="1515.05,240.262 1900.97,240.262 1900.97,84.7422 1515.05,84.7422 1515.05,240.262 "/>
<polyline clip-path="url(#clip080)" style="stroke:#005cab; stroke-linecap:round; stroke-linejoin:round; stroke-width:4; stroke-opacity:1; fill:none" points="1532.31,136.582 1635.87,136.582 "/>
<path clip-path="url(#clip080)" d="M1653.14 119.302 L1659.43 119.302 L1674.76 148.214 L1674.76 119.302 L1679.29 119.302 L1679.29 153.862 L1673 153.862 L1657.67 124.95 L1657.67 153.862 L1653.14 153.862 L1653.14 119.302 Z" fill="#808080" fill-rule="nonzero" fill-opacity="1" /><path clip-path="url(#clip080)" d="M1698.46 130.923 Q1695.03 130.923 1693.04 133.608 Q1691.05 136.27 1691.05 140.922 Q1691.05 145.575 1693.02 148.26 Q1695.01 150.922 1698.46 150.922 Q1701.86 150.922 1703.85 148.237 Q1705.84 145.552 1705.84 140.922 Q1705.84 136.316 1703.85 133.631 Q1701.86 130.923 1698.46 130.923 M1698.46 127.311 Q1704.01 127.311 1707.19 130.923 Q1710.36 134.534 1710.36 140.922 Q1710.36 147.288 1707.19 150.922 Q1704.01 154.534 1698.46 154.534 Q1692.88 154.534 1689.71 150.922 Q1686.56 147.288 1686.56 140.922 Q1686.56 134.534 1689.71 130.923 Q1692.88 127.311 1698.46 127.311 Z" fill="#808080" fill-rule="nonzero" fill-opacity="1" /><path clip-path="url(#clip080)" d="M1737.6 132.913 Q1739.2 130.043 1741.42 128.677 Q1743.64 127.311 1746.65 127.311 Q1750.7 127.311 1752.9 130.159 Q1755.1 132.983 1755.1 138.214 L1755.1 153.862 L1750.82 153.862 L1750.82 138.353 Q1750.82 134.626 1749.5 132.821 Q1748.18 131.015 1745.47 131.015 Q1742.16 131.015 1740.24 133.214 Q1738.32 135.413 1738.32 139.21 L1738.32 153.862 L1734.04 153.862 L1734.04 138.353 Q1734.04 134.603 1732.72 132.821 Q1731.4 131.015 1728.64 131.015 Q1725.38 131.015 1723.46 133.237 Q1721.54 135.436 1721.54 139.21 L1721.54 153.862 L1717.26 153.862 L1717.26 127.936 L1721.54 127.936 L1721.54 131.964 Q1723 129.58 1725.03 128.446 Q1727.07 127.311 1729.87 127.311 Q1732.69 127.311 1734.66 128.747 Q1736.65 130.182 1737.6 132.913 Z" fill="#808080" fill-rule="nonzero" fill-opacity="1" /><path clip-path="url(#clip080)" d="M1763.6 127.936 L1767.86 127.936 L1767.86 153.862 L1763.6 153.862 L1763.6 127.936 M1763.6 117.844 L1767.86 117.844 L1767.86 123.237 L1763.6 123.237 L1763.6 117.844 Z" fill="#808080" fill-rule="nonzero" fill-opacity="1" /><path clip-path="url(#clip080)" d="M1798.32 138.214 L1798.32 153.862 L1794.06 153.862 L1794.06 138.353 Q1794.06 134.672 1792.63 132.844 Q1791.19 131.015 1788.32 131.015 Q1784.87 131.015 1782.88 133.214 Q1780.89 135.413 1780.89 139.21 L1780.89 153.862 L1776.61 153.862 L1776.61 127.936 L1780.89 127.936 L1780.89 131.964 Q1782.42 129.626 1784.48 128.469 Q1786.56 127.311 1789.27 127.311 Q1793.74 127.311 1796.03 130.089 Q1798.32 132.844 1798.32 138.214 Z" fill="#808080" fill-rule="nonzero" fill-opacity="1" /><path clip-path="url(#clip080)" d="M1818.6 140.83 Q1813.44 140.83 1811.44 142.01 Q1809.45 143.191 1809.45 146.038 Q1809.45 148.307 1810.94 149.649 Q1812.44 150.969 1815.01 150.969 Q1818.55 150.969 1820.68 148.469 Q1822.83 145.946 1822.83 141.779 L1822.83 140.83 L1818.6 140.83 M1827.09 139.071 L1827.09 153.862 L1822.83 153.862 L1822.83 149.927 Q1821.37 152.288 1819.2 153.422 Q1817.02 154.534 1813.87 154.534 Q1809.89 154.534 1807.53 152.311 Q1805.19 150.066 1805.19 146.316 Q1805.19 141.941 1808.11 139.719 Q1811.05 137.497 1816.86 137.497 L1822.83 137.497 L1822.83 137.08 Q1822.83 134.14 1820.89 132.543 Q1818.97 130.923 1815.47 130.923 Q1813.25 130.923 1811.14 131.455 Q1809.04 131.987 1807.09 133.052 L1807.09 129.117 Q1809.43 128.214 1811.63 127.774 Q1813.83 127.311 1815.91 127.311 Q1821.54 127.311 1824.31 130.228 Q1827.09 133.145 1827.09 139.071 Z" fill="#808080" fill-rule="nonzero" fill-opacity="1" /><path clip-path="url(#clip080)" d="M1835.87 117.844 L1840.12 117.844 L1840.12 153.862 L1835.87 153.862 L1835.87 117.844 Z" fill="#808080" fill-rule="nonzero" fill-opacity="1" /><polyline clip-path="url(#clip080)" style="stroke:#be4c4d; stroke-linecap:round; stroke-linejoin:round; stroke-width:4; stroke-opacity:1; fill:none" points="1532.31,188.422 1635.87,188.422 "/>
<path clip-path="url(#clip080)" d="M1653.14 171.142 L1682.37 171.142 L1682.37 175.077 L1670.1 175.077 L1670.1 205.702 L1665.4 205.702 L1665.4 175.077 L1653.14 175.077 L1653.14 171.142 Z" fill="#808080" fill-rule="nonzero" fill-opacity="1" /><path clip-path="url(#clip080)" d="M1686.88 171.142 L1708.74 171.142 L1708.74 175.077 L1691.56 175.077 L1691.56 185.309 L1708.02 185.309 L1708.02 189.244 L1691.56 189.244 L1691.56 201.767 L1709.15 201.767 L1709.15 205.702 L1686.88 205.702 L1686.88 171.142 Z" fill="#808080" fill-rule="nonzero" fill-opacity="1" /><path clip-path="url(#clip080)" d="M1729.87 179.776 L1750.1 179.776 L1750.1 183.665 L1734.08 202.299 L1750.1 202.299 L1750.1 205.702 L1729.29 205.702 L1729.29 201.813 L1745.31 183.179 L1729.87 183.179 L1729.87 179.776 Z" fill="#808080" fill-rule="nonzero" fill-opacity="1" /><path clip-path="url(#clip080)" d="M1778.78 191.675 L1778.78 193.758 L1759.2 193.758 Q1759.48 198.156 1761.84 200.471 Q1764.22 202.762 1768.46 202.762 Q1770.91 202.762 1773.2 202.161 Q1775.52 201.559 1777.79 200.355 L1777.79 204.383 Q1775.5 205.355 1773.09 205.864 Q1770.68 206.374 1768.2 206.374 Q1762 206.374 1758.37 202.762 Q1754.75 199.151 1754.75 192.994 Q1754.75 186.628 1758.18 182.901 Q1761.63 179.151 1767.46 179.151 Q1772.69 179.151 1775.73 182.531 Q1778.78 185.888 1778.78 191.675 M1774.52 190.425 Q1774.48 186.929 1772.56 184.846 Q1770.66 182.763 1767.51 182.763 Q1763.94 182.763 1761.79 184.776 Q1759.66 186.79 1759.34 190.448 L1774.52 190.425 Z" fill="#808080" fill-rule="nonzero" fill-opacity="1" /><path clip-path="url(#clip080)" d="M1800.8 183.758 Q1800.08 183.341 1799.22 183.156 Q1798.39 182.948 1797.37 182.948 Q1793.76 182.948 1791.81 185.309 Q1789.89 187.647 1789.89 192.045 L1789.89 205.702 L1785.61 205.702 L1785.61 179.776 L1789.89 179.776 L1789.89 183.804 Q1791.24 181.443 1793.39 180.309 Q1795.54 179.151 1798.62 179.151 Q1799.06 179.151 1799.59 179.221 Q1800.12 179.267 1800.77 179.383 L1800.8 183.758 Z" fill="#808080" fill-rule="nonzero" fill-opacity="1" /><path clip-path="url(#clip080)" d="M1814.27 182.763 Q1810.84 182.763 1808.85 185.448 Q1806.86 188.11 1806.86 192.762 Q1806.86 197.415 1808.83 200.1 Q1810.82 202.762 1814.27 202.762 Q1817.67 202.762 1819.66 200.077 Q1821.65 197.392 1821.65 192.762 Q1821.65 188.156 1819.66 185.471 Q1817.67 182.763 1814.27 182.763 M1814.27 179.151 Q1819.82 179.151 1823 182.763 Q1826.17 186.374 1826.17 192.762 Q1826.17 199.128 1823 202.762 Q1819.82 206.374 1814.27 206.374 Q1808.69 206.374 1805.52 202.762 Q1802.37 199.128 1802.37 192.762 Q1802.37 186.374 1805.52 182.763 Q1808.69 179.151 1814.27 179.151 Z" fill="#808080" fill-rule="nonzero" fill-opacity="1" /><path clip-path="url(#clip080)" d="M1855.4 191.675 L1855.4 193.758 L1835.82 193.758 Q1836.1 198.156 1838.46 200.471 Q1840.84 202.762 1845.08 202.762 Q1847.53 202.762 1849.82 202.161 Q1852.14 201.559 1854.41 200.355 L1854.41 204.383 Q1852.12 205.355 1849.71 205.864 Q1847.3 206.374 1844.82 206.374 Q1838.62 206.374 1834.99 202.762 Q1831.37 199.151 1831.37 192.994 Q1831.37 186.628 1834.8 182.901 Q1838.25 179.151 1844.08 179.151 Q1849.31 179.151 1852.35 182.531 Q1855.4 185.888 1855.4 191.675 M1851.14 190.425 Q1851.1 186.929 1849.18 184.846 Q1847.28 182.763 1844.13 182.763 Q1840.56 182.763 1838.41 184.776 Q1836.28 186.79 1835.96 190.448 L1851.14 190.425 Z" fill="#808080" fill-rule="nonzero" fill-opacity="1" /><path clip-path="url(#clip080)" d="M1879.45 183.712 L1879.45 169.684 L1883.71 169.684 L1883.71 205.702 L1879.45 205.702 L1879.45 201.813 Q1878.11 204.128 1876.05 205.262 Q1874.01 206.374 1871.14 206.374 Q1866.44 206.374 1863.48 202.624 Q1860.54 198.874 1860.54 192.762 Q1860.54 186.651 1863.48 182.901 Q1866.44 179.151 1871.14 179.151 Q1874.01 179.151 1876.05 180.286 Q1878.11 181.397 1879.45 183.712 M1864.94 192.762 Q1864.94 197.462 1866.86 200.147 Q1868.81 202.809 1872.18 202.809 Q1875.56 202.809 1877.51 200.147 Q1879.45 197.462 1879.45 192.762 Q1879.45 188.063 1877.51 185.401 Q1875.56 182.716 1872.18 182.716 Q1868.81 182.716 1866.86 185.401 Q1864.94 188.063 1864.94 192.762 Z" fill="#808080" fill-rule="nonzero" fill-opacity="1" /></svg>
