<?xml version="1.0" encoding="utf-8"?>
<svg xmlns="http://www.w3.org/2000/svg" xmlns:xlink="http://www.w3.org/1999/xlink" width="500" height="375" viewBox="0 0 2000 1500">
<defs>
  <clipPath id="clip740">
    <rect x="0" y="0" width="2000" height="1500"/>
  </clipPath>
</defs>
<defs>
  <clipPath id="clip741">
    <rect x="400" y="0" width="1401" height="1401"/>
  </clipPath>
</defs>
<defs>
  <clipPath id="clip742">
    <rect x="399" y="47" width="1554" height="1126"/>
  </clipPath>
</defs>
<polyline clip-path="url(#clip740)" style="stroke:#8f9191; stroke-linecap:round; stroke-linejoin:round; stroke-width:4; stroke-opacity:1; fill:none" points="399.279,1172.19 1952.76,1172.19 "/>
<polyline clip-path="url(#clip740)" style="stroke:#8f9191; stroke-linecap:round; stroke-linejoin:round; stroke-width:4; stroke-opacity:1; fill:none" points="443.245,1172.19 443.245,1153.29 "/>
<polyline clip-path="url(#clip740)" style="stroke:#8f9191; stroke-linecap:round; stroke-linejoin:round; stroke-width:4; stroke-opacity:1; fill:none" points="809.631,1172.19 809.631,1153.29 "/>
<polyline clip-path="url(#clip740)" style="stroke:#8f9191; stroke-linecap:round; stroke-linejoin:round; stroke-width:4; stroke-opacity:1; fill:none" points="1176.02,1172.19 1176.02,1153.29 "/>
<polyline clip-path="url(#clip740)" style="stroke:#8f9191; stroke-linecap:round; stroke-linejoin:round; stroke-width:4; stroke-opacity:1; fill:none" points="1542.4,1172.19 1542.4,1153.29 "/>
<polyline clip-path="url(#clip740)" style="stroke:#8f9191; stroke-linecap:round; stroke-linejoin:round; stroke-width:4; stroke-opacity:1; fill:none" points="1908.79,1172.19 1908.79,1153.29 "/>
<path clip-path="url(#clip740)" d="M405.549 1199.91 Q401.938 1199.91 400.109 1203.47 Q398.304 1207.01 398.304 1214.14 Q398.304 1221.25 400.109 1224.81 Q401.938 1228.36 405.549 1228.36 Q409.183 1228.36 410.989 1224.81 Q412.817 1221.25 412.817 1214.14 Q412.817 1207.01 410.989 1203.47 Q409.183 1199.91 405.549 1199.91 M405.549 1196.2 Q411.359 1196.2 414.415 1200.81 Q417.493 1205.39 417.493 1214.14 Q417.493 1222.87 414.415 1227.48 Q411.359 1232.06 405.549 1232.06 Q399.739 1232.06 396.66 1227.48 Q393.604 1222.87 393.604 1214.14 Q393.604 1205.39 396.66 1200.81 Q399.739 1196.2 405.549 1196.2 Z" fill="#8f9191" fill-rule="nonzero" fill-opacity="1" /><path clip-path="url(#clip740)" d="M425.711 1225.51 L430.595 1225.51 L430.595 1231.39 L425.711 1231.39 L425.711 1225.51 Z" fill="#8f9191" fill-rule="nonzero" fill-opacity="1" /><path clip-path="url(#clip740)" d="M450.78 1199.91 Q447.169 1199.91 445.34 1203.47 Q443.535 1207.01 443.535 1214.14 Q443.535 1221.25 445.34 1224.81 Q447.169 1228.36 450.78 1228.36 Q454.414 1228.36 456.22 1224.81 Q458.049 1221.25 458.049 1214.14 Q458.049 1207.01 456.22 1203.47 Q454.414 1199.91 450.78 1199.91 M450.78 1196.2 Q456.59 1196.2 459.646 1200.81 Q462.724 1205.39 462.724 1214.14 Q462.724 1222.87 459.646 1227.48 Q456.59 1232.06 450.78 1232.06 Q444.97 1232.06 441.891 1227.48 Q438.836 1222.87 438.836 1214.14 Q438.836 1205.39 441.891 1200.81 Q444.97 1196.2 450.78 1196.2 Z" fill="#8f9191" fill-rule="nonzero" fill-opacity="1" /><path clip-path="url(#clip740)" d="M480.942 1199.91 Q477.331 1199.91 475.502 1203.47 Q473.697 1207.01 473.697 1214.14 Q473.697 1221.25 475.502 1224.81 Q477.331 1228.36 480.942 1228.36 Q484.576 1228.36 486.382 1224.81 Q488.21 1221.25 488.21 1214.14 Q488.21 1207.01 486.382 1203.47 Q484.576 1199.91 480.942 1199.91 M480.942 1196.2 Q486.752 1196.2 489.808 1200.81 Q492.886 1205.39 492.886 1214.14 Q492.886 1222.87 489.808 1227.48 Q486.752 1232.06 480.942 1232.06 Q475.132 1232.06 472.053 1227.48 Q468.998 1222.87 468.998 1214.14 Q468.998 1205.39 472.053 1200.81 Q475.132 1196.2 480.942 1196.2 Z" fill="#8f9191" fill-rule="nonzero" fill-opacity="1" /><path clip-path="url(#clip740)" d="M772.433 1199.91 Q768.821 1199.91 766.993 1203.47 Q765.187 1207.01 765.187 1214.14 Q765.187 1221.25 766.993 1224.81 Q768.821 1228.36 772.433 1228.36 Q776.067 1228.36 777.872 1224.81 Q779.701 1221.25 779.701 1214.14 Q779.701 1207.01 777.872 1203.47 Q776.067 1199.91 772.433 1199.91 M772.433 1196.2 Q778.243 1196.2 781.298 1200.81 Q784.377 1205.39 784.377 1214.14 Q784.377 1222.87 781.298 1227.48 Q778.243 1232.06 772.433 1232.06 Q766.622 1232.06 763.544 1227.48 Q760.488 1222.87 760.488 1214.14 Q760.488 1205.39 763.544 1200.81 Q766.622 1196.2 772.433 1196.2 Z" fill="#8f9191" fill-rule="nonzero" fill-opacity="1" /><path clip-path="url(#clip740)" d="M792.595 1225.51 L797.479 1225.51 L797.479 1231.39 L792.595 1231.39 L792.595 1225.51 Z" fill="#8f9191" fill-rule="nonzero" fill-opacity="1" /><path clip-path="url(#clip740)" d="M811.692 1227.45 L828.011 1227.45 L828.011 1231.39 L806.067 1231.39 L806.067 1227.45 Q808.729 1224.7 813.312 1220.07 Q817.918 1215.42 819.099 1214.07 Q821.344 1211.55 822.224 1209.81 Q823.127 1208.05 823.127 1206.36 Q823.127 1203.61 821.182 1201.87 Q819.261 1200.14 816.159 1200.14 Q813.96 1200.14 811.506 1200.9 Q809.076 1201.67 806.298 1203.22 L806.298 1198.49 Q809.122 1197.36 811.576 1196.78 Q814.03 1196.2 816.067 1196.2 Q821.437 1196.2 824.631 1198.89 Q827.826 1201.57 827.826 1206.06 Q827.826 1208.19 827.016 1210.11 Q826.229 1212.01 824.122 1214.61 Q823.543 1215.28 820.442 1218.49 Q817.34 1221.69 811.692 1227.45 Z" fill="#8f9191" fill-rule="nonzero" fill-opacity="1" /><path clip-path="url(#clip740)" d="M837.872 1196.83 L856.228 1196.83 L856.228 1200.76 L842.154 1200.76 L842.154 1209.23 Q843.173 1208.89 844.191 1208.73 Q845.21 1208.54 846.228 1208.54 Q852.015 1208.54 855.395 1211.71 Q858.775 1214.88 858.775 1220.3 Q858.775 1225.88 855.303 1228.98 Q851.83 1232.06 845.511 1232.06 Q843.335 1232.06 841.066 1231.69 Q838.821 1231.32 836.414 1230.58 L836.414 1225.88 Q838.497 1227.01 840.719 1227.57 Q842.941 1228.12 845.418 1228.12 Q849.423 1228.12 851.761 1226.02 Q854.099 1223.91 854.099 1220.3 Q854.099 1216.69 851.761 1214.58 Q849.423 1212.48 845.418 1212.48 Q843.543 1212.48 841.668 1212.89 Q839.816 1213.31 837.872 1214.19 L837.872 1196.83 Z" fill="#8f9191" fill-rule="nonzero" fill-opacity="1" /><path clip-path="url(#clip740)" d="M1138.32 1199.91 Q1134.71 1199.91 1132.88 1203.47 Q1131.08 1207.01 1131.08 1214.14 Q1131.08 1221.25 1132.88 1224.81 Q1134.71 1228.36 1138.32 1228.36 Q1141.96 1228.36 1143.76 1224.81 Q1145.59 1221.25 1145.59 1214.14 Q1145.59 1207.01 1143.76 1203.47 Q1141.96 1199.91 1138.32 1199.91 M1138.32 1196.2 Q1144.13 1196.2 1147.19 1200.81 Q1150.27 1205.39 1150.27 1214.14 Q1150.27 1222.87 1147.19 1227.48 Q1144.13 1232.06 1138.32 1232.06 Q1132.51 1232.06 1129.43 1227.48 Q1126.38 1222.87 1126.38 1214.14 Q1126.38 1205.39 1129.43 1200.81 Q1132.51 1196.2 1138.32 1196.2 Z" fill="#8f9191" fill-rule="nonzero" fill-opacity="1" /><path clip-path="url(#clip740)" d="M1158.48 1225.51 L1163.37 1225.51 L1163.37 1231.39 L1158.48 1231.39 L1158.48 1225.51 Z" fill="#8f9191" fill-rule="nonzero" fill-opacity="1" /><path clip-path="url(#clip740)" d="M1173.6 1196.83 L1191.95 1196.83 L1191.95 1200.76 L1177.88 1200.76 L1177.88 1209.23 Q1178.9 1208.89 1179.92 1208.73 Q1180.94 1208.54 1181.95 1208.54 Q1187.74 1208.54 1191.12 1211.71 Q1194.5 1214.88 1194.5 1220.3 Q1194.5 1225.88 1191.03 1228.98 Q1187.56 1232.06 1181.24 1232.06 Q1179.06 1232.06 1176.79 1231.69 Q1174.55 1231.32 1172.14 1230.58 L1172.14 1225.88 Q1174.22 1227.01 1176.45 1227.57 Q1178.67 1228.12 1181.14 1228.12 Q1185.15 1228.12 1187.49 1226.02 Q1189.83 1223.91 1189.83 1220.3 Q1189.83 1216.69 1187.49 1214.58 Q1185.15 1212.48 1181.14 1212.48 Q1179.27 1212.48 1177.39 1212.89 Q1175.54 1213.31 1173.6 1214.19 L1173.6 1196.83 Z" fill="#8f9191" fill-rule="nonzero" fill-opacity="1" /><path clip-path="url(#clip740)" d="M1213.71 1199.91 Q1210.1 1199.91 1208.27 1203.47 Q1206.47 1207.01 1206.47 1214.14 Q1206.47 1221.25 1208.27 1224.81 Q1210.1 1228.36 1213.71 1228.36 Q1217.35 1228.36 1219.15 1224.81 Q1220.98 1221.25 1220.98 1214.14 Q1220.98 1207.01 1219.15 1203.47 Q1217.35 1199.91 1213.71 1199.91 M1213.71 1196.2 Q1219.52 1196.2 1222.58 1200.81 Q1225.66 1205.39 1225.66 1214.14 Q1225.66 1222.87 1222.58 1227.48 Q1219.52 1232.06 1213.71 1232.06 Q1207.9 1232.06 1204.83 1227.48 Q1201.77 1222.87 1201.77 1214.14 Q1201.77 1205.39 1204.83 1200.81 Q1207.9 1196.2 1213.71 1196.2 Z" fill="#8f9191" fill-rule="nonzero" fill-opacity="1" /><path clip-path="url(#clip740)" d="M1505.2 1199.91 Q1501.59 1199.91 1499.76 1203.47 Q1497.96 1207.01 1497.96 1214.14 Q1497.96 1221.25 1499.76 1224.81 Q1501.59 1228.36 1505.2 1228.36 Q1508.84 1228.36 1510.64 1224.81 Q1512.47 1221.25 1512.47 1214.14 Q1512.47 1207.01 1510.64 1203.47 Q1508.84 1199.91 1505.2 1199.91 M1505.2 1196.2 Q1511.01 1196.2 1514.07 1200.81 Q1517.15 1205.39 1517.15 1214.14 Q1517.15 1222.87 1514.07 1227.48 Q1511.01 1232.06 1505.2 1232.06 Q1499.39 1232.06 1496.32 1227.48 Q1493.26 1222.87 1493.26 1214.14 Q1493.26 1205.39 1496.32 1200.81 Q1499.39 1196.2 1505.2 1196.2 Z" fill="#8f9191" fill-rule="nonzero" fill-opacity="1" /><path clip-path="url(#clip740)" d="M1525.37 1225.51 L1530.25 1225.51 L1530.25 1231.39 L1525.37 1231.39 L1525.37 1225.51 Z" fill="#8f9191" fill-rule="nonzero" fill-opacity="1" /><path clip-path="url(#clip740)" d="M1539.26 1196.83 L1561.48 1196.83 L1561.48 1198.82 L1548.93 1231.39 L1544.05 1231.39 L1555.85 1200.76 L1539.26 1200.76 L1539.26 1196.83 Z" fill="#8f9191" fill-rule="nonzero" fill-opacity="1" /><path clip-path="url(#clip740)" d="M1570.64 1196.83 L1589 1196.83 L1589 1200.76 L1574.93 1200.76 L1574.93 1209.23 Q1575.95 1208.89 1576.96 1208.73 Q1577.98 1208.54 1579 1208.54 Q1584.79 1208.54 1588.17 1211.71 Q1591.55 1214.88 1591.55 1220.3 Q1591.55 1225.88 1588.07 1228.98 Q1584.6 1232.06 1578.28 1232.06 Q1576.11 1232.06 1573.84 1231.69 Q1571.59 1231.32 1569.19 1230.58 L1569.19 1225.88 Q1571.27 1227.01 1573.49 1227.57 Q1575.71 1228.12 1578.19 1228.12 Q1582.19 1228.12 1584.53 1226.02 Q1586.87 1223.91 1586.87 1220.3 Q1586.87 1216.69 1584.53 1214.58 Q1582.19 1212.48 1578.19 1212.48 Q1576.32 1212.48 1574.44 1212.89 Q1572.59 1213.31 1570.64 1214.19 L1570.64 1196.83 Z" fill="#8f9191" fill-rule="nonzero" fill-opacity="1" /><path clip-path="url(#clip740)" d="M1860.86 1227.45 L1868.5 1227.45 L1868.5 1201.09 L1860.19 1202.75 L1860.19 1198.49 L1868.45 1196.83 L1873.13 1196.83 L1873.13 1227.45 L1880.77 1227.45 L1880.77 1231.39 L1860.86 1231.39 L1860.86 1227.45 Z" fill="#8f9191" fill-rule="nonzero" fill-opacity="1" /><path clip-path="url(#clip740)" d="M1890.21 1225.51 L1895.1 1225.51 L1895.1 1231.39 L1890.21 1231.39 L1890.21 1225.51 Z" fill="#8f9191" fill-rule="nonzero" fill-opacity="1" /><path clip-path="url(#clip740)" d="M1915.28 1199.91 Q1911.67 1199.91 1909.84 1203.47 Q1908.04 1207.01 1908.04 1214.14 Q1908.04 1221.25 1909.84 1224.81 Q1911.67 1228.36 1915.28 1228.36 Q1918.92 1228.36 1920.72 1224.81 Q1922.55 1221.25 1922.55 1214.14 Q1922.55 1207.01 1920.72 1203.47 Q1918.92 1199.91 1915.28 1199.91 M1915.28 1196.2 Q1921.09 1196.2 1924.15 1200.81 Q1927.23 1205.39 1927.23 1214.14 Q1927.23 1222.87 1924.15 1227.48 Q1921.09 1232.06 1915.28 1232.06 Q1909.47 1232.06 1906.39 1227.48 Q1903.34 1222.87 1903.34 1214.14 Q1903.34 1205.39 1906.39 1200.81 Q1909.47 1196.2 1915.28 1196.2 Z" fill="#8f9191" fill-rule="nonzero" fill-opacity="1" /><path clip-path="url(#clip740)" d="M1945.44 1199.91 Q1941.83 1199.91 1940 1203.47 Q1938.2 1207.01 1938.2 1214.14 Q1938.2 1221.25 1940 1224.81 Q1941.83 1228.36 1945.44 1228.36 Q1949.08 1228.36 1950.88 1224.81 Q1952.71 1221.25 1952.71 1214.14 Q1952.71 1207.01 1950.88 1203.47 Q1949.08 1199.91 1945.44 1199.91 M1945.44 1196.2 Q1951.25 1196.2 1954.31 1200.81 Q1957.39 1205.39 1957.39 1214.14 Q1957.39 1222.87 1954.31 1227.48 Q1951.25 1232.06 1945.44 1232.06 Q1939.63 1232.06 1936.56 1227.48 Q1933.5 1222.87 1933.5 1214.14 Q1933.5 1205.39 1936.56 1200.81 Q1939.63 1196.2 1945.44 1196.2 Z" fill="#8f9191" fill-rule="nonzero" fill-opacity="1" /><path clip-path="url(#clip740)" d="M1190.19 1271.81 Q1190.19 1273.61 1189.06 1274.64 Q1187.94 1275.64 1186.65 1275.64 Q1185.43 1275.64 1184.78 1274.93 Q1184.14 1274.23 1184.14 1273.32 Q1184.14 1272.1 1185.04 1271.04 Q1185.94 1269.97 1187.29 1269.75 Q1185.97 1268.91 1184.01 1268.91 Q1182.72 1268.91 1181.59 1269.59 Q1180.5 1270.26 1179.82 1271.13 Q1179.18 1272 1178.6 1273.26 Q1178.05 1274.48 1177.82 1275.22 Q1177.63 1275.93 1177.47 1276.71 L1175.22 1285.72 Q1174.12 1290.01 1174.12 1291.52 Q1174.12 1293.39 1175.02 1294.64 Q1175.92 1295.87 1177.73 1295.87 Q1178.44 1295.87 1179.24 1295.67 Q1180.05 1295.45 1181.08 1294.87 Q1182.14 1294.26 1183.07 1293.36 Q1184.04 1292.42 1184.97 1290.84 Q1185.91 1289.27 1186.52 1287.24 Q1186.71 1286.53 1187.36 1286.53 Q1188.16 1286.53 1188.16 1287.17 Q1188.16 1287.72 1187.71 1288.88 Q1187.29 1290.01 1186.36 1291.49 Q1185.46 1292.94 1184.27 1294.26 Q1183.07 1295.55 1181.3 1296.45 Q1179.53 1297.35 1177.6 1297.35 Q1174.83 1297.35 1172.99 1295.87 Q1171.16 1294.39 1170.48 1292.33 Q1170.32 1292.62 1170.1 1293 Q1169.87 1293.39 1169.19 1294.26 Q1168.55 1295.09 1167.81 1295.74 Q1167.07 1296.35 1165.91 1296.83 Q1164.78 1297.35 1163.56 1297.35 Q1162.01 1297.35 1160.63 1296.9 Q1159.27 1296.45 1158.31 1295.42 Q1157.34 1294.39 1157.34 1292.97 Q1157.34 1291.39 1158.4 1290.3 Q1159.5 1289.17 1160.98 1289.17 Q1161.91 1289.17 1162.66 1289.72 Q1163.43 1290.26 1163.43 1291.46 Q1163.43 1292.78 1162.53 1293.77 Q1161.63 1294.77 1160.34 1295.03 Q1161.66 1295.87 1163.62 1295.87 Q1165.75 1295.87 1167.42 1294 Q1169.1 1292.13 1169.9 1289.01 Q1171.9 1281.5 1172.67 1278.15 Q1173.44 1274.77 1173.44 1273.32 Q1173.44 1271.97 1173.09 1271.04 Q1172.74 1270.1 1172.12 1269.68 Q1171.54 1269.23 1171 1269.07 Q1170.48 1268.91 1169.9 1268.91 Q1168.94 1268.91 1167.84 1269.3 Q1166.78 1269.68 1165.49 1270.59 Q1164.23 1271.46 1163.04 1273.26 Q1161.85 1275.06 1161.05 1277.54 Q1160.88 1278.28 1160.18 1278.28 Q1159.4 1278.25 1159.4 1277.61 Q1159.4 1277.06 1159.82 1275.93 Q1160.27 1274.77 1161.17 1273.32 Q1162.11 1271.87 1163.3 1270.59 Q1164.52 1269.27 1166.29 1268.36 Q1168.1 1267.46 1170.03 1267.46 Q1170.9 1267.46 1171.74 1267.66 Q1172.61 1267.82 1173.64 1268.3 Q1174.7 1268.78 1175.63 1269.85 Q1176.57 1270.91 1177.15 1272.45 Q1177.53 1271.71 1178.05 1271 Q1178.6 1270.3 1179.43 1269.43 Q1180.3 1268.53 1181.5 1268.01 Q1182.72 1267.46 1184.07 1267.46 Q1185.39 1267.46 1186.68 1267.82 Q1187.97 1268.14 1189.06 1269.2 Q1190.19 1270.23 1190.19 1271.81 Z" fill="#8f9191" fill-rule="nonzero" fill-opacity="1" /><polyline clip-path="url(#clip740)" style="stroke:#8f9191; stroke-linecap:round; stroke-linejoin:round; stroke-width:4; stroke-opacity:1; fill:none" points="399.279,1172.19 399.279,47.2441 "/>
<polyline clip-path="url(#clip740)" style="stroke:#8f9191; stroke-linecap:round; stroke-linejoin:round; stroke-width:4; stroke-opacity:1; fill:none" points="399.279,929.707 418.177,929.707 "/>
<polyline clip-path="url(#clip740)" style="stroke:#8f9191; stroke-linecap:round; stroke-linejoin:round; stroke-width:4; stroke-opacity:1; fill:none" points="399.279,636.598 418.177,636.598 "/>
<polyline clip-path="url(#clip740)" style="stroke:#8f9191; stroke-linecap:round; stroke-linejoin:round; stroke-width:4; stroke-opacity:1; fill:none" points="399.279,343.489 418.177,343.489 "/>
<polyline clip-path="url(#clip740)" style="stroke:#8f9191; stroke-linecap:round; stroke-linejoin:round; stroke-width:4; stroke-opacity:1; fill:none" points="399.279,50.3802 418.177,50.3802 "/>
<path clip-path="url(#clip740)" d="M263.932 930.158 L293.608 930.158 L293.608 934.093 L263.932 934.093 L263.932 930.158 Z" fill="#8f9191" fill-rule="nonzero" fill-opacity="1" /><path clip-path="url(#clip740)" d="M313.701 915.505 Q310.09 915.505 308.261 919.07 Q306.455 922.612 306.455 929.741 Q306.455 936.848 308.261 940.413 Q310.09 943.954 313.701 943.954 Q317.335 943.954 319.14 940.413 Q320.969 936.848 320.969 929.741 Q320.969 922.612 319.14 919.07 Q317.335 915.505 313.701 915.505 M313.701 911.802 Q319.511 911.802 322.566 916.408 Q325.645 920.991 325.645 929.741 Q325.645 938.468 322.566 943.075 Q319.511 947.658 313.701 947.658 Q307.891 947.658 304.812 943.075 Q301.756 938.468 301.756 929.741 Q301.756 920.991 304.812 916.408 Q307.891 911.802 313.701 911.802 Z" fill="#8f9191" fill-rule="nonzero" fill-opacity="1" /><path clip-path="url(#clip740)" d="M333.863 941.107 L338.747 941.107 L338.747 946.987 L333.863 946.987 L333.863 941.107 Z" fill="#8f9191" fill-rule="nonzero" fill-opacity="1" /><path clip-path="url(#clip740)" d="M352.96 943.052 L369.279 943.052 L369.279 946.987 L347.335 946.987 L347.335 943.052 Q349.997 940.297 354.58 935.667 Q359.187 931.015 360.367 929.672 Q362.612 927.149 363.492 925.413 Q364.395 923.653 364.395 921.964 Q364.395 919.209 362.45 917.473 Q360.529 915.737 357.427 915.737 Q355.228 915.737 352.775 916.501 Q350.344 917.265 347.566 918.816 L347.566 914.093 Q350.39 912.959 352.844 912.38 Q355.298 911.802 357.335 911.802 Q362.705 911.802 365.899 914.487 Q369.094 917.172 369.094 921.663 Q369.094 923.792 368.284 925.714 Q367.497 927.612 365.39 930.204 Q364.812 930.876 361.71 934.093 Q358.608 937.288 352.96 943.052 Z" fill="#8f9191" fill-rule="nonzero" fill-opacity="1" /><path clip-path="url(#clip740)" d="M312.103 622.397 Q308.492 622.397 306.664 625.961 Q304.858 629.503 304.858 636.633 Q304.858 643.739 306.664 647.304 Q308.492 650.845 312.103 650.845 Q315.738 650.845 317.543 647.304 Q319.372 643.739 319.372 636.633 Q319.372 629.503 317.543 625.961 Q315.738 622.397 312.103 622.397 M312.103 618.693 Q317.914 618.693 320.969 623.299 Q324.048 627.883 324.048 636.633 Q324.048 645.359 320.969 649.966 Q317.914 654.549 312.103 654.549 Q306.293 654.549 303.215 649.966 Q300.159 645.359 300.159 636.633 Q300.159 627.883 303.215 623.299 Q306.293 618.693 312.103 618.693 Z" fill="#8f9191" fill-rule="nonzero" fill-opacity="1" /><path clip-path="url(#clip740)" d="M332.265 647.998 L337.15 647.998 L337.15 653.878 L332.265 653.878 L332.265 647.998 Z" fill="#8f9191" fill-rule="nonzero" fill-opacity="1" /><path clip-path="url(#clip740)" d="M357.335 622.397 Q353.724 622.397 351.895 625.961 Q350.089 629.503 350.089 636.633 Q350.089 643.739 351.895 647.304 Q353.724 650.845 357.335 650.845 Q360.969 650.845 362.775 647.304 Q364.603 643.739 364.603 636.633 Q364.603 629.503 362.775 625.961 Q360.969 622.397 357.335 622.397 M357.335 618.693 Q363.145 618.693 366.2 623.299 Q369.279 627.883 369.279 636.633 Q369.279 645.359 366.2 649.966 Q363.145 654.549 357.335 654.549 Q351.525 654.549 348.446 649.966 Q345.39 645.359 345.39 636.633 Q345.39 627.883 348.446 623.299 Q351.525 618.693 357.335 618.693 Z" fill="#8f9191" fill-rule="nonzero" fill-opacity="1" /><path clip-path="url(#clip740)" d="M313.701 329.288 Q310.09 329.288 308.261 332.852 Q306.455 336.394 306.455 343.524 Q306.455 350.63 308.261 354.195 Q310.09 357.737 313.701 357.737 Q317.335 357.737 319.14 354.195 Q320.969 350.63 320.969 343.524 Q320.969 336.394 319.14 332.852 Q317.335 329.288 313.701 329.288 M313.701 325.584 Q319.511 325.584 322.566 330.19 Q325.645 334.774 325.645 343.524 Q325.645 352.251 322.566 356.857 Q319.511 361.44 313.701 361.44 Q307.891 361.44 304.812 356.857 Q301.756 352.251 301.756 343.524 Q301.756 334.774 304.812 330.19 Q307.891 325.584 313.701 325.584 Z" fill="#8f9191" fill-rule="nonzero" fill-opacity="1" /><path clip-path="url(#clip740)" d="M333.863 354.889 L338.747 354.889 L338.747 360.769 L333.863 360.769 L333.863 354.889 Z" fill="#8f9191" fill-rule="nonzero" fill-opacity="1" /><path clip-path="url(#clip740)" d="M352.96 356.834 L369.279 356.834 L369.279 360.769 L347.335 360.769 L347.335 356.834 Q349.997 354.079 354.58 349.45 Q359.187 344.797 360.367 343.454 Q362.612 340.931 363.492 339.195 Q364.395 337.436 364.395 335.746 Q364.395 332.991 362.45 331.255 Q360.529 329.519 357.427 329.519 Q355.228 329.519 352.775 330.283 Q350.344 331.047 347.566 332.598 L347.566 327.876 Q350.39 326.741 352.844 326.163 Q355.298 325.584 357.335 325.584 Q362.705 325.584 365.899 328.269 Q369.094 330.954 369.094 335.445 Q369.094 337.575 368.284 339.496 Q367.497 341.394 365.39 343.987 Q364.812 344.658 361.71 347.876 Q358.608 351.07 352.96 356.834 Z" fill="#8f9191" fill-rule="nonzero" fill-opacity="1" /><path clip-path="url(#clip740)" d="M311.617 36.1789 Q308.006 36.1789 306.178 39.7437 Q304.372 43.2853 304.372 50.4149 Q304.372 57.5213 306.178 61.0861 Q308.006 64.6278 311.617 64.6278 Q315.252 64.6278 317.057 61.0861 Q318.886 57.5213 318.886 50.4149 Q318.886 43.2853 317.057 39.7437 Q315.252 36.1789 311.617 36.1789 M311.617 32.4752 Q317.428 32.4752 320.483 37.0816 Q323.562 41.6649 323.562 50.4149 Q323.562 59.1417 320.483 63.7482 Q317.428 68.3315 311.617 68.3315 Q305.807 68.3315 302.729 63.7482 Q299.673 59.1417 299.673 50.4149 Q299.673 41.6649 302.729 37.0816 Q305.807 32.4752 311.617 32.4752 Z" fill="#8f9191" fill-rule="nonzero" fill-opacity="1" /><path clip-path="url(#clip740)" d="M331.779 61.7806 L336.664 61.7806 L336.664 67.6602 L331.779 67.6602 L331.779 61.7806 Z" fill="#8f9191" fill-rule="nonzero" fill-opacity="1" /><path clip-path="url(#clip740)" d="M359.696 37.1742 L347.89 55.6232 L359.696 55.6232 L359.696 37.1742 M358.469 33.1002 L364.349 33.1002 L364.349 55.6232 L369.279 55.6232 L369.279 59.5121 L364.349 59.5121 L364.349 67.6602 L359.696 67.6602 L359.696 59.5121 L344.094 59.5121 L344.094 54.9982 L358.469 33.1002 Z" fill="#8f9191" fill-rule="nonzero" fill-opacity="1" /><path clip-path="url(#clip740)" d="M177.091 633.584 Q177.091 634.035 176.801 635.098 L170.488 660.283 Q169.103 665.886 164.595 669.816 Q160.118 673.745 155.03 673.745 Q151.97 673.745 150.005 672.102 Q148.041 670.492 148.041 668.012 Q148.041 665.822 149.2 664.759 Q150.36 663.729 151.745 663.729 Q152.195 663.729 152.678 663.857 Q153.162 663.986 153.677 664.534 Q154.192 665.081 154.192 666.015 Q154.192 667.529 152.872 668.721 Q152.228 669.268 151.616 669.397 Q151.036 669.526 150.038 669.526 Q150.424 670.427 151.133 671.039 Q151.841 671.651 152.646 671.877 Q153.451 672.134 153.967 672.199 Q154.514 672.295 155.03 672.295 Q159.152 672.295 162.308 668.141 Q163.242 666.885 163.918 665.629 Q164.627 664.405 165.142 662.891 Q165.657 661.41 165.883 660.605 Q166.141 659.8 166.591 657.964 Q163.596 660.959 159.925 660.959 Q158.379 660.959 156.994 660.54 Q155.641 660.122 154.45 659.252 Q153.258 658.35 152.55 656.772 Q151.873 655.194 151.873 653.101 Q151.873 650.879 152.743 647.851 Q153.612 644.824 155.706 639.252 Q156.833 636.128 156.833 634.615 Q156.833 633.874 156.672 633.423 Q156.511 632.94 156.189 632.779 Q155.867 632.586 155.674 632.553 Q155.513 632.521 155.191 632.521 Q153.29 632.521 151.519 634.454 Q149.748 636.386 148.524 640.701 Q148.266 641.507 148.105 641.7 Q147.944 641.893 147.461 641.893 Q146.656 641.861 146.656 641.217 Q146.656 640.959 146.946 639.961 Q147.236 638.93 147.912 637.416 Q148.621 635.871 149.587 634.486 Q150.553 633.069 152.067 632.07 Q153.612 631.072 155.384 631.072 Q157.799 631.072 159.281 632.65 Q160.794 634.196 160.794 636.482 Q160.794 637.416 160.537 638.254 Q160.311 639.059 159.474 641.217 Q156.092 649.912 156.092 654.163 Q156.092 655.194 156.253 656.064 Q156.447 656.901 156.865 657.738 Q157.284 658.543 158.121 659.027 Q158.991 659.477 160.182 659.477 Q161.696 659.477 163.113 658.769 Q164.562 658.028 165.464 657.03 Q166.398 656.031 166.946 655.194 Q167.525 654.325 167.654 653.874 L170.617 642.022 L171.938 636.74 Q172.549 633.874 172.839 633.165 Q173.226 632.489 173.902 632.135 Q174.578 631.78 175.158 631.78 Q175.963 631.78 176.511 632.264 Q177.091 632.747 177.091 633.584 Z" fill="#8f9191" fill-rule="nonzero" fill-opacity="1" /><polyline clip-path="url(#clip742)" style="stroke:#6496c8; stroke-linecap:round; stroke-linejoin:round; stroke-width:16; stroke-opacity:1; fill:none" stroke-dasharray="64, 40" points="1908.79,636.598 1908.22,636.641 1906.53,636.77 1903.71,636.984 1899.77,637.283 1894.71,637.666 1888.54,638.131 1881.28,638.677 1872.93,639.302 1863.5,640.004 1853.01,640.782 1841.48,641.632 1828.92,642.553 1815.36,643.542 1800.81,644.596 1785.3,645.714 1768.84,646.892 1751.48,648.128 1733.22,649.419 1714.11,650.764 1694.17,652.158 1673.42,653.601 1651.91,655.088 1629.67,656.617 1606.73,658.186 1583.12,659.791 1558.89,661.429 1534.07,663.097 1508.69,664.79 1482.8,666.505 1456.44,668.238 1429.64,669.983 1402.46,671.736 1374.92,673.49 1347.08,675.24 1318.97,676.978 1290.65,678.697 1262.15,680.39 1233.51,682.049 1204.79,683.664 1176.02,685.226 1147.25,686.726 1118.52,688.153 1089.89,689.498 1061.39,690.75 1033.06,691.899 1004.96,692.962 977.114,693.973 949.578,694.92 922.393,695.791 895.598,696.572 869.235,697.25 843.346,697.814 817.969,698.25 793.145,698.547 768.911,698.693 745.305,698.678 722.363,698.492 700.12,698.126 678.611,697.571 657.869,696.821 637.926,695.868 618.813,694.707 600.559,693.333 583.192,691.744 566.74,689.935 551.227,687.905 536.677,685.654 523.113,683.179 510.556,680.482 499.024,677.564 488.537,674.425 479.11,671.068 470.757,667.493 463.492,663.705 457.325,659.703 452.267,655.492 448.325,651.074 445.504,646.451 443.81,641.624 443.245,636.598 443.81,631.458 445.504,626.294 448.325,621.11 452.267,615.913 457.325,610.71 463.492,605.512 470.757,600.329 479.11,595.174 488.537,590.062 499.024,585.007 510.556,580.024 523.113,575.131 536.677,570.345 551.227,565.683 566.74,561.163 583.192,556.804 600.559,552.621 618.813,548.634 637.926,544.857 657.869,541.308 678.611,538.001 700.12,534.951 722.363,532.17 745.305,529.67 768.911,527.461 793.145,525.554 817.969,523.954 843.346,522.669 869.235,521.703 895.598,521.059 922.393,520.739 949.578,520.742 977.114,521.069 1004.96,521.715 1033.06,522.676 1061.39,523.901 1089.89,525.353 1118.52,527.022 1147.25,528.9 1176.02,530.977 1204.79,533.241 1233.51,535.682 1262.15,538.288 1290.65,541.048 1318.97,543.951 1347.08,546.982 1374.92,550.132 1402.46,553.386 1429.64,556.732 1456.44,560.157 1482.8,563.65 1508.69,567.195 1534.07,570.782 1558.89,574.395 1583.12,578.023 1606.73,581.652 1629.67,585.269 1651.91,588.86 1673.42,592.413 1694.17,595.913 1714.11,599.348 1733.22,602.704 1751.48,605.969 1768.84,609.129 1785.3,612.172 1800.81,615.086 1815.36,617.858 1828.92,620.478 1841.48,622.933 1853.01,625.213 1863.5,627.308 1872.93,629.209 1881.28,630.908 1888.54,632.396 1894.71,633.667 1899.77,634.716 1903.71,635.536 1906.53,636.125 1908.22,636.48 1908.79,636.598 "/>
<path clip-path="url(#clip740)" d="M1609.47 188.422 L1900.97 188.422 L1900.97 84.7422 L1609.47 84.7422  Z" fill="#000000" fill-rule="evenodd" fill-opacity="0"/>
<polyline clip-path="url(#clip740)" style="stroke:#000000; stroke-linecap:round; stroke-linejoin:round; stroke-width:4; stroke-opacity:0; fill:none" points="1609.47,188.422 1900.97,188.422 1900.97,84.7422 1609.47,84.7422 1609.47,188.422 "/>
<polyline clip-path="url(#clip740)" style="stroke:#6496c8; stroke-linecap:round; stroke-linejoin:round; stroke-width:16; stroke-opacity:1; fill:none" stroke-dasharray="64, 40" points="1626.73,136.582 1730.29,136.582 "/>
<path clip-path="url(#clip740)" d="M1752.23 123.145 L1752.23 150.02 L1757.88 150.02 Q1765.03 150.02 1768.34 146.779 Q1771.68 143.538 1771.68 136.547 Q1771.68 129.603 1768.34 126.386 Q1765.03 123.145 1757.88 123.145 L1752.23 123.145 M1747.56 119.302 L1757.16 119.302 Q1767.21 119.302 1771.91 123.492 Q1776.61 127.659 1776.61 136.547 Q1776.61 145.483 1771.88 149.672 Q1767.16 153.862 1757.16 153.862 L1747.56 153.862 L1747.56 119.302 Z" fill="#8f9191" fill-rule="nonzero" fill-opacity="1" /><path clip-path="url(#clip740)" d="M1783.88 127.936 L1788.13 127.936 L1788.13 153.862 L1783.88 153.862 L1783.88 127.936 M1783.88 117.844 L1788.13 117.844 L1788.13 123.237 L1783.88 123.237 L1783.88 117.844 Z" fill="#8f9191" fill-rule="nonzero" fill-opacity="1" /><path clip-path="url(#clip740)" d="M1812.07 131.918 Q1811.35 131.501 1810.5 131.316 Q1809.66 131.108 1808.64 131.108 Q1805.03 131.108 1803.09 133.469 Q1801.17 135.807 1801.17 140.205 L1801.17 153.862 L1796.88 153.862 L1796.88 127.936 L1801.17 127.936 L1801.17 131.964 Q1802.51 129.603 1804.66 128.469 Q1806.81 127.311 1809.89 127.311 Q1810.33 127.311 1810.87 127.381 Q1811.4 127.427 1812.05 127.543 L1812.07 131.918 Z" fill="#8f9191" fill-rule="nonzero" fill-opacity="1" /><path clip-path="url(#clip740)" d="M1837.67 139.835 L1837.67 141.918 L1818.09 141.918 Q1818.37 146.316 1820.73 148.631 Q1823.11 150.922 1827.35 150.922 Q1829.8 150.922 1832.09 150.321 Q1834.41 149.719 1836.68 148.515 L1836.68 152.543 Q1834.38 153.515 1831.98 154.024 Q1829.57 154.534 1827.09 154.534 Q1820.89 154.534 1817.25 150.922 Q1813.64 147.311 1813.64 141.154 Q1813.64 134.788 1817.07 131.061 Q1820.52 127.311 1826.35 127.311 Q1831.58 127.311 1834.62 130.691 Q1837.67 134.048 1837.67 139.835 M1833.41 138.585 Q1833.37 135.089 1831.44 133.006 Q1829.55 130.923 1826.4 130.923 Q1822.83 130.923 1820.68 132.936 Q1818.55 134.95 1818.23 138.608 L1833.41 138.585 Z" fill="#8f9191" fill-rule="nonzero" fill-opacity="1" /><path clip-path="url(#clip740)" d="M1863.32 128.932 L1863.32 132.913 Q1861.51 131.918 1859.68 131.432 Q1857.88 130.923 1856.03 130.923 Q1851.88 130.923 1849.59 133.561 Q1847.3 136.177 1847.3 140.922 Q1847.3 145.668 1849.59 148.307 Q1851.88 150.922 1856.03 150.922 Q1857.88 150.922 1859.68 150.436 Q1861.51 149.927 1863.32 148.932 L1863.32 152.867 Q1861.54 153.7 1859.62 154.117 Q1857.72 154.534 1855.56 154.534 Q1849.71 154.534 1846.26 150.853 Q1842.81 147.172 1842.81 140.922 Q1842.81 134.58 1846.28 130.946 Q1849.78 127.311 1855.84 127.311 Q1857.81 127.311 1859.68 127.728 Q1861.56 128.122 1863.32 128.932 Z" fill="#8f9191" fill-rule="nonzero" fill-opacity="1" /><path clip-path="url(#clip740)" d="M1874.94 120.575 L1874.94 127.936 L1883.71 127.936 L1883.71 131.247 L1874.94 131.247 L1874.94 145.321 Q1874.94 148.492 1875.8 149.395 Q1876.68 150.297 1879.34 150.297 L1883.71 150.297 L1883.71 153.862 L1879.34 153.862 Q1874.41 153.862 1872.53 152.034 Q1870.66 150.182 1870.66 145.321 L1870.66 131.247 L1867.53 131.247 L1867.53 127.936 L1870.66 127.936 L1870.66 120.575 L1874.94 120.575 Z" fill="#8f9191" fill-rule="nonzero" fill-opacity="1" /></svg>
