<?xml version="1.0" encoding="utf-8"?>
<svg xmlns="http://www.w3.org/2000/svg" xmlns:xlink="http://www.w3.org/1999/xlink" width="500" height="375" viewBox="0 0 2000 1500">
<defs>
  <clipPath id="clip460">
    <rect x="0" y="0" width="2000" height="1500"/>
  </clipPath>
</defs>
<defs>
  <clipPath id="clip461">
    <rect x="400" y="0" width="1401" height="1401"/>
  </clipPath>
</defs>
<defs>
  <clipPath id="clip462">
    <rect x="399" y="47" width="1554" height="1126"/>
  </clipPath>
</defs>
<polyline clip-path="url(#clip460)" style="stroke:#8f9191; stroke-linecap:round; stroke-linejoin:round; stroke-width:4; stroke-opacity:1; fill:none" points="399.279,1172.19 1952.76,1172.19 "/>
<polyline clip-path="url(#clip460)" style="stroke:#8f9191; stroke-linecap:round; stroke-linejoin:round; stroke-width:4; stroke-opacity:1; fill:none" points="443.245,1172.19 443.245,1153.29 "/>
<polyline clip-path="url(#clip460)" style="stroke:#8f9191; stroke-linecap:round; stroke-linejoin:round; stroke-width:4; stroke-opacity:1; fill:none" points="809.631,1172.19 809.631,1153.29 "/>
<polyline clip-path="url(#clip460)" style="stroke:#8f9191; stroke-linecap:round; stroke-linejoin:round; stroke-width:4; stroke-opacity:1; fill:none" points="1176.02,1172.19 1176.02,1153.29 "/>
<polyline clip-path="url(#clip460)" style="stroke:#8f9191; stroke-linecap:round; stroke-linejoin:round; stroke-width:4; stroke-opacity:1; fill:none" points="1542.4,1172.19 1542.4,1153.29 "/>
<polyline clip-path="url(#clip460)" style="stroke:#8f9191; stroke-linecap:round; stroke-linejoin:round; stroke-width:4; stroke-opacity:1; fill:none" points="1908.79,1172.19 1908.79,1153.29 "/>
<path clip-path="url(#clip460)" d="M405.549 1199.91 Q401.938 1199.91 400.109 1203.47 Q398.304 1207.01 398.304 1214.14 Q398.304 1221.25 400.109 1224.81 Q401.938 1228.36 405.549 1228.36 Q409.183 1228.36 410.989 1224.81 Q412.817 1221.25 412.817 1214.14 Q412.817 1207.01 410.989 1203.47 Q409.183 1199.91 405.549 1199.91 M405.549 1196.2 Q411.359 1196.2 414.415 1200.81 Q417.493 1205.39 417.493 1214.14 Q417.493 1222.87 414.415 1227.48 Q411.359 1232.06 405.549 1232.06 Q399.739 1232.06 396.66 1227.48 Q393.604 1222.87 393.604 1214.14 Q393.604 1205.39 396.66 1200.81 Q399.739 1196.2 405.549 1196.2 Z" fill="#8f9191" fill-rule="nonzero" fill-opacity="1" /><path clip-path="url(#clip460)" d="M425.711 1225.51 L430.595 1225.51 L430.595 1231.39 L425.711 1231.39 L425.711 1225.51 Z" fill="#8f9191" fill-rule="nonzero" fill-opacity="1" /><path clip-path="url(#clip460)" d="M450.78 1199.91 Q447.169 1199.91 445.34 1203.47 Q443.535 1207.01 443.535 1214.14 Q443.535 1221.25 445.34 1224.81 Q447.169 1228.36 450.78 1228.36 Q454.414 1228.36 456.22 1224.81 Q458.049 1221.25 458.049 1214.14 Q458.049 1207.01 456.22 1203.47 Q454.414 1199.91 450.78 1199.91 M450.78 1196.2 Q456.59 1196.2 459.646 1200.81 Q462.724 1205.39 462.724 1214.14 Q462.724 1222.87 459.646 1227.48 Q456.59 1232.06 450.78 1232.06 Q444.97 1232.06 441.891 1227.48 Q438.836 1222.87 438.836 1214.14 Q438.836 1205.39 441.891 1200.81 Q444.97 1196.2 450.78 1196.2 Z" fill="#8f9191" fill-rule="nonzero" fill-opacity="1" /><path clip-path="url(#clip460)" d="M480.942 1199.91 Q477.331 1199.91 475.502 1203.47 Q473.697 1207.01 473.697 1214.14 Q473.697 1221.25 475.502 1224.81 Q477.331 1228.36 480.942 1228.36 Q484.576 1228.36 486.382 1224.81 Q488.21 1221.25 488.21 1214.14 Q488.21 1207.01 486.382 1203.47 Q484.576 1199.91 480.942 1199.91 M480.942 1196.2 Q486.752 1196.2 489.808 1200.81 Q492.886 1205.39 492.886 1214.14 Q492.886 1222.87 489.808 1227.48 Q486.752 1232.06 480.942 1232.06 Q475.132 1232.06 472.053 1227.48 Q468.998 1222.87 468.998 1214.14 Q468.998 1205.39 472.053 1200.81 Q475.132 1196.2 480.942 1196.2 Z" fill="#8f9191" fill-rule="nonzero" fill-opacity="1" /><path clip-path="url(#clip460)" d="M772.433 1199.91 Q768.821 1199.91 766.993 1203.47 Q765.187 1207.01 765.187 1214.14 Q765.187 1221.25 766.993 1224.81 Q768.821 1228.36 772.433 1228.36 Q776.067 1228.36 777.872 1224.81 Q779.701 1221.25 779.701 1214.14 Q779.701 1207.01 777.872 1203.47 Q776.067 1199.91 772.433 1199.91 M772.433 1196.2 Q778.243 1196.2 781.298 1200.81 Q784.377 1205.39 784.377 1214.14 Q784.377 1222.87 781.298 1227.48 Q778.243 1232.06 772.433 1232.06 Q766.622 1232.06 763.544 1227.48 Q760.488 1222.87 760.488 1214.14 Q760.488 1205.39 763.544 1200.81 Q766.622 1196.2 772.433 1196.2 Z" fill="#8f9191" fill-rule="nonzero" fill-opacity="1" /><path clip-path="url(#clip460)" d="M792.595 1225.51 L797.479 1225.51 L797.479 1231.39 L792.595 1231.39 L792.595 1225.51 Z" fill="#8f9191" fill-rule="nonzero" fill-opacity="1" /><path clip-path="url(#clip460)" d="M811.692 1227.45 L828.011 1227.45 L828.011 1231.39 L806.067 1231.39 L806.067 1227.45 Q808.729 1224.7 813.312 1220.07 Q817.918 1215.42 819.099 1214.07 Q821.344 1211.55 822.224 1209.81 Q823.127 1208.05 823.127 1206.36 Q823.127 1203.61 821.182 1201.87 Q819.261 1200.14 816.159 1200.14 Q813.96 1200.14 811.506 1200.9 Q809.076 1201.67 806.298 1203.22 L806.298 1198.49 Q809.122 1197.36 811.576 1196.78 Q814.03 1196.2 816.067 1196.2 Q821.437 1196.2 824.631 1198.89 Q827.826 1201.57 827.826 1206.06 Q827.826 1208.19 827.016 1210.11 Q826.229 1212.01 824.122 1214.61 Q823.543 1215.28 820.442 1218.49 Q817.34 1221.69 811.692 1227.45 Z" fill="#8f9191" fill-rule="nonzero" fill-opacity="1" /><path clip-path="url(#clip460)" d="M837.872 1196.83 L856.228 1196.83 L856.228 1200.76 L842.154 1200.76 L842.154 1209.23 Q843.173 1208.89 844.191 1208.73 Q845.21 1208.54 846.228 1208.54 Q852.015 1208.54 855.395 1211.71 Q858.775 1214.88 858.775 1220.3 Q858.775 1225.88 855.303 1228.98 Q851.83 1232.06 845.511 1232.06 Q843.335 1232.06 841.066 1231.69 Q838.821 1231.32 836.414 1230.58 L836.414 1225.88 Q838.497 1227.01 840.719 1227.57 Q842.941 1228.12 845.418 1228.12 Q849.423 1228.12 851.761 1226.02 Q854.099 1223.91 854.099 1220.3 Q854.099 1216.69 851.761 1214.58 Q849.423 1212.48 845.418 1212.48 Q843.543 1212.48 841.668 1212.89 Q839.816 1213.31 837.872 1214.19 L837.872 1196.83 Z" fill="#8f9191" fill-rule="nonzero" fill-opacity="1" /><path clip-path="url(#clip460)" d="M1138.32 1199.91 Q1134.71 1199.91 1132.88 1203.47 Q1131.08 1207.01 1131.08 1214.14 Q1131.08 1221.25 1132.88 1224.81 Q1134.71 1228.36 1138.32 1228.36 Q1141.96 1228.36 1143.76 1224.81 Q1145.59 1221.25 1145.59 1214.14 Q1145.59 1207.01 1143.76 1203.47 Q1141.96 1199.91 1138.32 1199.91 M1138.32 1196.2 Q1144.13 1196.2 1147.19 1200.81 Q1150.27 1205.39 1150.27 1214.14 Q1150.27 1222.87 1147.19 1227.48 Q1144.13 1232.06 1138.32 1232.06 Q1132.51 1232.06 1129.43 1227.48 Q1126.38 1222.87 1126.38 1214.14 Q1126.38 1205.39 1129.43 1200.81 Q1132.51 1196.2 1138.32 1196.2 Z" fill="#8f9191" fill-rule="nonzero" fill-opacity="1" /><path clip-path="url(#clip460)" d="M1158.48 1225.51 L1163.37 1225.51 L1163.37 1231.39 L1158.48 1231.39 L1158.48 1225.51 Z" fill="#8f9191" fill-rule="nonzero" fill-opacity="1" /><path clip-path="url(#clip460)" d="M1173.6 1196.83 L1191.95 1196.83 L1191.95 1200.76 L1177.88 1200.76 L1177.88 1209.23 Q1178.9 1208.89 1179.92 1208.73 Q1180.94 1208.54 1181.95 1208.54 Q1187.74 1208.54 1191.12 1211.71 Q1194.5 1214.88 1194.5 1220.3 Q1194.5 1225.88 1191.03 1228.98 Q1187.56 1232.06 1181.24 1232.06 Q1179.06 1232.06 1176.79 1231.69 Q1174.55 1231.32 1172.14 1230.58 L1172.14 1225.88 Q1174.22 1227.01 1176.45 1227.57 Q1178.67 1228.12 1181.14 1228.12 Q1185.15 1228.12 1187.49 1226.02 Q1189.83 1223.91 1189.83 1220.3 Q1189.83 1216.69 1187.49 1214.58 Q1185.15 1212.48 1181.14 1212.48 Q1179.27 1212.48 1177.39 1212.89 Q1175.54 1213.31 1173.6 1214.19 L1173.6 1196.83 Z" fill="#8f9191" fill-rule="nonzero" fill-opacity="1" /><path clip-path="url(#clip460)" d="M1213.71 1199.91 Q1210.1 1199.91 1208.27 1203.47 Q1206.47 1207.01 1206.47 1214.14 Q1206.47 1221.25 1208.27 1224.81 Q1210.1 1228.36 1213.71 1228.36 Q1217.35 1228.36 1219.15 1224.81 Q1220.98 1221.25 1220.98 1214.14 Q1220.98 1207.01 1219.15 1203.47 Q1217.35 1199.91 1213.71 1199.91 M1213.71 1196.2 Q1219.52 1196.2 1222.58 1200.81 Q1225.66 1205.39 1225.66 1214.14 Q1225.66 1222.87 1222.58 1227.48 Q1219.52 1232.06 1213.71 1232.06 Q1207.9 1232.06 1204.83 1227.48 Q1201.77 1222.87 1201.77 1214.14 Q1201.77 1205.39 1204.83 1200.81 Q1207.9 1196.2 1213.71 1196.2 Z" fill="#8f9191" fill-rule="nonzero" fill-opacity="1" /><path clip-path="url(#clip460)" d="M1505.2 1199.91 Q1501.59 1199.91 1499.76 1203.47 Q1497.96 1207.01 1497.96 1214.14 Q1497.96 1221.25 1499.76 1224.81 Q1501.59 1228.36 1505.2 1228.36 Q1508.84 1228.36 1510.64 1224.81 Q1512.47 1221.25 1512.47 1214.14 Q1512.47 1207.01 1510.64 1203.47 Q1508.84 1199.91 1505.2 1199.91 M1505.2 1196.2 Q1511.01 1196.2 1514.07 1200.81 Q1517.15 1205.39 1517.15 1214.14 Q1517.15 1222.87 1514.07 1227.48 Q1511.01 1232.06 1505.2 1232.06 Q1499.39 1232.06 1496.32 1227.48 Q1493.26 1222.87 1493.26 1214.14 Q1493.26 1205.39 1496.32 1200.81 Q1499.39 1196.2 1505.2 1196.2 Z" fill="#8f9191" fill-rule="nonzero" fill-opacity="1" /><path clip-path="url(#clip460)" d="M1525.37 1225.51 L1530.25 1225.51 L1530.25 1231.39 L1525.37 1231.39 L1525.37 1225.51 Z" fill="#8f9191" fill-rule="nonzero" fill-opacity="1" /><path clip-path="url(#clip460)" d="M1539.26 1196.83 L1561.48 1196.83 L1561.48 1198.82 L1548.93 1231.39 L1544.05 1231.39 L1555.85 1200.76 L1539.26 1200.76 L1539.26 1196.83 Z" fill="#8f9191" fill-rule="nonzero" fill-opacity="1" /><path clip-path="url(#clip460)" d="M1570.64 1196.83 L1589 1196.83 L1589 1200.76 L1574.93 1200.76 L1574.93 1209.23 Q1575.95 1208.89 1576.96 1208.73 Q1577.98 1208.54 1579 1208.54 Q1584.79 1208.54 1588.17 1211.71 Q1591.55 1214.88 1591.55 1220.3 Q1591.55 1225.88 1588.07 1228.98 Q1584.6 1232.06 1578.28 1232.06 Q1576.11 1232.06 1573.84 1231.69 Q1571.59 1231.32 1569.19 1230.58 L1569.19 1225.88 Q1571.27 1227.01 1573.49 1227.57 Q1575.71 1228.12 1578.19 1228.12 Q1582.19 1228.12 1584.53 1226.02 Q1586.87 1223.91 1586.87 1220.3 Q1586.87 1216.69 1584.53 1214.58 Q1582.19 1212.48 1578.19 1212.48 Q1576.32 1212.48 1574.44 1212.89 Q1572.59 1213.31 1570.64 1214.19 L1570.64 1196.83 Z" fill="#8f9191" fill-rule="nonzero" fill-opacity="1" /><path clip-path="url(#clip460)" d="M1860.86 1227.45 L1868.5 1227.45 L1868.5 1201.09 L1860.19 1202.75 L1860.19 1198.49 L1868.45 1196.83 L1873.13 1196.83 L1873.13 1227.45 L1880.77 1227.45 L1880.77 1231.39 L1860.86 1231.39 L1860.86 1227.45 Z" fill="#8f9191" fill-rule="nonzero" fill-opacity="1" /><path clip-path="url(#clip460)" d="M1890.21 1225.51 L1895.1 1225.51 L1895.1 1231.39 L1890.21 1231.39 L1890.21 1225.51 Z" fill="#8f9191" fill-rule="nonzero" fill-opacity="1" /><path clip-path="url(#clip460)" d="M1915.28 1199.91 Q1911.67 1199.91 1909.84 1203.47 Q1908.04 1207.01 1908.04 1214.14 Q1908.04 1221.25 1909.84 1224.81 Q1911.67 1228.36 1915.28 1228.36 Q1918.92 1228.36 1920.72 1224.81 Q1922.55 1221.25 1922.55 1214.14 Q1922.55 1207.01 1920.72 1203.47 Q1918.92 1199.91 1915.28 1199.91 M1915.28 1196.2 Q1921.09 1196.2 1924.15 1200.81 Q1927.23 1205.39 1927.23 1214.14 Q1927.23 1222.87 1924.15 1227.48 Q1921.09 1232.06 1915.28 1232.06 Q1909.47 1232.06 1906.39 1227.48 Q1903.34 1222.87 1903.34 1214.14 Q1903.34 1205.39 1906.39 1200.81 Q1909.47 1196.2 1915.28 1196.2 Z" fill="#8f9191" fill-rule="nonzero" fill-opacity="1" /><path clip-path="url(#clip460)" d="M1945.44 1199.91 Q1941.83 1199.91 1940 1203.47 Q1938.2 1207.01 1938.2 1214.14 Q1938.2 1221.25 1940 1224.81 Q1941.83 1228.36 1945.44 1228.36 Q1949.08 1228.36 1950.88 1224.81 Q1952.71 1221.25 1952.71 1214.14 Q1952.71 1207.01 1950.88 1203.47 Q1949.08 1199.91 1945.44 1199.91 M1945.44 1196.2 Q1951.25 1196.2 1954.31 1200.81 Q1957.39 1205.39 1957.39 1214.14 Q1957.39 1222.87 1954.31 1227.48 Q1951.25 1232.06 1945.44 1232.06 Q1939.63 1232.06 1936.56 1227.48 Q1933.5 1222.87 1933.5 1214.14 Q1933.5 1205.39 1936.56 1200.81 Q1939.63 1196.2 1945.44 1196.2 Z" fill="#8f9191" fill-rule="nonzero" fill-opacity="1" /><path clip-path="url(#clip460)" d="M1190.19 1271.81 Q1190.19 1273.61 1189.06 1274.64 Q1187.94 1275.64 1186.65 1275.64 Q1185.43 1275.64 1184.78 1274.93 Q1184.14 1274.23 1184.14 1273.32 Q1184.14 1272.1 1185.04 1271.04 Q1185.94 1269.97 1187.29 1269.75 Q1185.97 1268.91 1184.01 1268.91 Q1182.72 1268.91 1181.59 1269.59 Q1180.5 1270.26 1179.82 1271.13 Q1179.18 1272 1178.6 1273.26 Q1178.05 1274.48 1177.82 1275.22 Q1177.63 1275.93 1177.47 1276.71 L1175.22 1285.72 Q1174.12 1290.01 1174.12 1291.52 Q1174.12 1293.39 1175.02 1294.64 Q1175.92 1295.87 1177.73 1295.87 Q1178.44 1295.87 1179.24 1295.67 Q1180.05 1295.45 1181.08 1294.87 Q1182.14 1294.26 1183.07 1293.36 Q1184.04 1292.42 1184.97 1290.84 Q1185.91 1289.27 1186.52 1287.24 Q1186.71 1286.53 1187.36 1286.53 Q1188.16 1286.53 1188.16 1287.17 Q1188.16 1287.72 1187.71 1288.88 Q1187.29 1290.01 1186.36 1291.49 Q1185.46 1292.94 1184.27 1294.26 Q1183.07 1295.55 1181.3 1296.45 Q1179.53 1297.35 1177.6 1297.35 Q1174.83 1297.35 1172.99 1295.87 Q1171.16 1294.39 1170.48 1292.33 Q1170.32 1292.62 1170.1 1293 Q1169.87 1293.39 1169.19 1294.26 Q1168.55 1295.09 1167.81 1295.74 Q1167.07 1296.35 1165.91 1296.83 Q1164.78 1297.35 1163.56 1297.35 Q1162.01 1297.35 1160.63 1296.9 Q1159.27 1296.45 1158.31 1295.42 Q1157.34 1294.39 1157.34 1292.97 Q1157.34 1291.39 1158.4 1290.3 Q1159.5 1289.17 1160.98 1289.17 Q1161.91 1289.17 1162.66 1289.72 Q1163.43 1290.26 1163.43 1291.46 Q1163.43 1292.78 1162.53 1293.77 Q1161.63 1294.77 1160.34 1295.03 Q1161.66 1295.87 1163.62 1295.87 Q1165.75 1295.87 1167.42 1294 Q1169.1 1292.13 1169.9 1289.01 Q1171.9 1281.5 1172.67 1278.15 Q1173.44 1274.77 1173.44 1273.32 Q1173.44 1271.97 1173.09 1271.04 Q1172.74 1270.1 1172.12 1269.68 Q1171.54 1269.23 1171 1269.07 Q1170.48 1268.91 1169.9 1268.91 Q1168.94 1268.91 1167.84 1269.3 Q1166.78 1269.68 1165.49 1270.59 Q1164.23 1271.46 1163.04 1273.26 Q1161.85 1275.06 1161.05 1277.54 Q1160.88 1278.28 1160.18 1278.28 Q1159.4 1278.25 1159.4 1277.61 Q1159.4 1277.06 1159.82 1275.93 Q1160.27 1274.77 1161.17 1273.32 Q1162.11 1271.87 1163.3 1270.59 Q1164.52 1269.27 1166.29 1268.36 Q1168.1 1267.46 1170.03 1267.46 Q1170.9 1267.46 1171.74 1267.66 Q1172.61 1267.82 1173.64 1268.3 Q1174.7 1268.78 1175.63 1269.85 Q1176.57 1270.91 1177.15 1272.45 Q1177.53 1271.71 1178.05 1271 Q1178.6 1270.3 1179.43 1269.43 Q1180.3 1268.53 1181.5 1268.01 Q1182.72 1267.46 1184.07 1267.46 Q1185.39 1267.46 1186.68 1267.82 Q1187.97 1268.14 1189.06 1269.2 Q1190.19 1270.23 1190.19 1271.81 Z" fill="#8f9191" fill-rule="nonzero" fill-opacity="1" /><polyline clip-path="url(#clip460)" style="stroke:#8f9191; stroke-linecap:round; stroke-linejoin:round; stroke-width:4; stroke-opacity:1; fill:none" points="399.279,1172.19 399.279,47.2441 "/>
<polyline clip-path="url(#clip460)" style="stroke:#8f9191; stroke-linecap:round; stroke-linejoin:round; stroke-width:4; stroke-opacity:1; fill:none" points="399.279,932.134 418.177,932.134 "/>
<polyline clip-path="url(#clip460)" style="stroke:#8f9191; stroke-linecap:round; stroke-linejoin:round; stroke-width:4; stroke-opacity:1; fill:none" points="399.279,639.026 418.177,639.026 "/>
<polyline clip-path="url(#clip460)" style="stroke:#8f9191; stroke-linecap:round; stroke-linejoin:round; stroke-width:4; stroke-opacity:1; fill:none" points="399.279,345.917 418.177,345.917 "/>
<polyline clip-path="url(#clip460)" style="stroke:#8f9191; stroke-linecap:round; stroke-linejoin:round; stroke-width:4; stroke-opacity:1; fill:none" points="399.279,52.8078 418.177,52.8078 "/>
<path clip-path="url(#clip460)" d="M263.932 932.586 L293.608 932.586 L293.608 936.521 L263.932 936.521 L263.932 932.586 Z" fill="#8f9191" fill-rule="nonzero" fill-opacity="1" /><path clip-path="url(#clip460)" d="M313.701 917.933 Q310.09 917.933 308.261 921.498 Q306.455 925.039 306.455 932.169 Q306.455 939.276 308.261 942.84 Q310.09 946.382 313.701 946.382 Q317.335 946.382 319.14 942.84 Q320.969 939.276 320.969 932.169 Q320.969 925.039 319.14 921.498 Q317.335 917.933 313.701 917.933 M313.701 914.229 Q319.511 914.229 322.566 918.836 Q325.645 923.419 325.645 932.169 Q325.645 940.896 322.566 945.502 Q319.511 950.086 313.701 950.086 Q307.891 950.086 304.812 945.502 Q301.756 940.896 301.756 932.169 Q301.756 923.419 304.812 918.836 Q307.891 914.229 313.701 914.229 Z" fill="#8f9191" fill-rule="nonzero" fill-opacity="1" /><path clip-path="url(#clip460)" d="M333.863 943.535 L338.747 943.535 L338.747 949.414 L333.863 949.414 L333.863 943.535 Z" fill="#8f9191" fill-rule="nonzero" fill-opacity="1" /><path clip-path="url(#clip460)" d="M352.96 945.479 L369.279 945.479 L369.279 949.414 L347.335 949.414 L347.335 945.479 Q349.997 942.725 354.58 938.095 Q359.187 933.442 360.367 932.1 Q362.612 929.576 363.492 927.84 Q364.395 926.081 364.395 924.391 Q364.395 921.637 362.45 919.901 Q360.529 918.165 357.427 918.165 Q355.228 918.165 352.775 918.928 Q350.344 919.692 347.566 921.243 L347.566 916.521 Q350.39 915.387 352.844 914.808 Q355.298 914.229 357.335 914.229 Q362.705 914.229 365.899 916.915 Q369.094 919.6 369.094 924.09 Q369.094 926.22 368.284 928.141 Q367.497 930.039 365.39 932.632 Q364.812 933.303 361.71 936.521 Q358.608 939.715 352.96 945.479 Z" fill="#8f9191" fill-rule="nonzero" fill-opacity="1" /><path clip-path="url(#clip460)" d="M312.103 624.824 Q308.492 624.824 306.664 628.389 Q304.858 631.931 304.858 639.06 Q304.858 646.167 306.664 649.731 Q308.492 653.273 312.103 653.273 Q315.738 653.273 317.543 649.731 Q319.372 646.167 319.372 639.06 Q319.372 631.931 317.543 628.389 Q315.738 624.824 312.103 624.824 M312.103 621.121 Q317.914 621.121 320.969 625.727 Q324.048 630.31 324.048 639.06 Q324.048 647.787 320.969 652.393 Q317.914 656.977 312.103 656.977 Q306.293 656.977 303.215 652.393 Q300.159 647.787 300.159 639.06 Q300.159 630.31 303.215 625.727 Q306.293 621.121 312.103 621.121 Z" fill="#8f9191" fill-rule="nonzero" fill-opacity="1" /><path clip-path="url(#clip460)" d="M332.265 650.426 L337.15 650.426 L337.15 656.306 L332.265 656.306 L332.265 650.426 Z" fill="#8f9191" fill-rule="nonzero" fill-opacity="1" /><path clip-path="url(#clip460)" d="M357.335 624.824 Q353.724 624.824 351.895 628.389 Q350.089 631.931 350.089 639.06 Q350.089 646.167 351.895 649.731 Q353.724 653.273 357.335 653.273 Q360.969 653.273 362.775 649.731 Q364.603 646.167 364.603 639.06 Q364.603 631.931 362.775 628.389 Q360.969 624.824 357.335 624.824 M357.335 621.121 Q363.145 621.121 366.2 625.727 Q369.279 630.31 369.279 639.06 Q369.279 647.787 366.2 652.393 Q363.145 656.977 357.335 656.977 Q351.525 656.977 348.446 652.393 Q345.39 647.787 345.39 639.06 Q345.39 630.31 348.446 625.727 Q351.525 621.121 357.335 621.121 Z" fill="#8f9191" fill-rule="nonzero" fill-opacity="1" /><path clip-path="url(#clip460)" d="M313.701 331.715 Q310.09 331.715 308.261 335.28 Q306.455 338.822 306.455 345.951 Q306.455 353.058 308.261 356.623 Q310.09 360.164 313.701 360.164 Q317.335 360.164 319.14 356.623 Q320.969 353.058 320.969 345.951 Q320.969 338.822 319.14 335.28 Q317.335 331.715 313.701 331.715 M313.701 328.012 Q319.511 328.012 322.566 332.618 Q325.645 337.201 325.645 345.951 Q325.645 354.678 322.566 359.285 Q319.511 363.868 313.701 363.868 Q307.891 363.868 304.812 359.285 Q301.756 354.678 301.756 345.951 Q301.756 337.201 304.812 332.618 Q307.891 328.012 313.701 328.012 Z" fill="#8f9191" fill-rule="nonzero" fill-opacity="1" /><path clip-path="url(#clip460)" d="M333.863 357.317 L338.747 357.317 L338.747 363.197 L333.863 363.197 L333.863 357.317 Z" fill="#8f9191" fill-rule="nonzero" fill-opacity="1" /><path clip-path="url(#clip460)" d="M352.96 359.262 L369.279 359.262 L369.279 363.197 L347.335 363.197 L347.335 359.262 Q349.997 356.507 354.58 351.877 Q359.187 347.225 360.367 345.882 Q362.612 343.359 363.492 341.623 Q364.395 339.863 364.395 338.174 Q364.395 335.419 362.45 333.683 Q360.529 331.947 357.427 331.947 Q355.228 331.947 352.775 332.711 Q350.344 333.475 347.566 335.026 L347.566 330.303 Q350.39 329.169 352.844 328.59 Q355.298 328.012 357.335 328.012 Q362.705 328.012 365.899 330.697 Q369.094 333.382 369.094 337.873 Q369.094 340.002 368.284 341.924 Q367.497 343.822 365.39 346.414 Q364.812 347.086 361.71 350.303 Q358.608 353.498 352.96 359.262 Z" fill="#8f9191" fill-rule="nonzero" fill-opacity="1" /><path clip-path="url(#clip460)" d="M311.617 38.6065 Q308.006 38.6065 306.178 42.1713 Q304.372 45.713 304.372 52.8426 Q304.372 59.949 306.178 63.5138 Q308.006 67.0555 311.617 67.0555 Q315.252 67.0555 317.057 63.5138 Q318.886 59.949 318.886 52.8426 Q318.886 45.713 317.057 42.1713 Q315.252 38.6065 311.617 38.6065 M311.617 34.9029 Q317.428 34.9029 320.483 39.5093 Q323.562 44.0926 323.562 52.8426 Q323.562 61.5694 320.483 66.1758 Q317.428 70.7591 311.617 70.7591 Q305.807 70.7591 302.729 66.1758 Q299.673 61.5694 299.673 52.8426 Q299.673 44.0926 302.729 39.5093 Q305.807 34.9029 311.617 34.9029 Z" fill="#8f9191" fill-rule="nonzero" fill-opacity="1" /><path clip-path="url(#clip460)" d="M331.779 64.2083 L336.664 64.2083 L336.664 70.0878 L331.779 70.0878 L331.779 64.2083 Z" fill="#8f9191" fill-rule="nonzero" fill-opacity="1" /><path clip-path="url(#clip460)" d="M359.696 39.6019 L347.89 58.0509 L359.696 58.0509 L359.696 39.6019 M358.469 35.5278 L364.349 35.5278 L364.349 58.0509 L369.279 58.0509 L369.279 61.9397 L364.349 61.9397 L364.349 70.0878 L359.696 70.0878 L359.696 61.9397 L344.094 61.9397 L344.094 57.4259 L358.469 35.5278 Z" fill="#8f9191" fill-rule="nonzero" fill-opacity="1" /><path clip-path="url(#clip460)" d="M177.091 633.584 Q177.091 634.035 176.801 635.098 L170.488 660.283 Q169.103 665.886 164.595 669.816 Q160.118 673.745 155.03 673.745 Q151.97 673.745 150.005 672.102 Q148.041 670.492 148.041 668.012 Q148.041 665.822 149.2 664.759 Q150.36 663.729 151.745 663.729 Q152.195 663.729 152.678 663.857 Q153.162 663.986 153.677 664.534 Q154.192 665.081 154.192 666.015 Q154.192 667.529 152.872 668.721 Q152.228 669.268 151.616 669.397 Q151.036 669.526 150.038 669.526 Q150.424 670.427 151.133 671.039 Q151.841 671.651 152.646 671.877 Q153.451 672.134 153.967 672.199 Q154.514 672.295 155.03 672.295 Q159.152 672.295 162.308 668.141 Q163.242 666.885 163.918 665.629 Q164.627 664.405 165.142 662.891 Q165.657 661.41 165.883 660.605 Q166.141 659.8 166.591 657.964 Q163.596 660.959 159.925 660.959 Q158.379 660.959 156.994 660.54 Q155.641 660.122 154.45 659.252 Q153.258 658.35 152.55 656.772 Q151.873 655.194 151.873 653.101 Q151.873 650.879 152.743 647.851 Q153.612 644.824 155.706 639.252 Q156.833 636.128 156.833 634.615 Q156.833 633.874 156.672 633.423 Q156.511 632.94 156.189 632.779 Q155.867 632.586 155.674 632.553 Q155.513 632.521 155.191 632.521 Q153.29 632.521 151.519 634.454 Q149.748 636.386 148.524 640.701 Q148.266 641.507 148.105 641.7 Q147.944 641.893 147.461 641.893 Q146.656 641.861 146.656 641.217 Q146.656 640.959 146.946 639.961 Q147.236 638.93 147.912 637.416 Q148.621 635.871 149.587 634.486 Q150.553 633.069 152.067 632.07 Q153.612 631.072 155.384 631.072 Q157.799 631.072 159.281 632.65 Q160.794 634.196 160.794 636.482 Q160.794 637.416 160.537 638.254 Q160.311 639.059 159.474 641.217 Q156.092 649.912 156.092 654.163 Q156.092 655.194 156.253 656.064 Q156.447 656.901 156.865 657.738 Q157.284 658.543 158.121 659.027 Q158.991 659.477 160.182 659.477 Q161.696 659.477 163.113 658.769 Q164.562 658.028 165.464 657.03 Q166.398 656.031 166.946 655.194 Q167.525 654.325 167.654 653.874 L170.617 642.022 L171.938 636.74 Q172.549 633.874 172.839 633.165 Q173.226 632.489 173.902 632.135 Q174.578 631.78 175.158 631.78 Q175.963 631.78 176.511 632.264 Q177.091 632.747 177.091 633.584 Z" fill="#8f9191" fill-rule="nonzero" fill-opacity="1" /><polyline clip-path="url(#clip462)" style="stroke:#6496c8; stroke-linecap:round; stroke-linejoin:round; stroke-width:4; stroke-opacity:1; fill:none" points="1908.79,639.026 1908.21,639.083 1906.47,639.255 1903.58,639.535 1899.54,639.913 1894.35,640.377 1888.03,640.911 1880.58,641.498 1872.02,642.122 1862.36,642.764 1851.61,643.408 1839.79,644.041 1826.93,644.65 1813.03,645.228 1798.13,645.771 1782.24,646.28 1765.4,646.76 1747.62,647.22 1728.94,647.673 1709.39,648.136 1688.99,648.628 1667.78,649.17 1645.79,649.785 1623.06,650.494 1599.63,651.316 1575.52,652.271 1550.78,653.373 1525.45,654.632 1499.57,656.056 1473.18,657.644 1446.31,659.392 1419.02,661.29 1391.34,663.324 1363.33,665.475 1335.01,667.718 1306.45,670.027 1277.68,672.373 1248.75,674.727 1219.7,677.058 1190.59,679.338 1161.45,681.539 1132.33,683.637 1103.29,685.611 1074.36,687.444 1045.59,689.125 1017.02,690.645 988.709,692.001 960.692,693.192 933.016,694.224 905.724,695.102 878.86,695.835 852.465,696.432 826.582,696.902 801.252,697.254 776.514,697.492 752.408,697.622 728.971,697.642 706.242,697.548 684.255,697.334 663.046,696.986 642.648,696.49 623.094,695.825 604.413,694.971 586.637,693.904 569.792,692.601 553.906,691.038 539.004,689.193 525.109,687.049 512.243,684.59 500.427,681.809 489.679,678.702 480.016,675.272 471.454,671.531 464.005,667.498 457.683,663.198 452.496,658.663 448.454,653.932 445.562,649.05 443.825,644.064 443.245,639.026 443.825,633.977 445.562,628.922 448.454,623.853 452.496,618.765 457.683,613.657 464.005,608.527 471.454,603.377 480.016,598.215 489.679,593.049 500.427,587.893 512.243,582.763 525.109,577.679 539.004,572.663 553.906,567.742 569.792,562.941 586.637,558.289 604.413,553.814 623.094,549.546 642.648,545.511 663.046,541.736 684.255,538.245 706.242,535.058 728.971,532.193 752.408,529.665 776.514,527.484 801.252,525.656 826.582,524.185 852.465,523.068 878.86,522.303 905.724,521.88 933.016,521.79 960.692,522.019 988.709,522.554 1017.02,523.377 1045.59,524.473 1074.36,525.825 1103.29,527.414 1132.33,529.226 1161.45,531.243 1190.59,533.451 1219.7,535.837 1248.75,538.386 1277.68,541.089 1306.45,543.933 1335.01,546.91 1363.33,550.008 1391.34,553.221 1419.02,556.537 1446.31,559.948 1473.18,563.445 1499.57,567.016 1525.45,570.651 1550.78,574.337 1575.52,578.061 1599.63,581.809 1623.06,585.566 1645.79,589.315 1667.78,593.039 1688.99,596.721 1709.39,600.343 1728.94,603.888 1747.62,607.337 1765.4,610.674 1782.24,613.882 1798.13,616.946 1813.03,619.851 1826.93,622.585 1839.79,625.135 1851.61,627.492 1862.36,629.646 1872.02,631.589 1880.58,633.316 1888.03,634.821 1894.35,636.1 1899.54,637.151 1903.58,637.97 1906.47,638.556 1908.21,638.908 1908.79,639.026 "/>
</svg>
