<?xml version="1.0" encoding="utf-8"?>
<svg xmlns="http://www.w3.org/2000/svg" xmlns:xlink="http://www.w3.org/1999/xlink" width="500" height="375" viewBox="0 0 2000 1500">
<defs>
  <clipPath id="clip100">
    <rect x="0" y="0" width="2000" height="1500"/>
  </clipPath>
</defs>
<defs>
  <clipPath id="clip101">
    <rect x="400" y="0" width="1401" height="1401"/>
  </clipPath>
</defs>
<defs>
  <clipPath id="clip102">
    <rect x="399" y="47" width="1554" height="1126"/>
  </clipPath>
</defs>
<polyline clip-path="url(#clip100)" style="stroke:#8f9191; stroke-linecap:round; stroke-linejoin:round; stroke-width:4; stroke-opacity:1; fill:none" points="399.279,1172.19 1952.76,1172.19 "/>
<polyline clip-path="url(#clip100)" style="stroke:#8f9191; stroke-linecap:round; stroke-linejoin:round; stroke-width:4; stroke-opacity:1; fill:none" points="443.245,1172.19 443.245,1153.29 "/>
<polyline clip-path="url(#clip100)" style="stroke:#8f9191; stroke-linecap:round; stroke-linejoin:round; stroke-width:4; stroke-opacity:1; fill:none" points="809.631,1172.19 809.631,1153.29 "/>
<polyline clip-path="url(#clip100)" style="stroke:#8f9191; stroke-linecap:round; stroke-linejoin:round; stroke-width:4; stroke-opacity:1; fill:none" points="1176.02,1172.19 1176.02,1153.29 "/>
<polyline clip-path="url(#clip100)" style="stroke:#8f9191; stroke-linecap:round; stroke-linejoin:round; stroke-width:4; stroke-opacity:1; fill:none" points="1542.4,1172.19 1542.4,1153.29 "/>
<polyline clip-path="url(#clip100)" style="stroke:#8f9191; stroke-linecap:round; stroke-linejoin:round; stroke-width:4; stroke-opacity:1; fill:none" points="1908.79,1172.19 1908.79,1153.29 "/>
<path clip-path="url(#clip100)" d="M405.549 1199.91 Q401.938 1199.91 400.109 1203.47 Q398.304 1207.01 398.304 1214.14 Q398.304 1221.25 400.109 1224.81 Q401.938 1228.36 405.549 1228.36 Q409.183 1228.36 410.989 1224.81 Q412.817 1221.25 412.817 1214.14 Q412.817 1207.01 410.989 1203.47 Q409.183 1199.91 405.549 1199.91 M405.549 1196.2 Q411.359 1196.2 414.415 1200.81 Q417.493 1205.39 417.493 1214.14 Q417.493 1222.87 414.415 1227.48 Q411.359 1232.06 405.549 1232.06 Q399.739 1232.06 396.66 1227.48 Q393.604 1222.87 393.604 1214.14 Q393.604 1205.39 396.66 1200.81 Q399.739 1196.2 405.549 1196.2 Z" fill="#8f9191" fill-rule="nonzero" fill-opacity="1" /><path clip-path="url(#clip100)" d="M425.711 1225.51 L430.595 1225.51 L430.595 1231.39 L425.711 1231.39 L425.711 1225.51 Z" fill="#8f9191" fill-rule="nonzero" fill-opacity="1" /><path clip-path="url(#clip100)" d="M450.78 1199.91 Q447.169 1199.91 445.34 1203.47 Q443.535 1207.01 443.535 1214.14 Q443.535 1221.25 445.34 1224.81 Q447.169 1228.36 450.78 1228.36 Q454.414 1228.36 456.22 1224.81 Q458.049 1221.25 458.049 1214.14 Q458.049 1207.01 456.22 1203.47 Q454.414 1199.91 450.78 1199.91 M450.78 1196.2 Q456.59 1196.2 459.646 1200.81 Q462.724 1205.39 462.724 1214.14 Q462.724 1222.87 459.646 1227.48 Q456.59 1232.06 450.78 1232.06 Q444.97 1232.06 441.891 1227.48 Q438.836 1222.87 438.836 1214.14 Q438.836 1205.39 441.891 1200.81 Q444.97 1196.2 450.78 1196.2 Z" fill="#8f9191" fill-rule="nonzero" fill-opacity="1" /><path clip-path="url(#clip100)" d="M480.942 1199.91 Q477.331 1199.91 475.502 1203.47 Q473.697 1207.01 473.697 1214.14 Q473.697 1221.25 475.502 1224.81 Q477.331 1228.36 480.942 1228.36 Q484.576 1228.36 486.382 1224.81 Q488.21 1221.25 488.21 1214.14 Q488.21 1207.01 486.382 1203.47 Q484.576 1199.91 480.942 1199.91 M480.942 1196.2 Q486.752 1196.2 489.808 1200.81 Q492.886 1205.39 492.886 1214.14 Q492.886 1222.87 489.808 1227.48 Q486.752 1232.06 480.942 1232.06 Q475.132 1232.06 472.053 1227.48 Q468.998 1222.87 468.998 1214.14 Q468.998 1205.39 472.053 1200.81 Q475.132 1196.2 480.942 1196.2 Z" fill="#8f9191" fill-rule="nonzero" fill-opacity="1" /><path clip-path="url(#clip100)" d="M772.433 1199.91 Q768.821 1199.91 766.993 1203.47 Q765.187 1207.01 765.187 1214.14 Q765.187 1221.25 766.993 1224.81 Q768.821 1228.36 772.433 1228.36 Q776.067 1228.36 777.872 1224.81 Q779.701 1221.25 779.701 1214.14 Q779.701 1207.01 777.872 1203.47 Q776.067 1199.91 772.433 1199.91 M772.433 1196.2 Q778.243 1196.2 781.298 1200.81 Q784.377 1205.39 784.377 1214.14 Q784.377 1222.87 781.298 1227.48 Q778.243 1232.06 772.433 1232.06 Q766.622 1232.06 763.544 1227.48 Q760.488 1222.87 760.488 1214.14 Q760.488 1205.39 763.544 1200.81 Q766.622 1196.2 772.433 1196.2 Z" fill="#8f9191" fill-rule="nonzero" fill-opacity="1" /><path clip-path="url(#clip100)" d="M792.595 1225.51 L797.479 1225.51 L797.479 1231.39 L792.595 1231.39 L792.595 1225.51 Z" fill="#8f9191" fill-rule="nonzero" fill-opacity="1" /><path clip-path="url(#clip100)" d="M811.692 1227.45 L828.011 1227.45 L828.011 1231.39 L806.067 1231.39 L806.067 1227.45 Q808.729 1224.7 813.312 1220.07 Q817.918 1215.42 819.099 1214.07 Q821.344 1211.55 822.224 1209.81 Q823.127 1208.05 823.127 1206.36 Q823.127 1203.61 821.182 1201.87 Q819.261 1200.14 816.159 1200.14 Q813.96 1200.14 811.506 1200.9 Q809.076 1201.67 806.298 1203.22 L806.298 1198.49 Q809.122 1197.36 811.576 1196.78 Q814.03 1196.2 816.067 1196.2 Q821.437 1196.2 824.631 1198.89 Q827.826 1201.57 827.826 1206.06 Q827.826 1208.19 827.016 1210.11 Q826.229 1212.01 824.122 1214.61 Q823.543 1215.28 820.442 1218.49 Q817.34 1221.69 811.692 1227.45 Z" fill="#8f9191" fill-rule="nonzero" fill-opacity="1" /><path clip-path="url(#clip100)" d="M837.872 1196.83 L856.228 1196.83 L856.228 1200.76 L842.154 1200.76 L842.154 1209.23 Q843.173 1208.89 844.191 1208.73 Q845.21 1208.54 846.228 1208.54 Q852.015 1208.54 855.395 1211.71 Q858.775 1214.88 858.775 1220.3 Q858.775 1225.88 855.303 1228.98 Q851.83 1232.06 845.511 1232.06 Q843.335 1232.06 841.066 1231.69 Q838.821 1231.32 836.414 1230.58 L836.414 1225.88 Q838.497 1227.01 840.719 1227.57 Q842.941 1228.12 845.418 1228.12 Q849.423 1228.12 851.761 1226.02 Q854.099 1223.91 854.099 1220.3 Q854.099 1216.69 851.761 1214.58 Q849.423 1212.48 845.418 1212.48 Q843.543 1212.48 841.668 1212.89 Q839.816 1213.31 837.872 1214.19 L837.872 1196.83 Z" fill="#8f9191" fill-rule="nonzero" fill-opacity="1" /><path clip-path="url(#clip100)" d="M1138.32 1199.91 Q1134.71 1199.91 1132.88 1203.47 Q1131.08 1207.01 1131.08 1214.14 Q1131.08 1221.25 1132.88 1224.81 Q1134.71 1228.36 1138.32 1228.36 Q1141.96 1228.36 1143.76 1224.81 Q1145.59 1221.25 1145.59 1214.14 Q1145.59 1207.01 1143.76 1203.47 Q1141.96 1199.91 1138.32 1199.91 M1138.32 1196.2 Q1144.13 1196.2 1147.19 1200.81 Q1150.27 1205.39 1150.27 1214.14 Q1150.27 1222.87 1147.19 1227.48 Q1144.13 1232.06 1138.32 1232.06 Q1132.51 1232.06 1129.43 1227.48 Q1126.38 1222.87 1126.38 1214.14 Q1126.38 1205.39 1129.43 1200.81 Q1132.51 1196.2 1138.32 1196.2 Z" fill="#8f9191" fill-rule="nonzero" fill-opacity="1" /><path clip-path="url(#clip100)" d="M1158.48 1225.51 L1163.37 1225.51 L1163.37 1231.39 L1158.48 1231.39 L1158.48 1225.51 Z" fill="#8f9191" fill-rule="nonzero" fill-opacity="1" /><path clip-path="url(#clip100)" d="M1173.6 1196.83 L1191.95 1196.83 L1191.95 1200.76 L1177.88 1200.76 L1177.88 1209.23 Q1178.9 1208.89 1179.92 1208.73 Q1180.94 1208.54 1181.95 1208.54 Q1187.74 1208.54 1191.12 1211.71 Q1194.5 1214.88 1194.5 1220.3 Q1194.5 1225.88 1191.03 1228.98 Q1187.56 1232.06 1181.24 1232.06 Q1179.06 1232.06 1176.79 1231.69 Q1174.55 1231.32 1172.14 1230.58 L1172.14 1225.88 Q1174.22 1227.01 1176.45 1227.57 Q1178.67 1228.12 1181.14 1228.12 Q1185.15 1228.12 1187.49 1226.02 Q1189.83 1223.91 1189.83 1220.3 Q1189.83 1216.69 1187.49 1214.58 Q1185.15 1212.48 1181.14 1212.48 Q1179.27 1212.48 1177.39 1212.89 Q1175.54 1213.31 1173.6 1214.19 L1173.6 1196.83 Z" fill="#8f9191" fill-rule="nonzero" fill-opacity="1" /><path clip-path="url(#clip100)" d="M1213.71 1199.91 Q1210.1 1199.91 1208.27 1203.47 Q1206.47 1207.01 1206.47 1214.14 Q1206.47 1221.25 1208.27 1224.81 Q1210.1 1228.36 1213.71 1228.36 Q1217.35 1228.36 1219.15 1224.81 Q1220.98 1221.25 1220.98 1214.14 Q1220.98 1207.01 1219.15 1203.47 Q1217.35 1199.91 1213.71 1199.91 M1213.71 1196.2 Q1219.52 1196.2 1222.58 1200.81 Q1225.66 1205.39 1225.66 1214.14 Q1225.66 1222.87 1222.58 1227.48 Q1219.52 1232.06 1213.71 1232.06 Q1207.9 1232.06 1204.83 1227.48 Q1201.77 1222.87 1201.77 1214.14 Q1201.77 1205.39 1204.83 1200.81 Q1207.9 1196.2 1213.71 1196.2 Z" fill="#8f9191" fill-rule="nonzero" fill-opacity="1" /><path clip-path="url(#clip100)" d="M1505.2 1199.91 Q1501.59 1199.91 1499.76 1203.47 Q1497.96 1207.01 1497.96 1214.14 Q1497.96 1221.25 1499.76 1224.81 Q1501.59 1228.36 1505.2 1228.36 Q1508.84 1228.36 1510.64 1224.81 Q1512.47 1221.25 1512.47 1214.14 Q1512.47 1207.01 1510.64 1203.47 Q1508.84 1199.91 1505.2 1199.91 M1505.2 1196.2 Q1511.01 1196.2 1514.07 1200.81 Q1517.15 1205.39 1517.15 1214.14 Q1517.15 1222.87 1514.07 1227.48 Q1511.01 1232.06 1505.2 1232.06 Q1499.39 1232.06 1496.32 1227.48 Q1493.26 1222.87 1493.26 1214.14 Q1493.26 1205.39 1496.32 1200.81 Q1499.39 1196.2 1505.2 1196.2 Z" fill="#8f9191" fill-rule="nonzero" fill-opacity="1" /><path clip-path="url(#clip100)" d="M1525.37 1225.51 L1530.25 1225.51 L1530.25 1231.39 L1525.37 1231.39 L1525.37 1225.51 Z" fill="#8f9191" fill-rule="nonzero" fill-opacity="1" /><path clip-path="url(#clip100)" d="M1539.26 1196.83 L1561.48 1196.83 L1561.48 1198.82 L1548.93 1231.39 L1544.05 1231.39 L1555.85 1200.76 L1539.26 1200.76 L1539.26 1196.83 Z" fill="#8f9191" fill-rule="nonzero" fill-opacity="1" /><path clip-path="url(#clip100)" d="M1570.64 1196.83 L1589 1196.83 L1589 1200.76 L1574.93 1200.76 L1574.93 1209.23 Q1575.95 1208.89 1576.96 1208.73 Q1577.98 1208.54 1579 1208.54 Q1584.79 1208.54 1588.17 1211.71 Q1591.55 1214.88 1591.55 1220.3 Q1591.55 1225.88 1588.07 1228.98 Q1584.6 1232.06 1578.28 1232.06 Q1576.11 1232.06 1573.84 1231.69 Q1571.59 1231.32 1569.19 1230.58 L1569.19 1225.88 Q1571.27 1227.01 1573.49 1227.57 Q1575.71 1228.12 1578.19 1228.12 Q1582.19 1228.12 1584.53 1226.02 Q1586.87 1223.91 1586.87 1220.3 Q1586.87 1216.69 1584.53 1214.58 Q1582.19 1212.48 1578.19 1212.48 Q1576.32 1212.48 1574.44 1212.89 Q1572.59 1213.31 1570.64 1214.19 L1570.64 1196.83 Z" fill="#8f9191" fill-rule="nonzero" fill-opacity="1" /><path clip-path="url(#clip100)" d="M1860.86 1227.45 L1868.5 1227.45 L1868.5 1201.09 L1860.19 1202.75 L1860.19 1198.49 L1868.45 1196.83 L1873.13 1196.83 L1873.13 1227.45 L1880.77 1227.45 L1880.77 1231.39 L1860.86 1231.39 L1860.86 1227.45 Z" fill="#8f9191" fill-rule="nonzero" fill-opacity="1" /><path clip-path="url(#clip100)" d="M1890.21 1225.51 L1895.1 1225.51 L1895.1 1231.39 L1890.21 1231.39 L1890.21 1225.51 Z" fill="#8f9191" fill-rule="nonzero" fill-opacity="1" /><path clip-path="url(#clip100)" d="M1915.28 1199.91 Q1911.67 1199.91 1909.84 1203.47 Q1908.04 1207.01 1908.04 1214.14 Q1908.04 1221.25 1909.84 1224.81 Q1911.67 1228.36 1915.28 1228.36 Q1918.92 1228.36 1920.72 1224.81 Q1922.55 1221.25 1922.55 1214.14 Q1922.55 1207.01 1920.72 1203.47 Q1918.92 1199.91 1915.28 1199.91 M1915.28 1196.2 Q1921.09 1196.2 1924.15 1200.81 Q1927.23 1205.39 1927.23 1214.14 Q1927.23 1222.87 1924.15 1227.48 Q1921.09 1232.06 1915.28 1232.06 Q1909.47 1232.06 1906.39 1227.48 Q1903.34 1222.87 1903.34 1214.14 Q1903.34 1205.39 1906.39 1200.81 Q1909.47 1196.2 1915.28 1196.2 Z" fill="#8f9191" fill-rule="nonzero" fill-opacity="1" /><path clip-path="url(#clip100)" d="M1945.44 1199.91 Q1941.83 1199.91 1940 1203.47 Q1938.2 1207.01 1938.2 1214.14 Q1938.2 1221.25 1940 1224.81 Q1941.83 1228.36 1945.44 1228.36 Q1949.08 1228.36 1950.88 1224.81 Q1952.71 1221.25 1952.71 1214.14 Q1952.71 1207.01 1950.88 1203.47 Q1949.08 1199.91 1945.44 1199.91 M1945.44 1196.2 Q1951.25 1196.2 1954.31 1200.81 Q1957.39 1205.39 1957.39 1214.14 Q1957.39 1222.87 1954.31 1227.48 Q1951.25 1232.06 1945.44 1232.06 Q1939.63 1232.06 1936.56 1227.48 Q1933.5 1222.87 1933.5 1214.14 Q1933.5 1205.39 1936.56 1200.81 Q1939.63 1196.2 1945.44 1196.2 Z" fill="#8f9191" fill-rule="nonzero" fill-opacity="1" /><path clip-path="url(#clip100)" d="M1190.19 1271.81 Q1190.19 1273.61 1189.06 1274.64 Q1187.94 1275.64 1186.65 1275.64 Q1185.43 1275.64 1184.78 1274.93 Q1184.14 1274.23 1184.14 1273.32 Q1184.14 1272.1 1185.04 1271.04 Q1185.94 1269.97 1187.29 1269.75 Q1185.97 1268.91 1184.01 1268.91 Q1182.72 1268.91 1181.59 1269.59 Q1180.5 1270.26 1179.82 1271.13 Q1179.18 1272 1178.6 1273.26 Q1178.05 1274.48 1177.82 1275.22 Q1177.63 1275.93 1177.47 1276.71 L1175.22 1285.72 Q1174.12 1290.01 1174.12 1291.52 Q1174.12 1293.39 1175.02 1294.64 Q1175.92 1295.87 1177.73 1295.87 Q1178.44 1295.87 1179.24 1295.67 Q1180.05 1295.45 1181.08 1294.87 Q1182.14 1294.26 1183.07 1293.36 Q1184.04 1292.42 1184.97 1290.84 Q1185.91 1289.27 1186.52 1287.24 Q1186.71 1286.53 1187.36 1286.53 Q1188.16 1286.53 1188.16 1287.17 Q1188.16 1287.72 1187.71 1288.88 Q1187.29 1290.01 1186.36 1291.49 Q1185.46 1292.94 1184.27 1294.26 Q1183.07 1295.55 1181.3 1296.45 Q1179.53 1297.35 1177.6 1297.35 Q1174.83 1297.35 1172.99 1295.87 Q1171.16 1294.39 1170.48 1292.33 Q1170.32 1292.62 1170.1 1293 Q1169.87 1293.39 1169.19 1294.26 Q1168.55 1295.09 1167.81 1295.74 Q1167.07 1296.35 1165.91 1296.83 Q1164.78 1297.35 1163.56 1297.35 Q1162.01 1297.35 1160.63 1296.9 Q1159.27 1296.45 1158.31 1295.42 Q1157.34 1294.39 1157.34 1292.97 Q1157.34 1291.39 1158.4 1290.3 Q1159.5 1289.17 1160.98 1289.17 Q1161.91 1289.17 1162.66 1289.72 Q1163.43 1290.26 1163.43 1291.46 Q1163.43 1292.78 1162.53 1293.77 Q1161.63 1294.77 1160.34 1295.03 Q1161.66 1295.87 1163.62 1295.87 Q1165.75 1295.87 1167.42 1294 Q1169.1 1292.13 1169.9 1289.01 Q1171.9 1281.5 1172.67 1278.15 Q1173.44 1274.77 1173.44 1273.32 Q1173.44 1271.97 1173.09 1271.04 Q1172.74 1270.1 1172.12 1269.68 Q1171.54 1269.23 1171 1269.07 Q1170.48 1268.91 1169.9 1268.91 Q1168.94 1268.91 1167.84 1269.3 Q1166.78 1269.68 1165.49 1270.59 Q1164.23 1271.46 1163.04 1273.26 Q1161.85 1275.06 1161.05 1277.54 Q1160.88 1278.28 1160.18 1278.28 Q1159.4 1278.25 1159.4 1277.61 Q1159.4 1277.06 1159.82 1275.93 Q1160.27 1274.77 1161.17 1273.32 Q1162.11 1271.87 1163.3 1270.59 Q1164.52 1269.27 1166.29 1268.36 Q1168.1 1267.46 1170.03 1267.46 Q1170.9 1267.46 1171.74 1267.66 Q1172.61 1267.82 1173.64 1268.3 Q1174.7 1268.78 1175.63 1269.85 Q1176.57 1270.91 1177.15 1272.45 Q1177.53 1271.71 1178.05 1271 Q1178.6 1270.3 1179.43 1269.43 Q1180.3 1268.53 1181.5 1268.01 Q1182.72 1267.46 1184.07 1267.46 Q1185.39 1267.46 1186.68 1267.82 Q1187.97 1268.14 1189.06 1269.2 Q1190.19 1270.23 1190.19 1271.81 Z" fill="#8f9191" fill-rule="nonzero" fill-opacity="1" /><polyline clip-path="url(#clip100)" style="stroke:#8f9191; stroke-linecap:round; stroke-linejoin:round; stroke-width:4; stroke-opacity:1; fill:none" points="399.279,1172.19 399.279,47.2441 "/>
<polyline clip-path="url(#clip100)" style="stroke:#8f9191; stroke-linecap:round; stroke-linejoin:round; stroke-width:4; stroke-opacity:1; fill:none" points="399.279,960.45 418.177,960.45 "/>
<polyline clip-path="url(#clip100)" style="stroke:#8f9191; stroke-linecap:round; stroke-linejoin:round; stroke-width:4; stroke-opacity:1; fill:none" points="399.279,667.341 418.177,667.341 "/>
<polyline clip-path="url(#clip100)" style="stroke:#8f9191; stroke-linecap:round; stroke-linejoin:round; stroke-width:4; stroke-opacity:1; fill:none" points="399.279,374.232 418.177,374.232 "/>
<polyline clip-path="url(#clip100)" style="stroke:#8f9191; stroke-linecap:round; stroke-linejoin:round; stroke-width:4; stroke-opacity:1; fill:none" points="399.279,81.1232 418.177,81.1232 "/>
<path clip-path="url(#clip100)" d="M263.932 960.901 L293.608 960.901 L293.608 964.836 L263.932 964.836 L263.932 960.901 Z" fill="#8f9191" fill-rule="nonzero" fill-opacity="1" /><path clip-path="url(#clip100)" d="M313.701 946.248 Q310.09 946.248 308.261 949.813 Q306.455 953.355 306.455 960.484 Q306.455 967.591 308.261 971.156 Q310.09 974.697 313.701 974.697 Q317.335 974.697 319.14 971.156 Q320.969 967.591 320.969 960.484 Q320.969 953.355 319.14 949.813 Q317.335 946.248 313.701 946.248 M313.701 942.545 Q319.511 942.545 322.566 947.151 Q325.645 951.734 325.645 960.484 Q325.645 969.211 322.566 973.818 Q319.511 978.401 313.701 978.401 Q307.891 978.401 304.812 973.818 Q301.756 969.211 301.756 960.484 Q301.756 951.734 304.812 947.151 Q307.891 942.545 313.701 942.545 Z" fill="#8f9191" fill-rule="nonzero" fill-opacity="1" /><path clip-path="url(#clip100)" d="M333.863 971.85 L338.747 971.85 L338.747 977.73 L333.863 977.73 L333.863 971.85 Z" fill="#8f9191" fill-rule="nonzero" fill-opacity="1" /><path clip-path="url(#clip100)" d="M352.96 973.795 L369.279 973.795 L369.279 977.73 L347.335 977.73 L347.335 973.795 Q349.997 971.04 354.58 966.41 Q359.187 961.758 360.367 960.415 Q362.612 957.892 363.492 956.156 Q364.395 954.396 364.395 952.707 Q364.395 949.952 362.45 948.216 Q360.529 946.48 357.427 946.48 Q355.228 946.48 352.775 947.244 Q350.344 948.008 347.566 949.559 L347.566 944.836 Q350.39 943.702 352.844 943.123 Q355.298 942.545 357.335 942.545 Q362.705 942.545 365.899 945.23 Q369.094 947.915 369.094 952.406 Q369.094 954.535 368.284 956.457 Q367.497 958.355 365.39 960.947 Q364.812 961.619 361.71 964.836 Q358.608 968.031 352.96 973.795 Z" fill="#8f9191" fill-rule="nonzero" fill-opacity="1" /><path clip-path="url(#clip100)" d="M312.103 653.14 Q308.492 653.14 306.664 656.704 Q304.858 660.246 304.858 667.376 Q304.858 674.482 306.664 678.047 Q308.492 681.588 312.103 681.588 Q315.738 681.588 317.543 678.047 Q319.372 674.482 319.372 667.376 Q319.372 660.246 317.543 656.704 Q315.738 653.14 312.103 653.14 M312.103 649.436 Q317.914 649.436 320.969 654.042 Q324.048 658.626 324.048 667.376 Q324.048 676.102 320.969 680.709 Q317.914 685.292 312.103 685.292 Q306.293 685.292 303.215 680.709 Q300.159 676.102 300.159 667.376 Q300.159 658.626 303.215 654.042 Q306.293 649.436 312.103 649.436 Z" fill="#8f9191" fill-rule="nonzero" fill-opacity="1" /><path clip-path="url(#clip100)" d="M332.265 678.741 L337.15 678.741 L337.15 684.621 L332.265 684.621 L332.265 678.741 Z" fill="#8f9191" fill-rule="nonzero" fill-opacity="1" /><path clip-path="url(#clip100)" d="M357.335 653.14 Q353.724 653.14 351.895 656.704 Q350.089 660.246 350.089 667.376 Q350.089 674.482 351.895 678.047 Q353.724 681.588 357.335 681.588 Q360.969 681.588 362.775 678.047 Q364.603 674.482 364.603 667.376 Q364.603 660.246 362.775 656.704 Q360.969 653.14 357.335 653.14 M357.335 649.436 Q363.145 649.436 366.2 654.042 Q369.279 658.626 369.279 667.376 Q369.279 676.102 366.2 680.709 Q363.145 685.292 357.335 685.292 Q351.525 685.292 348.446 680.709 Q345.39 676.102 345.39 667.376 Q345.39 658.626 348.446 654.042 Q351.525 649.436 357.335 649.436 Z" fill="#8f9191" fill-rule="nonzero" fill-opacity="1" /><path clip-path="url(#clip100)" d="M313.701 360.031 Q310.09 360.031 308.261 363.595 Q306.455 367.137 306.455 374.267 Q306.455 381.373 308.261 384.938 Q310.09 388.48 313.701 388.48 Q317.335 388.48 319.14 384.938 Q320.969 381.373 320.969 374.267 Q320.969 367.137 319.14 363.595 Q317.335 360.031 313.701 360.031 M313.701 356.327 Q319.511 356.327 322.566 360.933 Q325.645 365.517 325.645 374.267 Q325.645 382.994 322.566 387.6 Q319.511 392.183 313.701 392.183 Q307.891 392.183 304.812 387.6 Q301.756 382.994 301.756 374.267 Q301.756 365.517 304.812 360.933 Q307.891 356.327 313.701 356.327 Z" fill="#8f9191" fill-rule="nonzero" fill-opacity="1" /><path clip-path="url(#clip100)" d="M333.863 385.632 L338.747 385.632 L338.747 391.512 L333.863 391.512 L333.863 385.632 Z" fill="#8f9191" fill-rule="nonzero" fill-opacity="1" /><path clip-path="url(#clip100)" d="M352.96 387.577 L369.279 387.577 L369.279 391.512 L347.335 391.512 L347.335 387.577 Q349.997 384.822 354.58 380.193 Q359.187 375.54 360.367 374.197 Q362.612 371.674 363.492 369.938 Q364.395 368.179 364.395 366.489 Q364.395 363.734 362.45 361.998 Q360.529 360.262 357.427 360.262 Q355.228 360.262 352.775 361.026 Q350.344 361.79 347.566 363.341 L347.566 358.619 Q350.39 357.484 352.844 356.906 Q355.298 356.327 357.335 356.327 Q362.705 356.327 365.899 359.012 Q369.094 361.697 369.094 366.188 Q369.094 368.318 368.284 370.239 Q367.497 372.137 365.39 374.73 Q364.812 375.401 361.71 378.619 Q358.608 381.813 352.96 387.577 Z" fill="#8f9191" fill-rule="nonzero" fill-opacity="1" /><path clip-path="url(#clip100)" d="M311.617 66.9219 Q308.006 66.9219 306.178 70.4867 Q304.372 74.0283 304.372 81.1579 Q304.372 88.2643 306.178 91.8291 Q308.006 95.3708 311.617 95.3708 Q315.252 95.3708 317.057 91.8291 Q318.886 88.2643 318.886 81.1579 Q318.886 74.0283 317.057 70.4867 Q315.252 66.9219 311.617 66.9219 M311.617 63.2182 Q317.428 63.2182 320.483 67.8246 Q323.562 72.4079 323.562 81.1579 Q323.562 89.8847 320.483 94.4912 Q317.428 99.0745 311.617 99.0745 Q305.807 99.0745 302.729 94.4912 Q299.673 89.8847 299.673 81.1579 Q299.673 72.4079 302.729 67.8246 Q305.807 63.2182 311.617 63.2182 Z" fill="#8f9191" fill-rule="nonzero" fill-opacity="1" /><path clip-path="url(#clip100)" d="M331.779 92.5236 L336.664 92.5236 L336.664 98.4032 L331.779 98.4032 L331.779 92.5236 Z" fill="#8f9191" fill-rule="nonzero" fill-opacity="1" /><path clip-path="url(#clip100)" d="M359.696 67.9172 L347.89 86.3662 L359.696 86.3662 L359.696 67.9172 M358.469 63.8432 L364.349 63.8432 L364.349 86.3662 L369.279 86.3662 L369.279 90.2551 L364.349 90.2551 L364.349 98.4032 L359.696 98.4032 L359.696 90.2551 L344.094 90.2551 L344.094 85.7412 L358.469 63.8432 Z" fill="#8f9191" fill-rule="nonzero" fill-opacity="1" /><path clip-path="url(#clip100)" d="M177.091 633.584 Q177.091 634.035 176.801 635.098 L170.488 660.283 Q169.103 665.886 164.595 669.816 Q160.118 673.745 155.03 673.745 Q151.97 673.745 150.005 672.102 Q148.041 670.492 148.041 668.012 Q148.041 665.822 149.2 664.759 Q150.36 663.729 151.745 663.729 Q152.195 663.729 152.678 663.857 Q153.162 663.986 153.677 664.534 Q154.192 665.081 154.192 666.015 Q154.192 667.529 152.872 668.721 Q152.228 669.268 151.616 669.397 Q151.036 669.526 150.038 669.526 Q150.424 670.427 151.133 671.039 Q151.841 671.651 152.646 671.877 Q153.451 672.134 153.967 672.199 Q154.514 672.295 155.03 672.295 Q159.152 672.295 162.308 668.141 Q163.242 666.885 163.918 665.629 Q164.627 664.405 165.142 662.891 Q165.657 661.41 165.883 660.605 Q166.141 659.8 166.591 657.964 Q163.596 660.959 159.925 660.959 Q158.379 660.959 156.994 660.54 Q155.641 660.122 154.45 659.252 Q153.258 658.35 152.55 656.772 Q151.873 655.194 151.873 653.101 Q151.873 650.879 152.743 647.851 Q153.612 644.824 155.706 639.252 Q156.833 636.128 156.833 634.615 Q156.833 633.874 156.672 633.423 Q156.511 632.94 156.189 632.779 Q155.867 632.586 155.674 632.553 Q155.513 632.521 155.191 632.521 Q153.29 632.521 151.519 634.454 Q149.748 636.386 148.524 640.701 Q148.266 641.507 148.105 641.7 Q147.944 641.893 147.461 641.893 Q146.656 641.861 146.656 641.217 Q146.656 640.959 146.946 639.961 Q147.236 638.93 147.912 637.416 Q148.621 635.871 149.587 634.486 Q150.553 633.069 152.067 632.07 Q153.612 631.072 155.384 631.072 Q157.799 631.072 159.281 632.65 Q160.794 634.196 160.794 636.482 Q160.794 637.416 160.537 638.254 Q160.311 639.059 159.474 641.217 Q156.092 649.912 156.092 654.163 Q156.092 655.194 156.253 656.064 Q156.447 656.901 156.865 657.738 Q157.284 658.543 158.121 659.027 Q158.991 659.477 160.182 659.477 Q161.696 659.477 163.113 658.769 Q164.562 658.028 165.464 657.03 Q166.398 656.031 166.946 655.194 Q167.525 654.325 167.654 653.874 L170.617 642.022 L171.938 636.74 Q172.549 633.874 172.839 633.165 Q173.226 632.489 173.902 632.135 Q174.578 631.78 175.158 631.78 Q175.963 631.78 176.511 632.264 Q177.091 632.747 177.091 633.584 Z" fill="#8f9191" fill-rule="nonzero" fill-opacity="1" /><polyline clip-path="url(#clip102)" style="stroke:#6496c8; stroke-linecap:round; stroke-linejoin:round; stroke-width:4; stroke-opacity:1; fill:none" points="1908.79,667.341 1908.21,667.341 1906.47,667.341 1903.58,667.341 1899.54,667.341 1894.35,667.34 1888.03,667.34 1880.58,667.338 1872.02,667.334 1862.36,667.328 1851.61,667.317 1839.79,667.299 1826.93,667.272 1813.03,667.233 1798.13,667.177 1782.24,667.101 1765.4,667.001 1747.62,666.87 1728.94,666.704 1709.39,666.498 1688.99,666.247 1667.78,665.945 1645.79,665.59 1623.06,665.177 1599.63,664.706 1575.52,664.174 1550.78,663.584 1525.45,662.938 1499.57,662.24 1473.18,661.498 1446.31,660.72 1419.02,659.917 1391.34,659.103 1363.33,658.293 1335.01,657.503 1306.45,656.752 1277.68,656.059 1248.75,655.445 1219.7,654.93 1190.59,654.534 1161.45,654.277 1132.33,654.178 1103.29,654.252 1074.36,654.515 1045.59,654.977 1017.02,655.646 988.709,656.527 960.692,657.62 933.016,658.92 905.724,660.418 878.86,662.101 852.465,663.951 826.582,665.945 801.252,668.056 776.514,670.254 752.408,672.505 728.971,674.773 706.242,677.02 684.255,679.204 663.046,681.287 642.648,683.228 623.094,684.989 604.413,686.533 586.637,687.827 569.792,688.841 553.906,689.55 539.004,689.934 525.109,689.979 512.243,689.675 500.427,689.022 489.679,688.024 480.016,686.692 471.454,685.045 464.005,683.106 457.683,680.905 452.496,678.477 448.454,675.862 445.562,673.103 443.825,670.247 443.245,667.341 443.825,661.512 445.562,655.679 448.454,649.837 452.496,643.984 457.683,638.118 464.005,632.24 471.454,626.351 480.016,620.459 489.679,614.57 500.427,608.696 512.243,602.85 525.109,597.051 539.004,591.317 553.906,585.672 569.792,580.14 586.637,574.748 604.413,569.525 623.094,564.501 642.648,559.705 663.046,555.169 684.255,550.921 706.242,546.991 728.971,543.405 752.408,540.189 776.514,537.364 801.252,534.95 826.582,532.963 852.465,531.413 878.86,530.31 905.724,529.656 933.016,529.453 960.692,529.695 988.709,530.374 1017.02,531.478 1045.59,532.99 1074.36,534.893 1103.29,537.163 1132.33,539.776 1161.45,542.706 1190.59,545.924 1219.7,549.402 1248.75,553.108 1277.68,557.014 1306.45,561.088 1335.01,565.302 1363.33,569.626 1391.34,574.033 1419.02,578.498 1446.31,582.995 1473.18,587.503 1499.57,591.999 1525.45,596.466 1550.78,600.886 1575.52,605.243 1599.63,609.523 1623.06,613.715 1645.79,617.806 1667.78,621.787 1688.99,625.649 1709.39,629.383 1728.94,632.983 1747.62,636.44 1765.4,639.749 1782.24,642.902 1798.13,645.892 1813.03,648.715 1826.93,651.362 1839.79,653.827 1851.61,656.105 1862.36,658.189 1872.02,660.073 1880.58,661.751 1888.03,663.217 1894.35,664.467 1899.54,665.496 1903.58,666.301 1906.47,666.878 1908.21,667.225 1908.79,667.341 "/>
</svg>
