<?xml version="1.0" encoding="utf-8"?>
<svg xmlns="http://www.w3.org/2000/svg" xmlns:xlink="http://www.w3.org/1999/xlink" width="500" height="375" viewBox="0 0 2000 1500">
<defs>
  <clipPath id="clip440">
    <rect x="0" y="0" width="2000" height="1500"/>
  </clipPath>
</defs>
<defs>
  <clipPath id="clip441">
    <rect x="400" y="0" width="1401" height="1401"/>
  </clipPath>
</defs>
<defs>
  <clipPath id="clip442">
    <rect x="399" y="47" width="1554" height="1126"/>
  </clipPath>
</defs>
<polyline clip-path="url(#clip440)" style="stroke:#8f9191; stroke-linecap:round; stroke-linejoin:round; stroke-width:4; stroke-opacity:1; fill:none" points="399.279,1172.19 1952.76,1172.19 "/>
<polyline clip-path="url(#clip440)" style="stroke:#8f9191; stroke-linecap:round; stroke-linejoin:round; stroke-width:4; stroke-opacity:1; fill:none" points="443.562,1172.19 443.562,1153.29 "/>
<polyline clip-path="url(#clip440)" style="stroke:#8f9191; stroke-linecap:round; stroke-linejoin:round; stroke-width:4; stroke-opacity:1; fill:none" points="809.869,1172.19 809.869,1153.29 "/>
<polyline clip-path="url(#clip440)" style="stroke:#8f9191; stroke-linecap:round; stroke-linejoin:round; stroke-width:4; stroke-opacity:1; fill:none" points="1176.18,1172.19 1176.18,1153.29 "/>
<polyline clip-path="url(#clip440)" style="stroke:#8f9191; stroke-linecap:round; stroke-linejoin:round; stroke-width:4; stroke-opacity:1; fill:none" points="1542.48,1172.19 1542.48,1153.29 "/>
<polyline clip-path="url(#clip440)" style="stroke:#8f9191; stroke-linecap:round; stroke-linejoin:round; stroke-width:4; stroke-opacity:1; fill:none" points="1908.79,1172.19 1908.79,1153.29 "/>
<path clip-path="url(#clip440)" d="M405.865 1199.91 Q402.254 1199.91 400.426 1203.47 Q398.62 1207.01 398.62 1214.14 Q398.62 1221.25 400.426 1224.81 Q402.254 1228.36 405.865 1228.36 Q409.5 1228.36 411.305 1224.81 Q413.134 1221.25 413.134 1214.14 Q413.134 1207.01 411.305 1203.47 Q409.5 1199.91 405.865 1199.91 M405.865 1196.2 Q411.675 1196.2 414.731 1200.81 Q417.81 1205.39 417.81 1214.14 Q417.81 1222.87 414.731 1227.48 Q411.675 1232.06 405.865 1232.06 Q400.055 1232.06 396.976 1227.48 Q393.921 1222.87 393.921 1214.14 Q393.921 1205.39 396.976 1200.81 Q400.055 1196.2 405.865 1196.2 Z" fill="#8f9191" fill-rule="nonzero" fill-opacity="1" /><path clip-path="url(#clip440)" d="M426.027 1225.51 L430.911 1225.51 L430.911 1231.39 L426.027 1231.39 L426.027 1225.51 Z" fill="#8f9191" fill-rule="nonzero" fill-opacity="1" /><path clip-path="url(#clip440)" d="M451.097 1199.91 Q447.485 1199.91 445.657 1203.47 Q443.851 1207.01 443.851 1214.14 Q443.851 1221.25 445.657 1224.81 Q447.485 1228.36 451.097 1228.36 Q454.731 1228.36 456.536 1224.81 Q458.365 1221.25 458.365 1214.14 Q458.365 1207.01 456.536 1203.47 Q454.731 1199.91 451.097 1199.91 M451.097 1196.2 Q456.907 1196.2 459.962 1200.81 Q463.041 1205.39 463.041 1214.14 Q463.041 1222.87 459.962 1227.48 Q456.907 1232.06 451.097 1232.06 Q445.286 1232.06 442.208 1227.48 Q439.152 1222.87 439.152 1214.14 Q439.152 1205.39 442.208 1200.81 Q445.286 1196.2 451.097 1196.2 Z" fill="#8f9191" fill-rule="nonzero" fill-opacity="1" /><path clip-path="url(#clip440)" d="M481.258 1199.91 Q477.647 1199.91 475.819 1203.47 Q474.013 1207.01 474.013 1214.14 Q474.013 1221.25 475.819 1224.81 Q477.647 1228.36 481.258 1228.36 Q484.893 1228.36 486.698 1224.81 Q488.527 1221.25 488.527 1214.14 Q488.527 1207.01 486.698 1203.47 Q484.893 1199.91 481.258 1199.91 M481.258 1196.2 Q487.069 1196.2 490.124 1200.81 Q493.203 1205.39 493.203 1214.14 Q493.203 1222.87 490.124 1227.48 Q487.069 1232.06 481.258 1232.06 Q475.448 1232.06 472.37 1227.48 Q469.314 1222.87 469.314 1214.14 Q469.314 1205.39 472.37 1200.81 Q475.448 1196.2 481.258 1196.2 Z" fill="#8f9191" fill-rule="nonzero" fill-opacity="1" /><path clip-path="url(#clip440)" d="M772.67 1199.91 Q769.059 1199.91 767.23 1203.47 Q765.425 1207.01 765.425 1214.14 Q765.425 1221.25 767.23 1224.81 Q769.059 1228.36 772.67 1228.36 Q776.304 1228.36 778.11 1224.81 Q779.938 1221.25 779.938 1214.14 Q779.938 1207.01 778.11 1203.47 Q776.304 1199.91 772.67 1199.91 M772.67 1196.2 Q778.48 1196.2 781.536 1200.81 Q784.614 1205.39 784.614 1214.14 Q784.614 1222.87 781.536 1227.48 Q778.48 1232.06 772.67 1232.06 Q766.86 1232.06 763.781 1227.48 Q760.726 1222.87 760.726 1214.14 Q760.726 1205.39 763.781 1200.81 Q766.86 1196.2 772.67 1196.2 Z" fill="#8f9191" fill-rule="nonzero" fill-opacity="1" /><path clip-path="url(#clip440)" d="M792.832 1225.51 L797.716 1225.51 L797.716 1231.39 L792.832 1231.39 L792.832 1225.51 Z" fill="#8f9191" fill-rule="nonzero" fill-opacity="1" /><path clip-path="url(#clip440)" d="M811.929 1227.45 L828.248 1227.45 L828.248 1231.39 L806.304 1231.39 L806.304 1227.45 Q808.966 1224.7 813.549 1220.07 Q818.156 1215.42 819.336 1214.07 Q821.582 1211.55 822.461 1209.81 Q823.364 1208.05 823.364 1206.36 Q823.364 1203.61 821.42 1201.87 Q819.498 1200.14 816.397 1200.14 Q814.197 1200.14 811.744 1200.9 Q809.313 1201.67 806.535 1203.22 L806.535 1198.49 Q809.36 1197.36 811.813 1196.78 Q814.267 1196.2 816.304 1196.2 Q821.674 1196.2 824.869 1198.89 Q828.063 1201.57 828.063 1206.06 Q828.063 1208.19 827.253 1210.11 Q826.466 1212.01 824.359 1214.61 Q823.781 1215.28 820.679 1218.49 Q817.577 1221.69 811.929 1227.45 Z" fill="#8f9191" fill-rule="nonzero" fill-opacity="1" /><path clip-path="url(#clip440)" d="M838.109 1196.83 L856.466 1196.83 L856.466 1200.76 L842.392 1200.76 L842.392 1209.23 Q843.41 1208.89 844.429 1208.73 Q845.447 1208.54 846.466 1208.54 Q852.253 1208.54 855.632 1211.71 Q859.012 1214.88 859.012 1220.3 Q859.012 1225.88 855.54 1228.98 Q852.068 1232.06 845.748 1232.06 Q843.572 1232.06 841.304 1231.69 Q839.058 1231.32 836.651 1230.58 L836.651 1225.88 Q838.734 1227.01 840.957 1227.57 Q843.179 1228.12 845.656 1228.12 Q849.66 1228.12 851.998 1226.02 Q854.336 1223.91 854.336 1220.3 Q854.336 1216.69 851.998 1214.58 Q849.66 1212.48 845.656 1212.48 Q843.781 1212.48 841.906 1212.89 Q840.054 1213.31 838.109 1214.19 L838.109 1196.83 Z" fill="#8f9191" fill-rule="nonzero" fill-opacity="1" /><path clip-path="url(#clip440)" d="M1138.48 1199.91 Q1134.87 1199.91 1133.04 1203.47 Q1131.23 1207.01 1131.23 1214.14 Q1131.23 1221.25 1133.04 1224.81 Q1134.87 1228.36 1138.48 1228.36 Q1142.11 1228.36 1143.92 1224.81 Q1145.75 1221.25 1145.75 1214.14 Q1145.75 1207.01 1143.92 1203.47 Q1142.11 1199.91 1138.48 1199.91 M1138.48 1196.2 Q1144.29 1196.2 1147.34 1200.81 Q1150.42 1205.39 1150.42 1214.14 Q1150.42 1222.87 1147.34 1227.48 Q1144.29 1232.06 1138.48 1232.06 Q1132.67 1232.06 1129.59 1227.48 Q1126.53 1222.87 1126.53 1214.14 Q1126.53 1205.39 1129.59 1200.81 Q1132.67 1196.2 1138.48 1196.2 Z" fill="#8f9191" fill-rule="nonzero" fill-opacity="1" /><path clip-path="url(#clip440)" d="M1158.64 1225.51 L1163.53 1225.51 L1163.53 1231.39 L1158.64 1231.39 L1158.64 1225.51 Z" fill="#8f9191" fill-rule="nonzero" fill-opacity="1" /><path clip-path="url(#clip440)" d="M1173.76 1196.83 L1192.11 1196.83 L1192.11 1200.76 L1178.04 1200.76 L1178.04 1209.23 Q1179.06 1208.89 1180.08 1208.73 Q1181.09 1208.54 1182.11 1208.54 Q1187.9 1208.54 1191.28 1211.71 Q1194.66 1214.88 1194.66 1220.3 Q1194.66 1225.88 1191.19 1228.98 Q1187.72 1232.06 1181.4 1232.06 Q1179.22 1232.06 1176.95 1231.69 Q1174.71 1231.32 1172.3 1230.58 L1172.3 1225.88 Q1174.38 1227.01 1176.6 1227.57 Q1178.83 1228.12 1181.3 1228.12 Q1185.31 1228.12 1187.65 1226.02 Q1189.98 1223.91 1189.98 1220.3 Q1189.98 1216.69 1187.65 1214.58 Q1185.31 1212.48 1181.3 1212.48 Q1179.43 1212.48 1177.55 1212.89 Q1175.7 1213.31 1173.76 1214.19 L1173.76 1196.83 Z" fill="#8f9191" fill-rule="nonzero" fill-opacity="1" /><path clip-path="url(#clip440)" d="M1213.87 1199.91 Q1210.26 1199.91 1208.43 1203.47 Q1206.63 1207.01 1206.63 1214.14 Q1206.63 1221.25 1208.43 1224.81 Q1210.26 1228.36 1213.87 1228.36 Q1217.51 1228.36 1219.31 1224.81 Q1221.14 1221.25 1221.14 1214.14 Q1221.14 1207.01 1219.31 1203.47 Q1217.51 1199.91 1213.87 1199.91 M1213.87 1196.2 Q1219.68 1196.2 1222.74 1200.81 Q1225.82 1205.39 1225.82 1214.14 Q1225.82 1222.87 1222.74 1227.48 Q1219.68 1232.06 1213.87 1232.06 Q1208.06 1232.06 1204.98 1227.48 Q1201.93 1222.87 1201.93 1214.14 Q1201.93 1205.39 1204.98 1200.81 Q1208.06 1196.2 1213.87 1196.2 Z" fill="#8f9191" fill-rule="nonzero" fill-opacity="1" /><path clip-path="url(#clip440)" d="M1505.28 1199.91 Q1501.67 1199.91 1499.84 1203.47 Q1498.04 1207.01 1498.04 1214.14 Q1498.04 1221.25 1499.84 1224.81 Q1501.67 1228.36 1505.28 1228.36 Q1508.92 1228.36 1510.72 1224.81 Q1512.55 1221.25 1512.55 1214.14 Q1512.55 1207.01 1510.72 1203.47 Q1508.92 1199.91 1505.28 1199.91 M1505.28 1196.2 Q1511.09 1196.2 1514.15 1200.81 Q1517.23 1205.39 1517.23 1214.14 Q1517.23 1222.87 1514.15 1227.48 Q1511.09 1232.06 1505.28 1232.06 Q1499.47 1232.06 1496.39 1227.48 Q1493.34 1222.87 1493.34 1214.14 Q1493.34 1205.39 1496.39 1200.81 Q1499.47 1196.2 1505.28 1196.2 Z" fill="#8f9191" fill-rule="nonzero" fill-opacity="1" /><path clip-path="url(#clip440)" d="M1525.45 1225.51 L1530.33 1225.51 L1530.33 1231.39 L1525.45 1231.39 L1525.45 1225.51 Z" fill="#8f9191" fill-rule="nonzero" fill-opacity="1" /><path clip-path="url(#clip440)" d="M1539.33 1196.83 L1561.56 1196.83 L1561.56 1198.82 L1549.01 1231.39 L1544.13 1231.39 L1555.93 1200.76 L1539.33 1200.76 L1539.33 1196.83 Z" fill="#8f9191" fill-rule="nonzero" fill-opacity="1" /><path clip-path="url(#clip440)" d="M1570.72 1196.83 L1589.08 1196.83 L1589.08 1200.76 L1575.01 1200.76 L1575.01 1209.23 Q1576.02 1208.89 1577.04 1208.73 Q1578.06 1208.54 1579.08 1208.54 Q1584.87 1208.54 1588.25 1211.71 Q1591.63 1214.88 1591.63 1220.3 Q1591.63 1225.88 1588.15 1228.98 Q1584.68 1232.06 1578.36 1232.06 Q1576.19 1232.06 1573.92 1231.69 Q1571.67 1231.32 1569.26 1230.58 L1569.26 1225.88 Q1571.35 1227.01 1573.57 1227.57 Q1575.79 1228.12 1578.27 1228.12 Q1582.27 1228.12 1584.61 1226.02 Q1586.95 1223.91 1586.95 1220.3 Q1586.95 1216.69 1584.61 1214.58 Q1582.27 1212.48 1578.27 1212.48 Q1576.39 1212.48 1574.52 1212.89 Q1572.67 1213.31 1570.72 1214.19 L1570.72 1196.83 Z" fill="#8f9191" fill-rule="nonzero" fill-opacity="1" /><path clip-path="url(#clip440)" d="M1860.86 1227.45 L1868.5 1227.45 L1868.5 1201.09 L1860.19 1202.75 L1860.19 1198.49 L1868.45 1196.83 L1873.13 1196.83 L1873.13 1227.45 L1880.77 1227.45 L1880.77 1231.39 L1860.86 1231.39 L1860.86 1227.45 Z" fill="#8f9191" fill-rule="nonzero" fill-opacity="1" /><path clip-path="url(#clip440)" d="M1890.21 1225.51 L1895.1 1225.51 L1895.1 1231.39 L1890.21 1231.39 L1890.21 1225.51 Z" fill="#8f9191" fill-rule="nonzero" fill-opacity="1" /><path clip-path="url(#clip440)" d="M1915.28 1199.91 Q1911.67 1199.91 1909.84 1203.47 Q1908.04 1207.01 1908.04 1214.14 Q1908.04 1221.25 1909.84 1224.81 Q1911.67 1228.36 1915.28 1228.36 Q1918.92 1228.36 1920.72 1224.81 Q1922.55 1221.25 1922.55 1214.14 Q1922.55 1207.01 1920.72 1203.47 Q1918.92 1199.91 1915.28 1199.91 M1915.28 1196.2 Q1921.09 1196.2 1924.15 1200.81 Q1927.23 1205.39 1927.23 1214.14 Q1927.23 1222.87 1924.15 1227.48 Q1921.09 1232.06 1915.28 1232.06 Q1909.47 1232.06 1906.39 1227.48 Q1903.34 1222.87 1903.34 1214.14 Q1903.34 1205.39 1906.39 1200.81 Q1909.47 1196.2 1915.28 1196.2 Z" fill="#8f9191" fill-rule="nonzero" fill-opacity="1" /><path clip-path="url(#clip440)" d="M1945.44 1199.91 Q1941.83 1199.91 1940 1203.47 Q1938.2 1207.01 1938.2 1214.14 Q1938.2 1221.25 1940 1224.81 Q1941.83 1228.36 1945.44 1228.36 Q1949.08 1228.36 1950.88 1224.81 Q1952.71 1221.25 1952.71 1214.14 Q1952.71 1207.01 1950.88 1203.47 Q1949.08 1199.91 1945.44 1199.91 M1945.44 1196.2 Q1951.25 1196.2 1954.31 1200.81 Q1957.39 1205.39 1957.39 1214.14 Q1957.39 1222.87 1954.31 1227.48 Q1951.25 1232.06 1945.44 1232.06 Q1939.63 1232.06 1936.56 1227.48 Q1933.5 1222.87 1933.5 1214.14 Q1933.5 1205.39 1936.56 1200.81 Q1939.63 1196.2 1945.44 1196.2 Z" fill="#8f9191" fill-rule="nonzero" fill-opacity="1" /><path clip-path="url(#clip440)" d="M1190.19 1271.81 Q1190.19 1273.61 1189.06 1274.64 Q1187.94 1275.64 1186.65 1275.64 Q1185.43 1275.64 1184.78 1274.93 Q1184.14 1274.23 1184.14 1273.32 Q1184.14 1272.1 1185.04 1271.04 Q1185.94 1269.97 1187.29 1269.75 Q1185.97 1268.91 1184.01 1268.91 Q1182.72 1268.91 1181.59 1269.59 Q1180.5 1270.26 1179.82 1271.13 Q1179.18 1272 1178.6 1273.26 Q1178.05 1274.48 1177.82 1275.22 Q1177.63 1275.93 1177.47 1276.71 L1175.22 1285.72 Q1174.12 1290.01 1174.12 1291.52 Q1174.12 1293.39 1175.02 1294.64 Q1175.92 1295.87 1177.73 1295.87 Q1178.44 1295.87 1179.24 1295.67 Q1180.05 1295.45 1181.08 1294.87 Q1182.14 1294.26 1183.07 1293.36 Q1184.04 1292.42 1184.97 1290.84 Q1185.91 1289.27 1186.52 1287.24 Q1186.71 1286.53 1187.36 1286.53 Q1188.16 1286.53 1188.16 1287.17 Q1188.16 1287.72 1187.71 1288.88 Q1187.29 1290.01 1186.36 1291.49 Q1185.46 1292.94 1184.27 1294.26 Q1183.07 1295.55 1181.3 1296.45 Q1179.53 1297.35 1177.6 1297.35 Q1174.83 1297.35 1172.99 1295.87 Q1171.16 1294.39 1170.48 1292.33 Q1170.32 1292.62 1170.1 1293 Q1169.87 1293.39 1169.19 1294.26 Q1168.55 1295.09 1167.81 1295.74 Q1167.07 1296.35 1165.91 1296.83 Q1164.78 1297.35 1163.56 1297.35 Q1162.01 1297.35 1160.63 1296.9 Q1159.27 1296.45 1158.31 1295.42 Q1157.34 1294.39 1157.34 1292.97 Q1157.34 1291.39 1158.4 1290.3 Q1159.5 1289.17 1160.98 1289.17 Q1161.91 1289.17 1162.66 1289.72 Q1163.43 1290.26 1163.43 1291.46 Q1163.43 1292.78 1162.53 1293.77 Q1161.63 1294.77 1160.34 1295.03 Q1161.66 1295.87 1163.62 1295.87 Q1165.75 1295.87 1167.42 1294 Q1169.1 1292.13 1169.9 1289.01 Q1171.9 1281.5 1172.67 1278.15 Q1173.44 1274.77 1173.44 1273.32 Q1173.44 1271.97 1173.09 1271.04 Q1172.74 1270.1 1172.12 1269.68 Q1171.54 1269.23 1171 1269.07 Q1170.48 1268.91 1169.9 1268.91 Q1168.94 1268.91 1167.84 1269.3 Q1166.78 1269.68 1165.49 1270.59 Q1164.23 1271.46 1163.04 1273.26 Q1161.85 1275.06 1161.05 1277.54 Q1160.88 1278.28 1160.18 1278.28 Q1159.4 1278.25 1159.4 1277.61 Q1159.4 1277.06 1159.82 1275.93 Q1160.27 1274.77 1161.17 1273.32 Q1162.11 1271.87 1163.3 1270.59 Q1164.52 1269.27 1166.29 1268.36 Q1168.1 1267.46 1170.03 1267.46 Q1170.9 1267.46 1171.74 1267.66 Q1172.61 1267.82 1173.64 1268.3 Q1174.7 1268.78 1175.63 1269.85 Q1176.57 1270.91 1177.15 1272.45 Q1177.53 1271.71 1178.05 1271 Q1178.6 1270.3 1179.43 1269.43 Q1180.3 1268.53 1181.5 1268.01 Q1182.72 1267.46 1184.07 1267.46 Q1185.39 1267.46 1186.68 1267.82 Q1187.97 1268.14 1189.06 1269.2 Q1190.19 1270.23 1190.19 1271.81 Z" fill="#8f9191" fill-rule="nonzero" fill-opacity="1" /><polyline clip-path="url(#clip440)" style="stroke:#8f9191; stroke-linecap:round; stroke-linejoin:round; stroke-width:4; stroke-opacity:1; fill:none" points="399.279,1172.19 399.279,47.2441 "/>
<polyline clip-path="url(#clip440)" style="stroke:#8f9191; stroke-linecap:round; stroke-linejoin:round; stroke-width:4; stroke-opacity:1; fill:none" points="399.279,931.042 418.177,931.042 "/>
<polyline clip-path="url(#clip440)" style="stroke:#8f9191; stroke-linecap:round; stroke-linejoin:round; stroke-width:4; stroke-opacity:1; fill:none" points="399.279,637.996 418.177,637.996 "/>
<polyline clip-path="url(#clip440)" style="stroke:#8f9191; stroke-linecap:round; stroke-linejoin:round; stroke-width:4; stroke-opacity:1; fill:none" points="399.279,344.951 418.177,344.951 "/>
<polyline clip-path="url(#clip440)" style="stroke:#8f9191; stroke-linecap:round; stroke-linejoin:round; stroke-width:4; stroke-opacity:1; fill:none" points="399.279,51.9051 418.177,51.9051 "/>
<path clip-path="url(#clip440)" d="M263.932 931.493 L293.608 931.493 L293.608 935.428 L263.932 935.428 L263.932 931.493 Z" fill="#8f9191" fill-rule="nonzero" fill-opacity="1" /><path clip-path="url(#clip440)" d="M313.701 916.84 Q310.09 916.84 308.261 920.405 Q306.455 923.947 306.455 931.076 Q306.455 938.183 308.261 941.748 Q310.09 945.289 313.701 945.289 Q317.335 945.289 319.14 941.748 Q320.969 938.183 320.969 931.076 Q320.969 923.947 319.14 920.405 Q317.335 916.84 313.701 916.84 M313.701 913.137 Q319.511 913.137 322.566 917.743 Q325.645 922.327 325.645 931.076 Q325.645 939.803 322.566 944.41 Q319.511 948.993 313.701 948.993 Q307.891 948.993 304.812 944.41 Q301.756 939.803 301.756 931.076 Q301.756 922.327 304.812 917.743 Q307.891 913.137 313.701 913.137 Z" fill="#8f9191" fill-rule="nonzero" fill-opacity="1" /><path clip-path="url(#clip440)" d="M333.863 942.442 L338.747 942.442 L338.747 948.322 L333.863 948.322 L333.863 942.442 Z" fill="#8f9191" fill-rule="nonzero" fill-opacity="1" /><path clip-path="url(#clip440)" d="M352.96 944.387 L369.279 944.387 L369.279 948.322 L347.335 948.322 L347.335 944.387 Q349.997 941.632 354.58 937.002 Q359.187 932.35 360.367 931.007 Q362.612 928.484 363.492 926.748 Q364.395 924.989 364.395 923.299 Q364.395 920.544 362.45 918.808 Q360.529 917.072 357.427 917.072 Q355.228 917.072 352.775 917.836 Q350.344 918.6 347.566 920.151 L347.566 915.428 Q350.39 914.294 352.844 913.715 Q355.298 913.137 357.335 913.137 Q362.705 913.137 365.899 915.822 Q369.094 918.507 369.094 922.998 Q369.094 925.127 368.284 927.049 Q367.497 928.947 365.39 931.539 Q364.812 932.211 361.71 935.428 Q358.608 938.623 352.96 944.387 Z" fill="#8f9191" fill-rule="nonzero" fill-opacity="1" /><path clip-path="url(#clip440)" d="M312.103 623.795 Q308.492 623.795 306.664 627.36 Q304.858 630.901 304.858 638.031 Q304.858 645.137 306.664 648.702 Q308.492 652.244 312.103 652.244 Q315.738 652.244 317.543 648.702 Q319.372 645.137 319.372 638.031 Q319.372 630.901 317.543 627.36 Q315.738 623.795 312.103 623.795 M312.103 620.091 Q317.914 620.091 320.969 624.698 Q324.048 629.281 324.048 638.031 Q324.048 646.758 320.969 651.364 Q317.914 655.948 312.103 655.948 Q306.293 655.948 303.215 651.364 Q300.159 646.758 300.159 638.031 Q300.159 629.281 303.215 624.698 Q306.293 620.091 312.103 620.091 Z" fill="#8f9191" fill-rule="nonzero" fill-opacity="1" /><path clip-path="url(#clip440)" d="M332.265 649.397 L337.15 649.397 L337.15 655.276 L332.265 655.276 L332.265 649.397 Z" fill="#8f9191" fill-rule="nonzero" fill-opacity="1" /><path clip-path="url(#clip440)" d="M357.335 623.795 Q353.724 623.795 351.895 627.36 Q350.089 630.901 350.089 638.031 Q350.089 645.137 351.895 648.702 Q353.724 652.244 357.335 652.244 Q360.969 652.244 362.775 648.702 Q364.603 645.137 364.603 638.031 Q364.603 630.901 362.775 627.36 Q360.969 623.795 357.335 623.795 M357.335 620.091 Q363.145 620.091 366.2 624.698 Q369.279 629.281 369.279 638.031 Q369.279 646.758 366.2 651.364 Q363.145 655.948 357.335 655.948 Q351.525 655.948 348.446 651.364 Q345.39 646.758 345.39 638.031 Q345.39 629.281 348.446 624.698 Q351.525 620.091 357.335 620.091 Z" fill="#8f9191" fill-rule="nonzero" fill-opacity="1" /><path clip-path="url(#clip440)" d="M313.701 330.749 Q310.09 330.749 308.261 334.314 Q306.455 337.856 306.455 344.985 Q306.455 352.092 308.261 355.657 Q310.09 359.198 313.701 359.198 Q317.335 359.198 319.14 355.657 Q320.969 352.092 320.969 344.985 Q320.969 337.856 319.14 334.314 Q317.335 330.749 313.701 330.749 M313.701 327.046 Q319.511 327.046 322.566 331.652 Q325.645 336.235 325.645 344.985 Q325.645 353.712 322.566 358.319 Q319.511 362.902 313.701 362.902 Q307.891 362.902 304.812 358.319 Q301.756 353.712 301.756 344.985 Q301.756 336.235 304.812 331.652 Q307.891 327.046 313.701 327.046 Z" fill="#8f9191" fill-rule="nonzero" fill-opacity="1" /><path clip-path="url(#clip440)" d="M333.863 356.351 L338.747 356.351 L338.747 362.231 L333.863 362.231 L333.863 356.351 Z" fill="#8f9191" fill-rule="nonzero" fill-opacity="1" /><path clip-path="url(#clip440)" d="M352.96 358.296 L369.279 358.296 L369.279 362.231 L347.335 362.231 L347.335 358.296 Q349.997 355.541 354.58 350.911 Q359.187 346.259 360.367 344.916 Q362.612 342.393 363.492 340.657 Q364.395 338.897 364.395 337.208 Q364.395 334.453 362.45 332.717 Q360.529 330.981 357.427 330.981 Q355.228 330.981 352.775 331.745 Q350.344 332.509 347.566 334.06 L347.566 329.337 Q350.39 328.203 352.844 327.624 Q355.298 327.046 357.335 327.046 Q362.705 327.046 365.899 329.731 Q369.094 332.416 369.094 336.907 Q369.094 339.036 368.284 340.958 Q367.497 342.856 365.39 345.448 Q364.812 346.12 361.71 349.337 Q358.608 352.532 352.96 358.296 Z" fill="#8f9191" fill-rule="nonzero" fill-opacity="1" /><path clip-path="url(#clip440)" d="M311.617 37.7038 Q308.006 37.7038 306.178 41.2686 Q304.372 44.8103 304.372 51.9399 Q304.372 59.0463 306.178 62.6111 Q308.006 66.1527 311.617 66.1527 Q315.252 66.1527 317.057 62.6111 Q318.886 59.0463 318.886 51.9399 Q318.886 44.8103 317.057 41.2686 Q315.252 37.7038 311.617 37.7038 M311.617 34.0001 Q317.428 34.0001 320.483 38.6066 Q323.562 43.1899 323.562 51.9399 Q323.562 60.6667 320.483 65.2731 Q317.428 69.8564 311.617 69.8564 Q305.807 69.8564 302.729 65.2731 Q299.673 60.6667 299.673 51.9399 Q299.673 43.1899 302.729 38.6066 Q305.807 34.0001 311.617 34.0001 Z" fill="#8f9191" fill-rule="nonzero" fill-opacity="1" /><path clip-path="url(#clip440)" d="M331.779 63.3055 L336.664 63.3055 L336.664 69.1851 L331.779 69.1851 L331.779 63.3055 Z" fill="#8f9191" fill-rule="nonzero" fill-opacity="1" /><path clip-path="url(#clip440)" d="M359.696 38.6992 L347.89 57.1482 L359.696 57.1482 L359.696 38.6992 M358.469 34.6251 L364.349 34.6251 L364.349 57.1482 L369.279 57.1482 L369.279 61.037 L364.349 61.037 L364.349 69.1851 L359.696 69.1851 L359.696 61.037 L344.094 61.037 L344.094 56.5232 L358.469 34.6251 Z" fill="#8f9191" fill-rule="nonzero" fill-opacity="1" /><path clip-path="url(#clip440)" d="M177.091 633.584 Q177.091 634.035 176.801 635.098 L170.488 660.283 Q169.103 665.886 164.595 669.816 Q160.118 673.745 155.03 673.745 Q151.97 673.745 150.005 672.102 Q148.041 670.492 148.041 668.012 Q148.041 665.822 149.2 664.759 Q150.36 663.729 151.745 663.729 Q152.195 663.729 152.678 663.857 Q153.162 663.986 153.677 664.534 Q154.192 665.081 154.192 666.015 Q154.192 667.529 152.872 668.721 Q152.228 669.268 151.616 669.397 Q151.036 669.526 150.038 669.526 Q150.424 670.427 151.133 671.039 Q151.841 671.651 152.646 671.877 Q153.451 672.134 153.967 672.199 Q154.514 672.295 155.03 672.295 Q159.152 672.295 162.308 668.141 Q163.242 666.885 163.918 665.629 Q164.627 664.405 165.142 662.891 Q165.657 661.41 165.883 660.605 Q166.141 659.8 166.591 657.964 Q163.596 660.959 159.925 660.959 Q158.379 660.959 156.994 660.54 Q155.641 660.122 154.45 659.252 Q153.258 658.35 152.55 656.772 Q151.873 655.194 151.873 653.101 Q151.873 650.879 152.743 647.851 Q153.612 644.824 155.706 639.252 Q156.833 636.128 156.833 634.615 Q156.833 633.874 156.672 633.423 Q156.511 632.94 156.189 632.779 Q155.867 632.586 155.674 632.553 Q155.513 632.521 155.191 632.521 Q153.29 632.521 151.519 634.454 Q149.748 636.386 148.524 640.701 Q148.266 641.507 148.105 641.7 Q147.944 641.893 147.461 641.893 Q146.656 641.861 146.656 641.217 Q146.656 640.959 146.946 639.961 Q147.236 638.93 147.912 637.416 Q148.621 635.871 149.587 634.486 Q150.553 633.069 152.067 632.07 Q153.612 631.072 155.384 631.072 Q157.799 631.072 159.281 632.65 Q160.794 634.196 160.794 636.482 Q160.794 637.416 160.537 638.254 Q160.311 639.059 159.474 641.217 Q156.092 649.912 156.092 654.163 Q156.092 655.194 156.253 656.064 Q156.447 656.901 156.865 657.738 Q157.284 658.543 158.121 659.027 Q158.991 659.477 160.182 659.477 Q161.696 659.477 163.113 658.769 Q164.562 658.028 165.464 657.03 Q166.398 656.031 166.946 655.194 Q167.525 654.325 167.654 653.874 L170.617 642.022 L171.938 636.74 Q172.549 633.874 172.839 633.165 Q173.226 632.489 173.902 632.135 Q174.578 631.78 175.158 631.78 Q175.963 631.78 176.511 632.264 Q177.091 632.747 177.091 633.584 Z" fill="#8f9191" fill-rule="nonzero" fill-opacity="1" /><polyline clip-path="url(#clip442)" style="stroke:#6496c8; stroke-linecap:round; stroke-linejoin:round; stroke-width:4; stroke-opacity:1; fill:none" points="1908.79,637.996 1908.22,638.039 1906.53,638.168 1903.71,638.382 1899.77,638.681 1894.71,639.064 1888.55,639.529 1881.28,640.075 1872.93,640.7 1863.51,641.402 1853.02,642.179 1841.49,643.029 1828.94,643.95 1815.38,644.938 1800.83,645.993 1785.32,647.11 1768.87,648.288 1751.51,649.524 1733.26,650.815 1714.15,652.159 1694.21,653.554 1673.47,654.996 1651.97,656.482 1629.73,658.011 1606.8,659.58 1583.19,661.184 1558.97,662.822 1534.15,664.489 1508.78,666.182 1482.89,667.897 1456.53,669.63 1429.75,671.375 1402.57,673.127 1375.04,674.881 1347.2,676.63 1319.1,678.368 1290.78,680.087 1262.29,681.779 1233.66,683.437 1204.94,685.052 1176.18,686.614 1147.41,688.113 1118.7,689.54 1090.07,690.885 1061.57,692.137 1033.25,693.285 1005.15,694.348 977.315,695.359 949.786,696.306 922.606,697.177 895.817,697.957 869.46,698.636 843.576,699.199 818.205,699.635 793.386,699.932 769.157,700.078 745.556,700.063 722.619,699.877 700.381,699.511 678.877,698.956 658.139,698.206 638.201,697.253 619.092,696.092 600.842,694.719 583.479,693.13 567.03,691.322 551.52,689.293 536.973,687.041 523.412,684.568 510.857,681.871 499.329,678.954 488.844,675.816 479.419,672.459 471.068,668.885 463.804,665.097 457.639,661.097 452.582,656.887 448.64,652.469 445.82,647.847 444.127,643.022 443.562,637.996 444.127,632.858 445.82,627.695 448.64,622.512 452.582,617.316 457.639,612.114 463.804,606.917 471.068,601.735 479.419,596.582 488.844,591.47 499.329,586.416 510.857,581.435 523.412,576.543 536.973,571.758 551.52,567.097 567.03,562.578 583.479,558.219 600.842,554.038 619.092,550.051 638.201,546.275 658.139,542.727 678.877,539.421 700.381,536.371 722.619,533.591 745.556,531.091 769.157,528.883 793.386,526.976 818.205,525.377 843.576,524.092 869.46,523.126 895.817,522.482 922.606,522.162 949.786,522.166 977.315,522.492 1005.15,523.138 1033.25,524.099 1061.57,525.324 1090.07,526.775 1118.7,528.444 1147.41,530.322 1176.18,532.398 1204.94,534.661 1233.66,537.102 1262.29,539.708 1290.78,542.467 1319.1,545.369 1347.2,548.4 1375.04,551.549 1402.57,554.802 1429.75,558.147 1456.53,561.572 1482.89,565.064 1508.78,568.609 1534.15,572.194 1558.97,575.807 1583.19,579.434 1606.8,583.063 1629.73,586.679 1651.97,590.269 1673.47,593.821 1694.21,597.32 1714.15,600.754 1733.26,604.11 1751.51,607.374 1768.87,610.533 1785.32,613.576 1800.83,616.489 1815.38,619.261 1828.94,621.879 1841.49,624.334 1853.02,626.613 1863.51,628.708 1872.93,630.609 1881.28,632.307 1888.55,633.796 1894.71,635.067 1899.77,636.115 1903.71,636.935 1906.53,637.524 1908.22,637.878 1908.79,637.996 "/>
<polyline clip-path="url(#clip442)" style="stroke:#c86464; stroke-linecap:round; stroke-linejoin:round; stroke-width:4; stroke-opacity:1; fill:none" points="1886.53,892.43 1885.97,892.375 1884.28,892.207 1881.46,891.929 1877.53,891.539 1872.48,891.038 1866.33,890.425 1859.08,889.701 1850.75,888.866 1841.34,887.921 1830.88,886.866 1819.38,885.701 1806.86,884.428 1793.33,883.046 1778.82,881.559 1763.35,879.966 1746.95,878.269 1729.64,876.471 1711.44,874.574 1692.39,872.579 1672.51,870.49 1651.84,868.309 1630.4,866.039 1608.24,863.684 1585.38,861.245 1561.85,858.727 1537.71,856.133 1512.98,853.465 1487.7,850.727 1461.91,847.921 1435.65,845.05 1408.97,842.117 1381.9,839.122 1354.48,836.069 1326.76,832.958 1298.79,829.79 1270.6,826.565 1242.24,823.284 1213.76,819.945 1185.2,816.549 1156.6,813.092 1128.02,809.574 1099.49,805.993 1071.06,802.346 1042.78,798.63 1014.69,794.843 986.833,791.011 959.245,787.173 931.97,783.325 905.051,779.462 878.534,775.58 852.459,771.671 826.871,767.731 801.81,763.755 777.316,759.737 753.43,755.674 730.19,751.561 707.634,747.395 685.797,743.173 664.716,738.892 644.424,734.552 624.954,730.152 606.337,725.69 588.602,721.169 571.779,716.589 555.894,711.952 540.972,707.26 527.037,702.517 514.112,697.726 502.216,692.891 491.369,688.015 481.589,683.104 472.889,678.162 465.286,673.192 458.79,668.2 453.414,663.19 449.164,658.166 446.05,653.131 444.075,648.089 443.245,643.043 443.562,637.996 445.01,633.034 447.575,628.244 451.252,623.629 456.036,619.196 461.919,614.952 468.893,610.904 476.946,607.062 486.065,603.437 496.235,600.04 507.438,596.883 519.657,593.98 532.87,591.342 547.056,588.985 562.191,586.921 578.25,585.164 595.206,583.728 613.031,582.625 631.697,581.868 651.171,581.468 671.423,581.435 692.419,581.781 714.126,582.511 736.509,583.635 759.532,585.156 783.158,587.08 807.35,589.409 832.069,592.144 857.278,595.284 882.936,598.828 909.005,602.77 935.442,607.107 962.209,611.83 989.263,616.932 1016.56,622.402 1044.07,628.228 1071.75,634.351 1099.56,640.729 1127.46,647.344 1155.42,654.18 1183.38,661.219 1211.31,668.443 1239.17,675.833 1266.91,683.371 1294.5,691.037 1321.88,698.812 1349.03,706.677 1375.9,714.611 1402.44,722.595 1428.63,730.61 1454.42,738.634 1479.77,746.649 1504.64,754.635 1529,762.572 1552.82,770.44 1576.05,778.219 1598.66,785.891 1620.62,793.435 1641.9,800.832 1662.46,808.064 1682.28,815.111 1701.31,821.955 1719.55,828.578 1736.96,834.962 1753.51,841.089 1769.18,846.941 1783.95,852.503 1797.79,857.759 1810.69,862.693 1822.63,867.29 1833.59,871.537 1843.55,875.42 1852.5,878.929 1860.43,882.052 1867.32,884.778 1873.18,887.101 1877.97,889.011 1881.71,890.503 1884.39,891.573 1885.99,892.216 1886.53,892.43 "/>
<polyline clip-path="url(#clip442)" style="stroke:#64c864; stroke-linecap:round; stroke-linejoin:round; stroke-width:4; stroke-opacity:1; fill:none" points="1908.79,637.996 1908.23,637.941 1906.54,637.773 1903.72,637.495 1899.79,637.105 1894.74,636.603 1888.59,635.991 1881.34,635.267 1873.01,634.432 1863.6,633.487 1853.14,632.432 1841.64,631.267 1829.12,629.994 1815.59,628.612 1801.08,627.125 1785.62,625.532 1769.21,623.835 1751.9,622.037 1733.7,620.14 1714.65,618.145 1694.77,616.056 1674.1,613.875 1652.66,611.605 1630.5,609.25 1607.64,606.811 1584.11,604.293 1559.97,601.699 1535.24,599.031 1509.96,596.293 1484.17,593.487 1457.91,590.616 1431.23,587.682 1404.16,584.688 1376.74,581.635 1349.02,578.524 1321.05,575.356 1292.86,572.131 1264.5,568.85 1236.02,565.511 1207.46,562.114 1178.86,558.658 1150.28,555.14 1121.75,551.559 1093.32,547.912 1065.04,544.196 1036.95,540.409 1009.09,536.576 981.505,532.738 954.23,528.891 927.311,525.028 900.794,521.145 874.72,517.237 849.131,513.297 824.07,509.321 799.577,505.303 775.69,501.24 752.45,497.127 729.894,492.961 708.058,488.739 686.976,484.458 666.684,480.118 647.214,475.717 628.597,471.256 610.862,466.735 594.039,462.155 578.154,457.517 563.232,452.826 549.297,448.083 536.372,443.292 524.476,438.456 513.629,433.581 503.849,428.67 495.15,423.727 487.546,418.758 481.051,413.766 475.674,408.756 471.424,403.732 468.31,398.697 466.336,393.655 465.506,388.609 465.822,383.562 467.27,378.6 469.835,373.809 473.512,369.195 478.296,364.762 484.179,360.518 491.153,356.47 499.207,352.628 508.325,349.003 518.495,345.606 529.698,342.449 541.917,339.546 555.13,336.908 569.316,334.551 584.451,332.487 600.51,330.73 617.466,329.293 635.292,328.191 653.957,327.433 673.431,327.033 693.683,327.001 714.679,327.346 736.387,328.077 758.769,329.2 781.792,330.722 805.418,332.646 829.61,334.975 854.33,337.71 879.538,340.85 905.197,344.393 931.265,348.336 957.702,352.673 984.469,357.396 1011.52,362.498 1038.82,367.968 1066.33,373.794 1094.01,379.917 1121.82,386.295 1149.72,392.91 1177.68,399.746 1205.64,406.785 1233.57,414.009 1261.43,421.399 1289.17,428.937 1316.76,436.603 1344.14,444.378 1371.29,452.242 1398.16,460.177 1424.7,468.161 1450.89,476.175 1476.68,484.2 1502.03,492.215 1526.9,500.201 1551.26,508.138 1575.08,516.006 1598.31,523.785 1620.92,531.456 1642.88,539 1664.16,546.398 1684.72,553.63 1704.54,560.677 1723.57,567.521 1741.81,574.144 1759.22,580.528 1775.77,586.654 1791.44,592.507 1806.21,598.069 1820.05,603.325 1832.95,608.258 1844.89,612.856 1855.85,617.103 1865.81,620.986 1874.76,624.495 1882.69,627.618 1889.58,630.344 1895.44,632.667 1900.23,634.577 1903.97,636.069 1906.65,637.139 1908.25,637.782 1908.79,637.996 "/>
<path clip-path="url(#clip440)" d="M1301.76 292.102 L1900.97 292.102 L1900.97 84.7422 L1301.76 84.7422  Z" fill="#000000" fill-rule="evenodd" fill-opacity="0"/>
<polyline clip-path="url(#clip440)" style="stroke:#000000; stroke-linecap:round; stroke-linejoin:round; stroke-width:4; stroke-opacity:0; fill:none" points="1301.76,292.102 1900.97,292.102 1900.97,84.7422 1301.76,84.7422 1301.76,292.102 "/>
<polyline clip-path="url(#clip440)" style="stroke:#6496c8; stroke-linecap:round; stroke-linejoin:round; stroke-width:4; stroke-opacity:1; fill:none" points="1319.02,136.582 1422.59,136.582 "/>
<path clip-path="url(#clip440)" d="M1439.85 119.302 L1446.15 119.302 L1461.47 148.214 L1461.47 119.302 L1466.01 119.302 L1466.01 153.862 L1459.71 153.862 L1444.39 124.95 L1444.39 153.862 L1439.85 153.862 L1439.85 119.302 Z" fill="#8f9191" fill-rule="nonzero" fill-opacity="1" /><path clip-path="url(#clip440)" d="M1485.17 130.923 Q1481.75 130.923 1479.76 133.608 Q1477.77 136.27 1477.77 140.922 Q1477.77 145.575 1479.73 148.26 Q1481.72 150.922 1485.17 150.922 Q1488.58 150.922 1490.57 148.237 Q1492.56 145.552 1492.56 140.922 Q1492.56 136.316 1490.57 133.631 Q1488.58 130.923 1485.17 130.923 M1485.17 127.311 Q1490.73 127.311 1493.9 130.923 Q1497.07 134.534 1497.07 140.922 Q1497.07 147.288 1493.9 150.922 Q1490.73 154.534 1485.17 154.534 Q1479.59 154.534 1476.42 150.922 Q1473.27 147.288 1473.27 140.922 Q1473.27 134.534 1476.42 130.923 Q1479.59 127.311 1485.17 127.311 Z" fill="#8f9191" fill-rule="nonzero" fill-opacity="1" /><path clip-path="url(#clip440)" d="M1524.32 132.913 Q1525.91 130.043 1528.14 128.677 Q1530.36 127.311 1533.37 127.311 Q1537.42 127.311 1539.62 130.159 Q1541.82 132.983 1541.82 138.214 L1541.82 153.862 L1537.53 153.862 L1537.53 138.353 Q1537.53 134.626 1536.21 132.821 Q1534.89 131.015 1532.19 131.015 Q1528.88 131.015 1526.96 133.214 Q1525.03 135.413 1525.03 139.21 L1525.03 153.862 L1520.75 153.862 L1520.75 138.353 Q1520.75 134.603 1519.43 132.821 Q1518.11 131.015 1515.36 131.015 Q1512.09 131.015 1510.17 133.237 Q1508.25 135.436 1508.25 139.21 L1508.25 153.862 L1503.97 153.862 L1503.97 127.936 L1508.25 127.936 L1508.25 131.964 Q1509.71 129.58 1511.75 128.446 Q1513.78 127.311 1516.58 127.311 Q1519.41 127.311 1521.38 128.747 Q1523.37 130.182 1524.32 132.913 Z" fill="#8f9191" fill-rule="nonzero" fill-opacity="1" /><path clip-path="url(#clip440)" d="M1550.31 127.936 L1554.57 127.936 L1554.57 153.862 L1550.31 153.862 L1550.31 127.936 M1550.31 117.844 L1554.57 117.844 L1554.57 123.237 L1550.31 123.237 L1550.31 117.844 Z" fill="#8f9191" fill-rule="nonzero" fill-opacity="1" /><path clip-path="url(#clip440)" d="M1585.03 138.214 L1585.03 153.862 L1580.77 153.862 L1580.77 138.353 Q1580.77 134.672 1579.34 132.844 Q1577.9 131.015 1575.03 131.015 Q1571.58 131.015 1569.59 133.214 Q1567.6 135.413 1567.6 139.21 L1567.6 153.862 L1563.32 153.862 L1563.32 127.936 L1567.6 127.936 L1567.6 131.964 Q1569.13 129.626 1571.19 128.469 Q1573.27 127.311 1575.98 127.311 Q1580.45 127.311 1582.74 130.089 Q1585.03 132.844 1585.03 138.214 Z" fill="#8f9191" fill-rule="nonzero" fill-opacity="1" /><path clip-path="url(#clip440)" d="M1605.31 140.83 Q1600.15 140.83 1598.16 142.01 Q1596.17 143.191 1596.17 146.038 Q1596.17 148.307 1597.65 149.649 Q1599.15 150.969 1601.72 150.969 Q1605.26 150.969 1607.39 148.469 Q1609.55 145.946 1609.55 141.779 L1609.55 140.83 L1605.31 140.83 M1613.81 139.071 L1613.81 153.862 L1609.55 153.862 L1609.55 149.927 Q1608.09 152.288 1605.91 153.422 Q1603.74 154.534 1600.59 154.534 Q1596.61 154.534 1594.25 152.311 Q1591.91 150.066 1591.91 146.316 Q1591.91 141.941 1594.83 139.719 Q1597.76 137.497 1603.58 137.497 L1609.55 137.497 L1609.55 137.08 Q1609.55 134.14 1607.6 132.543 Q1605.68 130.923 1602.19 130.923 Q1599.96 130.923 1597.86 131.455 Q1595.75 131.987 1593.81 133.052 L1593.81 129.117 Q1596.14 128.214 1598.34 127.774 Q1600.54 127.311 1602.63 127.311 Q1608.25 127.311 1611.03 130.228 Q1613.81 133.145 1613.81 139.071 Z" fill="#8f9191" fill-rule="nonzero" fill-opacity="1" /><path clip-path="url(#clip440)" d="M1622.58 117.844 L1626.84 117.844 L1626.84 153.862 L1622.58 153.862 L1622.58 117.844 Z" fill="#8f9191" fill-rule="nonzero" fill-opacity="1" /><polyline clip-path="url(#clip440)" style="stroke:#c86464; stroke-linecap:round; stroke-linejoin:round; stroke-width:4; stroke-opacity:1; fill:none" points="1319.02,188.422 1422.59,188.422 "/>
<path clip-path="url(#clip440)" d="M1455.03 183.758 Q1454.32 183.341 1453.46 183.156 Q1452.63 182.948 1451.61 182.948 Q1448 182.948 1446.05 185.309 Q1444.13 187.647 1444.13 192.045 L1444.13 205.702 L1439.85 205.702 L1439.85 179.776 L1444.13 179.776 L1444.13 183.804 Q1445.47 181.443 1447.63 180.309 Q1449.78 179.151 1452.86 179.151 Q1453.3 179.151 1453.83 179.221 Q1454.36 179.267 1455.01 179.383 L1455.03 183.758 Z" fill="#8f9191" fill-rule="nonzero" fill-opacity="1" /><path clip-path="url(#clip440)" d="M1468.51 182.763 Q1465.08 182.763 1463.09 185.448 Q1461.1 188.11 1461.1 192.762 Q1461.1 197.415 1463.07 200.1 Q1465.06 202.762 1468.51 202.762 Q1471.91 202.762 1473.9 200.077 Q1475.89 197.392 1475.89 192.762 Q1475.89 188.156 1473.9 185.471 Q1471.91 182.763 1468.51 182.763 M1468.51 179.151 Q1474.06 179.151 1477.23 182.763 Q1480.4 186.374 1480.4 192.762 Q1480.4 199.128 1477.23 202.762 Q1474.06 206.374 1468.51 206.374 Q1462.93 206.374 1459.76 202.762 Q1456.61 199.128 1456.61 192.762 Q1456.61 186.374 1459.76 182.763 Q1462.93 179.151 1468.51 179.151 Z" fill="#8f9191" fill-rule="nonzero" fill-opacity="1" /><path clip-path="url(#clip440)" d="M1491.68 172.415 L1491.68 179.776 L1500.45 179.776 L1500.45 183.087 L1491.68 183.087 L1491.68 197.161 Q1491.68 200.332 1492.53 201.235 Q1493.41 202.137 1496.08 202.137 L1500.45 202.137 L1500.45 205.702 L1496.08 205.702 Q1491.15 205.702 1489.27 203.874 Q1487.4 202.022 1487.4 197.161 L1487.4 183.087 L1484.27 183.087 L1484.27 179.776 L1487.4 179.776 L1487.4 172.415 L1491.68 172.415 Z" fill="#8f9191" fill-rule="nonzero" fill-opacity="1" /><path clip-path="url(#clip440)" d="M1517.83 192.67 Q1512.67 192.67 1510.68 193.85 Q1508.69 195.031 1508.69 197.878 Q1508.69 200.147 1510.17 201.489 Q1511.68 202.809 1514.25 202.809 Q1517.79 202.809 1519.92 200.309 Q1522.07 197.786 1522.07 193.619 L1522.07 192.67 L1517.83 192.67 M1526.33 190.911 L1526.33 205.702 L1522.07 205.702 L1522.07 201.767 Q1520.61 204.128 1518.44 205.262 Q1516.26 206.374 1513.11 206.374 Q1509.13 206.374 1506.77 204.151 Q1504.43 201.906 1504.43 198.156 Q1504.43 193.781 1507.35 191.559 Q1510.29 189.337 1516.1 189.337 L1522.07 189.337 L1522.07 188.92 Q1522.07 185.98 1520.13 184.383 Q1518.21 182.763 1514.71 182.763 Q1512.49 182.763 1510.38 183.295 Q1508.27 183.827 1506.33 184.892 L1506.33 180.957 Q1508.67 180.054 1510.87 179.614 Q1513.07 179.151 1515.15 179.151 Q1520.77 179.151 1523.55 182.068 Q1526.33 184.985 1526.33 190.911 Z" fill="#8f9191" fill-rule="nonzero" fill-opacity="1" /><path clip-path="url(#clip440)" d="M1539.32 172.415 L1539.32 179.776 L1548.09 179.776 L1548.09 183.087 L1539.32 183.087 L1539.32 197.161 Q1539.32 200.332 1540.17 201.235 Q1541.05 202.137 1543.71 202.137 L1548.09 202.137 L1548.09 205.702 L1543.71 205.702 Q1538.78 205.702 1536.91 203.874 Q1535.03 202.022 1535.03 197.161 L1535.03 183.087 L1531.91 183.087 L1531.91 179.776 L1535.03 179.776 L1535.03 172.415 L1539.32 172.415 Z" fill="#8f9191" fill-rule="nonzero" fill-opacity="1" /><path clip-path="url(#clip440)" d="M1575.87 191.675 L1575.87 193.758 L1556.28 193.758 Q1556.56 198.156 1558.92 200.471 Q1561.31 202.762 1565.54 202.762 Q1568 202.762 1570.29 202.161 Q1572.6 201.559 1574.87 200.355 L1574.87 204.383 Q1572.58 205.355 1570.17 205.864 Q1567.77 206.374 1565.29 206.374 Q1559.08 206.374 1555.45 202.762 Q1551.84 199.151 1551.84 192.994 Q1551.84 186.628 1555.27 182.901 Q1558.71 179.151 1564.55 179.151 Q1569.78 179.151 1572.81 182.531 Q1575.87 185.888 1575.87 191.675 M1571.61 190.425 Q1571.56 186.929 1569.64 184.846 Q1567.74 182.763 1564.59 182.763 Q1561.03 182.763 1558.88 184.776 Q1556.75 186.79 1556.42 190.448 L1571.61 190.425 Z" fill="#8f9191" fill-rule="nonzero" fill-opacity="1" /><path clip-path="url(#clip440)" d="M1599.92 183.712 L1599.92 169.684 L1604.18 169.684 L1604.18 205.702 L1599.92 205.702 L1599.92 201.813 Q1598.58 204.128 1596.51 205.262 Q1594.48 206.374 1591.61 206.374 Q1586.91 206.374 1583.95 202.624 Q1581.01 198.874 1581.01 192.762 Q1581.01 186.651 1583.95 182.901 Q1586.91 179.151 1591.61 179.151 Q1594.48 179.151 1596.51 180.286 Q1598.58 181.397 1599.92 183.712 M1585.4 192.762 Q1585.4 197.462 1587.33 200.147 Q1589.27 202.809 1592.65 202.809 Q1596.03 202.809 1597.97 200.147 Q1599.92 197.462 1599.92 192.762 Q1599.92 188.063 1597.97 185.401 Q1596.03 182.716 1592.65 182.716 Q1589.27 182.716 1587.33 185.401 Q1585.4 188.063 1585.4 192.762 Z" fill="#8f9191" fill-rule="nonzero" fill-opacity="1" /><path clip-path="url(#clip440)" d="M1639.8 192.67 Q1634.64 192.67 1632.65 193.85 Q1630.66 195.031 1630.66 197.878 Q1630.66 200.147 1632.14 201.489 Q1633.64 202.809 1636.21 202.809 Q1639.76 202.809 1641.89 200.309 Q1644.04 197.786 1644.04 193.619 L1644.04 192.67 L1639.8 192.67 M1648.3 190.911 L1648.3 205.702 L1644.04 205.702 L1644.04 201.767 Q1642.58 204.128 1640.4 205.262 Q1638.23 206.374 1635.08 206.374 Q1631.1 206.374 1628.74 204.151 Q1626.4 201.906 1626.4 198.156 Q1626.4 193.781 1629.32 191.559 Q1632.26 189.337 1638.07 189.337 L1644.04 189.337 L1644.04 188.92 Q1644.04 185.98 1642.09 184.383 Q1640.17 182.763 1636.68 182.763 Q1634.45 182.763 1632.35 183.295 Q1630.24 183.827 1628.3 184.892 L1628.3 180.957 Q1630.64 180.054 1632.83 179.614 Q1635.03 179.151 1637.12 179.151 Q1642.74 179.151 1645.52 182.068 Q1648.3 184.985 1648.3 190.911 Z" fill="#8f9191" fill-rule="nonzero" fill-opacity="1" /><path clip-path="url(#clip440)" d="M1675.68 192.762 Q1675.68 188.063 1673.74 185.401 Q1671.82 182.716 1668.44 182.716 Q1665.06 182.716 1663.11 185.401 Q1661.19 188.063 1661.19 192.762 Q1661.19 197.462 1663.11 200.147 Q1665.06 202.809 1668.44 202.809 Q1671.82 202.809 1673.74 200.147 Q1675.68 197.462 1675.68 192.762 M1661.19 183.712 Q1662.53 181.397 1664.57 180.286 Q1666.63 179.151 1669.48 179.151 Q1674.2 179.151 1677.14 182.901 Q1680.1 186.651 1680.1 192.762 Q1680.1 198.874 1677.14 202.624 Q1674.2 206.374 1669.48 206.374 Q1666.63 206.374 1664.57 205.262 Q1662.53 204.128 1661.19 201.813 L1661.19 205.702 L1656.91 205.702 L1656.91 169.684 L1661.19 169.684 L1661.19 183.712 Z" fill="#8f9191" fill-rule="nonzero" fill-opacity="1" /><path clip-path="url(#clip440)" d="M1697.21 182.763 Q1693.78 182.763 1691.79 185.448 Q1689.8 188.11 1689.8 192.762 Q1689.8 197.415 1691.77 200.1 Q1693.76 202.762 1697.21 202.762 Q1700.61 202.762 1702.6 200.077 Q1704.59 197.392 1704.59 192.762 Q1704.59 188.156 1702.6 185.471 Q1700.61 182.763 1697.21 182.763 M1697.21 179.151 Q1702.76 179.151 1705.94 182.763 Q1709.11 186.374 1709.11 192.762 Q1709.11 199.128 1705.94 202.762 Q1702.76 206.374 1697.21 206.374 Q1691.63 206.374 1688.46 202.762 Q1685.31 199.128 1685.31 192.762 Q1685.31 186.374 1688.46 182.763 Q1691.63 179.151 1697.21 179.151 Z" fill="#8f9191" fill-rule="nonzero" fill-opacity="1" /><path clip-path="url(#clip440)" d="M1715.73 195.471 L1715.73 179.776 L1719.99 179.776 L1719.99 195.309 Q1719.99 198.989 1721.42 200.841 Q1722.86 202.67 1725.73 202.67 Q1729.18 202.67 1731.17 200.471 Q1733.18 198.272 1733.18 194.475 L1733.18 179.776 L1737.44 179.776 L1737.44 205.702 L1733.18 205.702 L1733.18 201.721 Q1731.63 204.082 1729.57 205.239 Q1727.53 206.374 1724.82 206.374 Q1720.36 206.374 1718.04 203.596 Q1715.73 200.818 1715.73 195.471 M1726.44 179.151 L1726.44 179.151 Z" fill="#8f9191" fill-rule="nonzero" fill-opacity="1" /><path clip-path="url(#clip440)" d="M1750.43 172.415 L1750.43 179.776 L1759.2 179.776 L1759.2 183.087 L1750.43 183.087 L1750.43 197.161 Q1750.43 200.332 1751.28 201.235 Q1752.16 202.137 1754.82 202.137 L1759.2 202.137 L1759.2 205.702 L1754.82 205.702 Q1749.89 205.702 1748.02 203.874 Q1746.14 202.022 1746.14 197.161 L1746.14 183.087 L1743.02 183.087 L1743.02 179.776 L1746.14 179.776 L1746.14 172.415 L1750.43 172.415 Z" fill="#8f9191" fill-rule="nonzero" fill-opacity="1" /><path clip-path="url(#clip440)" d="M1790.1 169.73 Q1787 175.054 1785.5 180.263 Q1783.99 185.471 1783.99 190.818 Q1783.99 196.165 1785.5 201.42 Q1787.02 206.651 1790.1 211.952 L1786.4 211.952 Q1782.93 206.512 1781.19 201.258 Q1779.48 196.003 1779.48 190.818 Q1779.48 185.656 1781.19 180.425 Q1782.9 175.193 1786.4 169.73 L1790.1 169.73 Z" fill="#8f9191" fill-rule="nonzero" fill-opacity="1" /><path clip-path="url(#clip440)" d="M1808.97 174.221 Q1805.36 174.221 1803.53 177.786 Q1801.72 181.327 1801.72 188.457 Q1801.72 195.563 1803.53 199.128 Q1805.36 202.67 1808.97 202.67 Q1812.6 202.67 1814.41 199.128 Q1816.24 195.563 1816.24 188.457 Q1816.24 181.327 1814.41 177.786 Q1812.6 174.221 1808.97 174.221 M1808.97 170.517 Q1814.78 170.517 1817.83 175.124 Q1820.91 179.707 1820.91 188.457 Q1820.91 197.184 1817.83 201.79 Q1814.78 206.374 1808.97 206.374 Q1803.16 206.374 1800.08 201.79 Q1797.02 197.184 1797.02 188.457 Q1797.02 179.707 1800.08 175.124 Q1803.16 170.517 1808.97 170.517 Z" fill="#8f9191" fill-rule="nonzero" fill-opacity="1" /><path clip-path="url(#clip440)" d="M1829.62 199.823 L1834.5 199.823 L1834.5 203.804 L1830.7 211.211 L1827.72 211.211 L1829.62 203.804 L1829.62 199.823 Z" fill="#8f9191" fill-rule="nonzero" fill-opacity="1" /><path clip-path="url(#clip440)" d="M1854.2 174.221 Q1850.59 174.221 1848.76 177.786 Q1846.95 181.327 1846.95 188.457 Q1846.95 195.563 1848.76 199.128 Q1850.59 202.67 1854.2 202.67 Q1857.83 202.67 1859.64 199.128 Q1861.47 195.563 1861.47 188.457 Q1861.47 181.327 1859.64 177.786 Q1857.83 174.221 1854.2 174.221 M1854.2 170.517 Q1860.01 170.517 1863.06 175.124 Q1866.14 179.707 1866.14 188.457 Q1866.14 197.184 1863.06 201.79 Q1860.01 206.374 1854.2 206.374 Q1848.39 206.374 1845.31 201.79 Q1842.25 197.184 1842.25 188.457 Q1842.25 179.707 1845.31 175.124 Q1848.39 170.517 1854.2 170.517 Z" fill="#8f9191" fill-rule="nonzero" fill-opacity="1" /><path clip-path="url(#clip440)" d="M1873.09 169.73 L1876.79 169.73 Q1880.26 175.193 1881.98 180.425 Q1883.71 185.656 1883.71 190.818 Q1883.71 196.003 1881.98 201.258 Q1880.26 206.512 1876.79 211.952 L1873.09 211.952 Q1876.17 206.651 1877.67 201.42 Q1879.2 196.165 1879.2 190.818 Q1879.2 185.471 1877.67 180.263 Q1876.17 175.054 1873.09 169.73 Z" fill="#8f9191" fill-rule="nonzero" fill-opacity="1" /><polyline clip-path="url(#clip440)" style="stroke:#64c864; stroke-linecap:round; stroke-linejoin:round; stroke-width:4; stroke-opacity:1; fill:none" points="1319.02,240.262 1422.59,240.262 "/>
<path clip-path="url(#clip440)" d="M1455.03 235.598 Q1454.32 235.181 1453.46 234.996 Q1452.63 234.788 1451.61 234.788 Q1448 234.788 1446.05 237.149 Q1444.13 239.487 1444.13 243.885 L1444.13 257.542 L1439.85 257.542 L1439.85 231.616 L1444.13 231.616 L1444.13 235.644 Q1445.47 233.283 1447.63 232.149 Q1449.78 230.991 1452.86 230.991 Q1453.3 230.991 1453.83 231.061 Q1454.36 231.107 1455.01 231.223 L1455.03 235.598 Z" fill="#8f9191" fill-rule="nonzero" fill-opacity="1" /><path clip-path="url(#clip440)" d="M1468.51 234.603 Q1465.08 234.603 1463.09 237.288 Q1461.1 239.95 1461.1 244.602 Q1461.1 249.255 1463.07 251.94 Q1465.06 254.602 1468.51 254.602 Q1471.91 254.602 1473.9 251.917 Q1475.89 249.232 1475.89 244.602 Q1475.89 239.996 1473.9 237.311 Q1471.91 234.603 1468.51 234.603 M1468.51 230.991 Q1474.06 230.991 1477.23 234.603 Q1480.4 238.214 1480.4 244.602 Q1480.4 250.968 1477.23 254.602 Q1474.06 258.214 1468.51 258.214 Q1462.93 258.214 1459.76 254.602 Q1456.61 250.968 1456.61 244.602 Q1456.61 238.214 1459.76 234.603 Q1462.93 230.991 1468.51 230.991 Z" fill="#8f9191" fill-rule="nonzero" fill-opacity="1" /><path clip-path="url(#clip440)" d="M1491.68 224.255 L1491.68 231.616 L1500.45 231.616 L1500.45 234.927 L1491.68 234.927 L1491.68 249.001 Q1491.68 252.172 1492.53 253.075 Q1493.41 253.977 1496.08 253.977 L1500.45 253.977 L1500.45 257.542 L1496.08 257.542 Q1491.15 257.542 1489.27 255.714 Q1487.4 253.862 1487.4 249.001 L1487.4 234.927 L1484.27 234.927 L1484.27 231.616 L1487.4 231.616 L1487.4 224.255 L1491.68 224.255 Z" fill="#8f9191" fill-rule="nonzero" fill-opacity="1" /><path clip-path="url(#clip440)" d="M1517.83 244.51 Q1512.67 244.51 1510.68 245.69 Q1508.69 246.871 1508.69 249.718 Q1508.69 251.987 1510.17 253.329 Q1511.68 254.649 1514.25 254.649 Q1517.79 254.649 1519.92 252.149 Q1522.07 249.626 1522.07 245.459 L1522.07 244.51 L1517.83 244.51 M1526.33 242.751 L1526.33 257.542 L1522.07 257.542 L1522.07 253.607 Q1520.61 255.968 1518.44 257.102 Q1516.26 258.214 1513.11 258.214 Q1509.13 258.214 1506.77 255.991 Q1504.43 253.746 1504.43 249.996 Q1504.43 245.621 1507.35 243.399 Q1510.29 241.177 1516.1 241.177 L1522.07 241.177 L1522.07 240.76 Q1522.07 237.82 1520.13 236.223 Q1518.21 234.603 1514.71 234.603 Q1512.49 234.603 1510.38 235.135 Q1508.27 235.667 1506.33 236.732 L1506.33 232.797 Q1508.67 231.894 1510.87 231.454 Q1513.07 230.991 1515.15 230.991 Q1520.77 230.991 1523.55 233.908 Q1526.33 236.825 1526.33 242.751 Z" fill="#8f9191" fill-rule="nonzero" fill-opacity="1" /><path clip-path="url(#clip440)" d="M1539.32 224.255 L1539.32 231.616 L1548.09 231.616 L1548.09 234.927 L1539.32 234.927 L1539.32 249.001 Q1539.32 252.172 1540.17 253.075 Q1541.05 253.977 1543.71 253.977 L1548.09 253.977 L1548.09 257.542 L1543.71 257.542 Q1538.78 257.542 1536.91 255.714 Q1535.03 253.862 1535.03 249.001 L1535.03 234.927 L1531.91 234.927 L1531.91 231.616 L1535.03 231.616 L1535.03 224.255 L1539.32 224.255 Z" fill="#8f9191" fill-rule="nonzero" fill-opacity="1" /><path clip-path="url(#clip440)" d="M1575.87 243.515 L1575.87 245.598 L1556.28 245.598 Q1556.56 249.996 1558.92 252.311 Q1561.31 254.602 1565.54 254.602 Q1568 254.602 1570.29 254.001 Q1572.6 253.399 1574.87 252.195 L1574.87 256.223 Q1572.58 257.195 1570.17 257.704 Q1567.77 258.214 1565.29 258.214 Q1559.08 258.214 1555.45 254.602 Q1551.84 250.991 1551.84 244.834 Q1551.84 238.468 1555.27 234.741 Q1558.71 230.991 1564.55 230.991 Q1569.78 230.991 1572.81 234.371 Q1575.87 237.728 1575.87 243.515 M1571.61 242.265 Q1571.56 238.769 1569.64 236.686 Q1567.74 234.603 1564.59 234.603 Q1561.03 234.603 1558.88 236.616 Q1556.75 238.63 1556.42 242.288 L1571.61 242.265 Z" fill="#8f9191" fill-rule="nonzero" fill-opacity="1" /><path clip-path="url(#clip440)" d="M1599.92 235.552 L1599.92 221.524 L1604.18 221.524 L1604.18 257.542 L1599.92 257.542 L1599.92 253.653 Q1598.58 255.968 1596.51 257.102 Q1594.48 258.214 1591.61 258.214 Q1586.91 258.214 1583.95 254.464 Q1581.01 250.714 1581.01 244.602 Q1581.01 238.491 1583.95 234.741 Q1586.91 230.991 1591.61 230.991 Q1594.48 230.991 1596.51 232.126 Q1598.58 233.237 1599.92 235.552 M1585.4 244.602 Q1585.4 249.302 1587.33 251.987 Q1589.27 254.649 1592.65 254.649 Q1596.03 254.649 1597.97 251.987 Q1599.92 249.302 1599.92 244.602 Q1599.92 239.903 1597.97 237.241 Q1596.03 234.556 1592.65 234.556 Q1589.27 234.556 1587.33 237.241 Q1585.4 239.903 1585.4 244.602 Z" fill="#8f9191" fill-rule="nonzero" fill-opacity="1" /><path clip-path="url(#clip440)" d="M1639.8 244.51 Q1634.64 244.51 1632.65 245.69 Q1630.66 246.871 1630.66 249.718 Q1630.66 251.987 1632.14 253.329 Q1633.64 254.649 1636.21 254.649 Q1639.76 254.649 1641.89 252.149 Q1644.04 249.626 1644.04 245.459 L1644.04 244.51 L1639.8 244.51 M1648.3 242.751 L1648.3 257.542 L1644.04 257.542 L1644.04 253.607 Q1642.58 255.968 1640.4 257.102 Q1638.23 258.214 1635.08 258.214 Q1631.1 258.214 1628.74 255.991 Q1626.4 253.746 1626.4 249.996 Q1626.4 245.621 1629.32 243.399 Q1632.26 241.177 1638.07 241.177 L1644.04 241.177 L1644.04 240.76 Q1644.04 237.82 1642.09 236.223 Q1640.17 234.603 1636.68 234.603 Q1634.45 234.603 1632.35 235.135 Q1630.24 235.667 1628.3 236.732 L1628.3 232.797 Q1630.64 231.894 1632.83 231.454 Q1635.03 230.991 1637.12 230.991 Q1642.74 230.991 1645.52 233.908 Q1648.3 236.825 1648.3 242.751 Z" fill="#8f9191" fill-rule="nonzero" fill-opacity="1" /><path clip-path="url(#clip440)" d="M1675.68 244.602 Q1675.68 239.903 1673.74 237.241 Q1671.82 234.556 1668.44 234.556 Q1665.06 234.556 1663.11 237.241 Q1661.19 239.903 1661.19 244.602 Q1661.19 249.302 1663.11 251.987 Q1665.06 254.649 1668.44 254.649 Q1671.82 254.649 1673.74 251.987 Q1675.68 249.302 1675.68 244.602 M1661.19 235.552 Q1662.53 233.237 1664.57 232.126 Q1666.63 230.991 1669.48 230.991 Q1674.2 230.991 1677.14 234.741 Q1680.1 238.491 1680.1 244.602 Q1680.1 250.714 1677.14 254.464 Q1674.2 258.214 1669.48 258.214 Q1666.63 258.214 1664.57 257.102 Q1662.53 255.968 1661.19 253.653 L1661.19 257.542 L1656.91 257.542 L1656.91 221.524 L1661.19 221.524 L1661.19 235.552 Z" fill="#8f9191" fill-rule="nonzero" fill-opacity="1" /><path clip-path="url(#clip440)" d="M1697.21 234.603 Q1693.78 234.603 1691.79 237.288 Q1689.8 239.95 1689.8 244.602 Q1689.8 249.255 1691.77 251.94 Q1693.76 254.602 1697.21 254.602 Q1700.61 254.602 1702.6 251.917 Q1704.59 249.232 1704.59 244.602 Q1704.59 239.996 1702.6 237.311 Q1700.61 234.603 1697.21 234.603 M1697.21 230.991 Q1702.76 230.991 1705.94 234.603 Q1709.11 238.214 1709.11 244.602 Q1709.11 250.968 1705.94 254.602 Q1702.76 258.214 1697.21 258.214 Q1691.63 258.214 1688.46 254.602 Q1685.31 250.968 1685.31 244.602 Q1685.31 238.214 1688.46 234.603 Q1691.63 230.991 1697.21 230.991 Z" fill="#8f9191" fill-rule="nonzero" fill-opacity="1" /><path clip-path="url(#clip440)" d="M1715.73 247.311 L1715.73 231.616 L1719.99 231.616 L1719.99 247.149 Q1719.99 250.829 1721.42 252.681 Q1722.86 254.51 1725.73 254.51 Q1729.18 254.51 1731.17 252.311 Q1733.18 250.112 1733.18 246.315 L1733.18 231.616 L1737.44 231.616 L1737.44 257.542 L1733.18 257.542 L1733.18 253.561 Q1731.63 255.922 1729.57 257.079 Q1727.53 258.214 1724.82 258.214 Q1720.36 258.214 1718.04 255.436 Q1715.73 252.658 1715.73 247.311 M1726.44 230.991 L1726.44 230.991 Z" fill="#8f9191" fill-rule="nonzero" fill-opacity="1" /><path clip-path="url(#clip440)" d="M1750.43 224.255 L1750.43 231.616 L1759.2 231.616 L1759.2 234.927 L1750.43 234.927 L1750.43 249.001 Q1750.43 252.172 1751.28 253.075 Q1752.16 253.977 1754.82 253.977 L1759.2 253.977 L1759.2 257.542 L1754.82 257.542 Q1749.89 257.542 1748.02 255.714 Q1746.14 253.862 1746.14 249.001 L1746.14 234.927 L1743.02 234.927 L1743.02 231.616 L1746.14 231.616 L1746.14 224.255 L1750.43 224.255 Z" fill="#8f9191" fill-rule="nonzero" fill-opacity="1" /><path clip-path="url(#clip440)" d="M1790.1 221.57 Q1787 226.894 1785.5 232.103 Q1783.99 237.311 1783.99 242.658 Q1783.99 248.005 1785.5 253.26 Q1787.02 258.491 1790.1 263.792 L1786.4 263.792 Q1782.93 258.352 1781.19 253.098 Q1779.48 247.843 1779.48 242.658 Q1779.48 237.496 1781.19 232.265 Q1782.9 227.033 1786.4 221.57 L1790.1 221.57 Z" fill="#8f9191" fill-rule="nonzero" fill-opacity="1" /><path clip-path="url(#clip440)" d="M1799.78 253.607 L1807.42 253.607 L1807.42 227.241 L1799.11 228.908 L1799.11 224.649 L1807.37 222.982 L1812.05 222.982 L1812.05 253.607 L1819.69 253.607 L1819.69 257.542 L1799.78 257.542 L1799.78 253.607 Z" fill="#8f9191" fill-rule="nonzero" fill-opacity="1" /><path clip-path="url(#clip440)" d="M1829.62 251.663 L1834.5 251.663 L1834.5 255.644 L1830.7 263.051 L1827.72 263.051 L1829.62 255.644 L1829.62 251.663 Z" fill="#8f9191" fill-rule="nonzero" fill-opacity="1" /><path clip-path="url(#clip440)" d="M1854.2 226.061 Q1850.59 226.061 1848.76 229.626 Q1846.95 233.167 1846.95 240.297 Q1846.95 247.403 1848.76 250.968 Q1850.59 254.51 1854.2 254.51 Q1857.83 254.51 1859.64 250.968 Q1861.47 247.403 1861.47 240.297 Q1861.47 233.167 1859.64 229.626 Q1857.83 226.061 1854.2 226.061 M1854.2 222.357 Q1860.01 222.357 1863.06 226.964 Q1866.14 231.547 1866.14 240.297 Q1866.14 249.024 1863.06 253.63 Q1860.01 258.214 1854.2 258.214 Q1848.39 258.214 1845.31 253.63 Q1842.25 249.024 1842.25 240.297 Q1842.25 231.547 1845.31 226.964 Q1848.39 222.357 1854.2 222.357 Z" fill="#8f9191" fill-rule="nonzero" fill-opacity="1" /><path clip-path="url(#clip440)" d="M1873.09 221.57 L1876.79 221.57 Q1880.26 227.033 1881.98 232.265 Q1883.71 237.496 1883.71 242.658 Q1883.71 247.843 1881.98 253.098 Q1880.26 258.352 1876.79 263.792 L1873.09 263.792 Q1876.17 258.491 1877.67 253.26 Q1879.2 248.005 1879.2 242.658 Q1879.2 237.311 1877.67 232.103 Q1876.17 226.894 1873.09 221.57 Z" fill="#8f9191" fill-rule="nonzero" fill-opacity="1" /></svg>
