<?xml version="1.0" encoding="utf-8"?>
<svg xmlns="http://www.w3.org/2000/svg" xmlns:xlink="http://www.w3.org/1999/xlink" width="500" height="375" viewBox="0 0 2000 1500">
<defs>
  <clipPath id="clip560">
    <rect x="0" y="0" width="2000" height="1500"/>
  </clipPath>
</defs>
<defs>
  <clipPath id="clip561">
    <rect x="400" y="0" width="1401" height="1401"/>
  </clipPath>
</defs>
<defs>
  <clipPath id="clip562">
    <rect x="401" y="47" width="1552" height="1126"/>
  </clipPath>
</defs>
<polyline clip-path="url(#clip560)" style="stroke:#8f9191; stroke-linecap:round; stroke-linejoin:round; stroke-width:4; stroke-opacity:1; fill:none" points="401.362,1172.19 1952.76,1172.19 "/>
<polyline clip-path="url(#clip560)" style="stroke:#8f9191; stroke-linecap:round; stroke-linejoin:round; stroke-width:4; stroke-opacity:1; fill:none" points="689.2,1172.19 689.2,1153.29 "/>
<polyline clip-path="url(#clip560)" style="stroke:#8f9191; stroke-linecap:round; stroke-linejoin:round; stroke-width:4; stroke-opacity:1; fill:none" points="994.112,1172.19 994.112,1153.29 "/>
<polyline clip-path="url(#clip560)" style="stroke:#8f9191; stroke-linecap:round; stroke-linejoin:round; stroke-width:4; stroke-opacity:1; fill:none" points="1299.02,1172.19 1299.02,1153.29 "/>
<polyline clip-path="url(#clip560)" style="stroke:#8f9191; stroke-linecap:round; stroke-linejoin:round; stroke-width:4; stroke-opacity:1; fill:none" points="1603.94,1172.19 1603.94,1153.29 "/>
<polyline clip-path="url(#clip560)" style="stroke:#8f9191; stroke-linecap:round; stroke-linejoin:round; stroke-width:4; stroke-opacity:1; fill:none" points="1908.85,1172.19 1908.85,1153.29 "/>
<path clip-path="url(#clip560)" d="M651.503 1199.91 Q647.892 1199.91 646.063 1203.47 Q644.258 1207.01 644.258 1214.14 Q644.258 1221.25 646.063 1224.81 Q647.892 1228.36 651.503 1228.36 Q655.137 1228.36 656.943 1224.81 Q658.771 1221.25 658.771 1214.14 Q658.771 1207.01 656.943 1203.47 Q655.137 1199.91 651.503 1199.91 M651.503 1196.2 Q657.313 1196.2 660.369 1200.81 Q663.447 1205.39 663.447 1214.14 Q663.447 1222.87 660.369 1227.48 Q657.313 1232.06 651.503 1232.06 Q645.693 1232.06 642.614 1227.48 Q639.559 1222.87 639.559 1214.14 Q639.559 1205.39 642.614 1200.81 Q645.693 1196.2 651.503 1196.2 Z" fill="#8f9191" fill-rule="nonzero" fill-opacity="1" /><path clip-path="url(#clip560)" d="M671.665 1225.51 L676.549 1225.51 L676.549 1231.39 L671.665 1231.39 L671.665 1225.51 Z" fill="#8f9191" fill-rule="nonzero" fill-opacity="1" /><path clip-path="url(#clip560)" d="M696.734 1199.91 Q693.123 1199.91 691.294 1203.47 Q689.489 1207.01 689.489 1214.14 Q689.489 1221.25 691.294 1224.81 Q693.123 1228.36 696.734 1228.36 Q700.368 1228.36 702.174 1224.81 Q704.003 1221.25 704.003 1214.14 Q704.003 1207.01 702.174 1203.47 Q700.368 1199.91 696.734 1199.91 M696.734 1196.2 Q702.544 1196.2 705.6 1200.81 Q708.679 1205.39 708.679 1214.14 Q708.679 1222.87 705.6 1227.48 Q702.544 1232.06 696.734 1232.06 Q690.924 1232.06 687.845 1227.48 Q684.79 1222.87 684.79 1214.14 Q684.79 1205.39 687.845 1200.81 Q690.924 1196.2 696.734 1196.2 Z" fill="#8f9191" fill-rule="nonzero" fill-opacity="1" /><path clip-path="url(#clip560)" d="M726.896 1199.91 Q723.285 1199.91 721.456 1203.47 Q719.651 1207.01 719.651 1214.14 Q719.651 1221.25 721.456 1224.81 Q723.285 1228.36 726.896 1228.36 Q730.53 1228.36 732.336 1224.81 Q734.165 1221.25 734.165 1214.14 Q734.165 1207.01 732.336 1203.47 Q730.53 1199.91 726.896 1199.91 M726.896 1196.2 Q732.706 1196.2 735.762 1200.81 Q738.841 1205.39 738.841 1214.14 Q738.841 1222.87 735.762 1227.48 Q732.706 1232.06 726.896 1232.06 Q721.086 1232.06 718.007 1227.48 Q714.952 1222.87 714.952 1214.14 Q714.952 1205.39 718.007 1200.81 Q721.086 1196.2 726.896 1196.2 Z" fill="#8f9191" fill-rule="nonzero" fill-opacity="1" /><path clip-path="url(#clip560)" d="M956.913 1199.91 Q953.302 1199.91 951.473 1203.47 Q949.668 1207.01 949.668 1214.14 Q949.668 1221.25 951.473 1224.81 Q953.302 1228.36 956.913 1228.36 Q960.547 1228.36 962.353 1224.81 Q964.181 1221.25 964.181 1214.14 Q964.181 1207.01 962.353 1203.47 Q960.547 1199.91 956.913 1199.91 M956.913 1196.2 Q962.723 1196.2 965.779 1200.81 Q968.857 1205.39 968.857 1214.14 Q968.857 1222.87 965.779 1227.48 Q962.723 1232.06 956.913 1232.06 Q951.103 1232.06 948.024 1227.48 Q944.969 1222.87 944.969 1214.14 Q944.969 1205.39 948.024 1200.81 Q951.103 1196.2 956.913 1196.2 Z" fill="#8f9191" fill-rule="nonzero" fill-opacity="1" /><path clip-path="url(#clip560)" d="M977.075 1225.51 L981.959 1225.51 L981.959 1231.39 L977.075 1231.39 L977.075 1225.51 Z" fill="#8f9191" fill-rule="nonzero" fill-opacity="1" /><path clip-path="url(#clip560)" d="M996.172 1227.45 L1012.49 1227.45 L1012.49 1231.39 L990.547 1231.39 L990.547 1227.45 Q993.209 1224.7 997.792 1220.07 Q1002.4 1215.42 1003.58 1214.07 Q1005.82 1211.55 1006.7 1209.81 Q1007.61 1208.05 1007.61 1206.36 Q1007.61 1203.61 1005.66 1201.87 Q1003.74 1200.14 1000.64 1200.14 Q998.44 1200.14 995.987 1200.9 Q993.556 1201.67 990.779 1203.22 L990.779 1198.49 Q993.603 1197.36 996.056 1196.78 Q998.51 1196.2 1000.55 1196.2 Q1005.92 1196.2 1009.11 1198.89 Q1012.31 1201.57 1012.31 1206.06 Q1012.31 1208.19 1011.5 1210.11 Q1010.71 1212.01 1008.6 1214.61 Q1008.02 1215.28 1004.92 1218.49 Q1001.82 1221.69 996.172 1227.45 Z" fill="#8f9191" fill-rule="nonzero" fill-opacity="1" /><path clip-path="url(#clip560)" d="M1022.35 1196.83 L1040.71 1196.83 L1040.71 1200.76 L1026.63 1200.76 L1026.63 1209.23 Q1027.65 1208.89 1028.67 1208.73 Q1029.69 1208.54 1030.71 1208.54 Q1036.5 1208.54 1039.88 1211.71 Q1043.26 1214.88 1043.26 1220.3 Q1043.26 1225.88 1039.78 1228.98 Q1036.31 1232.06 1029.99 1232.06 Q1027.82 1232.06 1025.55 1231.69 Q1023.3 1231.32 1020.89 1230.58 L1020.89 1225.88 Q1022.98 1227.01 1025.2 1227.57 Q1027.42 1228.12 1029.9 1228.12 Q1033.9 1228.12 1036.24 1226.02 Q1038.58 1223.91 1038.58 1220.3 Q1038.58 1216.69 1036.24 1214.58 Q1033.9 1212.48 1029.9 1212.48 Q1028.02 1212.48 1026.15 1212.89 Q1024.3 1213.31 1022.35 1214.19 L1022.35 1196.83 Z" fill="#8f9191" fill-rule="nonzero" fill-opacity="1" /><path clip-path="url(#clip560)" d="M1261.33 1199.91 Q1257.72 1199.91 1255.89 1203.47 Q1254.08 1207.01 1254.08 1214.14 Q1254.08 1221.25 1255.89 1224.81 Q1257.72 1228.36 1261.33 1228.36 Q1264.96 1228.36 1266.77 1224.81 Q1268.6 1221.25 1268.6 1214.14 Q1268.6 1207.01 1266.77 1203.47 Q1264.96 1199.91 1261.33 1199.91 M1261.33 1196.2 Q1267.14 1196.2 1270.19 1200.81 Q1273.27 1205.39 1273.27 1214.14 Q1273.27 1222.87 1270.19 1227.48 Q1267.14 1232.06 1261.33 1232.06 Q1255.52 1232.06 1252.44 1227.48 Q1249.38 1222.87 1249.38 1214.14 Q1249.38 1205.39 1252.44 1200.81 Q1255.52 1196.2 1261.33 1196.2 Z" fill="#8f9191" fill-rule="nonzero" fill-opacity="1" /><path clip-path="url(#clip560)" d="M1281.49 1225.51 L1286.37 1225.51 L1286.37 1231.39 L1281.49 1231.39 L1281.49 1225.51 Z" fill="#8f9191" fill-rule="nonzero" fill-opacity="1" /><path clip-path="url(#clip560)" d="M1296.61 1196.83 L1314.96 1196.83 L1314.96 1200.76 L1300.89 1200.76 L1300.89 1209.23 Q1301.91 1208.89 1302.92 1208.73 Q1303.94 1208.54 1304.96 1208.54 Q1310.75 1208.54 1314.13 1211.71 Q1317.51 1214.88 1317.51 1220.3 Q1317.51 1225.88 1314.04 1228.98 Q1310.56 1232.06 1304.24 1232.06 Q1302.07 1232.06 1299.8 1231.69 Q1297.55 1231.32 1295.15 1230.58 L1295.15 1225.88 Q1297.23 1227.01 1299.45 1227.57 Q1301.67 1228.12 1304.15 1228.12 Q1308.16 1228.12 1310.49 1226.02 Q1312.83 1223.91 1312.83 1220.3 Q1312.83 1216.69 1310.49 1214.58 Q1308.16 1212.48 1304.15 1212.48 Q1302.28 1212.48 1300.4 1212.89 Q1298.55 1213.31 1296.61 1214.19 L1296.61 1196.83 Z" fill="#8f9191" fill-rule="nonzero" fill-opacity="1" /><path clip-path="url(#clip560)" d="M1336.72 1199.91 Q1333.11 1199.91 1331.28 1203.47 Q1329.48 1207.01 1329.48 1214.14 Q1329.48 1221.25 1331.28 1224.81 Q1333.11 1228.36 1336.72 1228.36 Q1340.35 1228.36 1342.16 1224.81 Q1343.99 1221.25 1343.99 1214.14 Q1343.99 1207.01 1342.16 1203.47 Q1340.35 1199.91 1336.72 1199.91 M1336.72 1196.2 Q1342.53 1196.2 1345.59 1200.81 Q1348.66 1205.39 1348.66 1214.14 Q1348.66 1222.87 1345.59 1227.48 Q1342.53 1232.06 1336.72 1232.06 Q1330.91 1232.06 1327.83 1227.48 Q1324.78 1222.87 1324.78 1214.14 Q1324.78 1205.39 1327.83 1200.81 Q1330.91 1196.2 1336.72 1196.2 Z" fill="#8f9191" fill-rule="nonzero" fill-opacity="1" /><path clip-path="url(#clip560)" d="M1566.74 1199.91 Q1563.13 1199.91 1561.3 1203.47 Q1559.49 1207.01 1559.49 1214.14 Q1559.49 1221.25 1561.3 1224.81 Q1563.13 1228.36 1566.74 1228.36 Q1570.37 1228.36 1572.18 1224.81 Q1574.01 1221.25 1574.01 1214.14 Q1574.01 1207.01 1572.18 1203.47 Q1570.37 1199.91 1566.74 1199.91 M1566.74 1196.2 Q1572.55 1196.2 1575.6 1200.81 Q1578.68 1205.39 1578.68 1214.14 Q1578.68 1222.87 1575.6 1227.48 Q1572.55 1232.06 1566.74 1232.06 Q1560.93 1232.06 1557.85 1227.48 Q1554.79 1222.87 1554.79 1214.14 Q1554.79 1205.39 1557.85 1200.81 Q1560.93 1196.2 1566.74 1196.2 Z" fill="#8f9191" fill-rule="nonzero" fill-opacity="1" /><path clip-path="url(#clip560)" d="M1586.9 1225.51 L1591.78 1225.51 L1591.78 1231.39 L1586.9 1231.39 L1586.9 1225.51 Z" fill="#8f9191" fill-rule="nonzero" fill-opacity="1" /><path clip-path="url(#clip560)" d="M1600.79 1196.83 L1623.01 1196.83 L1623.01 1198.82 L1610.46 1231.39 L1605.58 1231.39 L1617.39 1200.76 L1600.79 1200.76 L1600.79 1196.83 Z" fill="#8f9191" fill-rule="nonzero" fill-opacity="1" /><path clip-path="url(#clip560)" d="M1632.18 1196.83 L1650.53 1196.83 L1650.53 1200.76 L1636.46 1200.76 L1636.46 1209.23 Q1637.48 1208.89 1638.5 1208.73 Q1639.51 1208.54 1640.53 1208.54 Q1646.32 1208.54 1649.7 1211.71 Q1653.08 1214.88 1653.08 1220.3 Q1653.08 1225.88 1649.61 1228.98 Q1646.14 1232.06 1639.82 1232.06 Q1637.64 1232.06 1635.37 1231.69 Q1633.13 1231.32 1630.72 1230.58 L1630.72 1225.88 Q1632.8 1227.01 1635.02 1227.57 Q1637.25 1228.12 1639.72 1228.12 Q1643.73 1228.12 1646.07 1226.02 Q1648.4 1223.91 1648.4 1220.3 Q1648.4 1216.69 1646.07 1214.58 Q1643.73 1212.48 1639.72 1212.48 Q1637.85 1212.48 1635.97 1212.89 Q1634.12 1213.31 1632.18 1214.19 L1632.18 1196.83 Z" fill="#8f9191" fill-rule="nonzero" fill-opacity="1" /><path clip-path="url(#clip560)" d="M1860.92 1227.45 L1868.56 1227.45 L1868.56 1201.09 L1860.25 1202.75 L1860.25 1198.49 L1868.51 1196.83 L1873.19 1196.83 L1873.19 1227.45 L1880.83 1227.45 L1880.83 1231.39 L1860.92 1231.39 L1860.92 1227.45 Z" fill="#8f9191" fill-rule="nonzero" fill-opacity="1" /><path clip-path="url(#clip560)" d="M1890.27 1225.51 L1895.16 1225.51 L1895.16 1231.39 L1890.27 1231.39 L1890.27 1225.51 Z" fill="#8f9191" fill-rule="nonzero" fill-opacity="1" /><path clip-path="url(#clip560)" d="M1915.34 1199.91 Q1911.73 1199.91 1909.9 1203.47 Q1908.1 1207.01 1908.1 1214.14 Q1908.1 1221.25 1909.9 1224.81 Q1911.73 1228.36 1915.34 1228.36 Q1918.98 1228.36 1920.78 1224.81 Q1922.61 1221.25 1922.61 1214.14 Q1922.61 1207.01 1920.78 1203.47 Q1918.98 1199.91 1915.34 1199.91 M1915.34 1196.2 Q1921.15 1196.2 1924.21 1200.81 Q1927.29 1205.39 1927.29 1214.14 Q1927.29 1222.87 1924.21 1227.48 Q1921.15 1232.06 1915.34 1232.06 Q1909.53 1232.06 1906.45 1227.48 Q1903.4 1222.87 1903.4 1214.14 Q1903.4 1205.39 1906.45 1200.81 Q1909.53 1196.2 1915.34 1196.2 Z" fill="#8f9191" fill-rule="nonzero" fill-opacity="1" /><path clip-path="url(#clip560)" d="M1945.5 1199.91 Q1941.89 1199.91 1940.06 1203.47 Q1938.26 1207.01 1938.26 1214.14 Q1938.26 1221.25 1940.06 1224.81 Q1941.89 1228.36 1945.5 1228.36 Q1949.14 1228.36 1950.94 1224.81 Q1952.77 1221.25 1952.77 1214.14 Q1952.77 1207.01 1950.94 1203.47 Q1949.14 1199.91 1945.5 1199.91 M1945.5 1196.2 Q1951.31 1196.2 1954.37 1200.81 Q1957.45 1205.39 1957.45 1214.14 Q1957.45 1222.87 1954.37 1227.48 Q1951.31 1232.06 1945.5 1232.06 Q1939.69 1232.06 1936.61 1227.48 Q1933.56 1222.87 1933.56 1214.14 Q1933.56 1205.39 1936.61 1200.81 Q1939.69 1196.2 1945.5 1196.2 Z" fill="#8f9191" fill-rule="nonzero" fill-opacity="1" /><path clip-path="url(#clip560)" d="M1191.23 1271.81 Q1191.23 1273.61 1190.11 1274.64 Q1188.98 1275.64 1187.69 1275.64 Q1186.47 1275.64 1185.82 1274.93 Q1185.18 1274.23 1185.18 1273.32 Q1185.18 1272.1 1186.08 1271.04 Q1186.98 1269.97 1188.33 1269.75 Q1187.01 1268.91 1185.05 1268.91 Q1183.76 1268.91 1182.63 1269.59 Q1181.54 1270.26 1180.86 1271.13 Q1180.22 1272 1179.64 1273.26 Q1179.09 1274.48 1178.87 1275.22 Q1178.67 1275.93 1178.51 1276.71 L1176.26 1285.72 Q1175.16 1290.01 1175.16 1291.52 Q1175.16 1293.39 1176.06 1294.64 Q1176.97 1295.87 1178.77 1295.87 Q1179.48 1295.87 1180.28 1295.67 Q1181.09 1295.45 1182.12 1294.87 Q1183.18 1294.26 1184.12 1293.36 Q1185.08 1292.42 1186.02 1290.84 Q1186.95 1289.27 1187.56 1287.24 Q1187.76 1286.53 1188.4 1286.53 Q1189.2 1286.53 1189.2 1287.17 Q1189.2 1287.72 1188.75 1288.88 Q1188.33 1290.01 1187.4 1291.49 Q1186.5 1292.94 1185.31 1294.26 Q1184.12 1295.55 1182.34 1296.45 Q1180.57 1297.35 1178.64 1297.35 Q1175.87 1297.35 1174.04 1295.87 Q1172.2 1294.39 1171.52 1292.33 Q1171.36 1292.62 1171.14 1293 Q1170.91 1293.39 1170.24 1294.26 Q1169.59 1295.09 1168.85 1295.74 Q1168.11 1296.35 1166.95 1296.83 Q1165.82 1297.35 1164.6 1297.35 Q1163.05 1297.35 1161.67 1296.9 Q1160.32 1296.45 1159.35 1295.42 Q1158.38 1294.39 1158.38 1292.97 Q1158.38 1291.39 1159.45 1290.3 Q1160.54 1289.17 1162.02 1289.17 Q1162.96 1289.17 1163.7 1289.72 Q1164.47 1290.26 1164.47 1291.46 Q1164.47 1292.78 1163.57 1293.77 Q1162.67 1294.77 1161.38 1295.03 Q1162.7 1295.87 1164.66 1295.87 Q1166.79 1295.87 1168.46 1294 Q1170.14 1292.13 1170.94 1289.01 Q1172.94 1281.5 1173.71 1278.15 Q1174.49 1274.77 1174.49 1273.32 Q1174.49 1271.97 1174.13 1271.04 Q1173.78 1270.1 1173.17 1269.68 Q1172.59 1269.23 1172.04 1269.07 Q1171.52 1268.91 1170.94 1268.91 Q1169.98 1268.91 1168.88 1269.3 Q1167.82 1269.68 1166.53 1270.59 Q1165.28 1271.46 1164.08 1273.26 Q1162.89 1275.06 1162.09 1277.54 Q1161.93 1278.28 1161.22 1278.28 Q1160.44 1278.25 1160.44 1277.61 Q1160.44 1277.06 1160.86 1275.93 Q1161.31 1274.77 1162.22 1273.32 Q1163.15 1271.87 1164.34 1270.59 Q1165.57 1269.27 1167.34 1268.36 Q1169.14 1267.46 1171.07 1267.46 Q1171.94 1267.46 1172.78 1267.66 Q1173.65 1267.82 1174.68 1268.3 Q1175.74 1268.78 1176.68 1269.85 Q1177.61 1270.91 1178.19 1272.45 Q1178.58 1271.71 1179.09 1271 Q1179.64 1270.3 1180.48 1269.43 Q1181.35 1268.53 1182.54 1268.01 Q1183.76 1267.46 1185.11 1267.46 Q1186.43 1267.46 1187.72 1267.82 Q1189.01 1268.14 1190.11 1269.2 Q1191.23 1270.23 1191.23 1271.81 Z" fill="#8f9191" fill-rule="nonzero" fill-opacity="1" /><polyline clip-path="url(#clip560)" style="stroke:#8f9191; stroke-linecap:round; stroke-linejoin:round; stroke-width:4; stroke-opacity:1; fill:none" points="401.362,1172.19 401.362,47.2441 "/>
<polyline clip-path="url(#clip560)" style="stroke:#8f9191; stroke-linecap:round; stroke-linejoin:round; stroke-width:4; stroke-opacity:1; fill:none" points="401.362,1149.03 420.26,1149.03 "/>
<polyline clip-path="url(#clip560)" style="stroke:#8f9191; stroke-linecap:round; stroke-linejoin:round; stroke-width:4; stroke-opacity:1; fill:none" points="401.362,905.101 420.26,905.101 "/>
<polyline clip-path="url(#clip560)" style="stroke:#8f9191; stroke-linecap:round; stroke-linejoin:round; stroke-width:4; stroke-opacity:1; fill:none" points="401.362,661.171 420.26,661.171 "/>
<polyline clip-path="url(#clip560)" style="stroke:#8f9191; stroke-linecap:round; stroke-linejoin:round; stroke-width:4; stroke-opacity:1; fill:none" points="401.362,417.241 420.26,417.241 "/>
<polyline clip-path="url(#clip560)" style="stroke:#8f9191; stroke-linecap:round; stroke-linejoin:round; stroke-width:4; stroke-opacity:1; fill:none" points="401.362,173.312 420.26,173.312 "/>
<path clip-path="url(#clip560)" d="M263.932 1149.48 L293.608 1149.48 L293.608 1153.42 L263.932 1153.42 L263.932 1149.48 Z" fill="#8f9191" fill-rule="nonzero" fill-opacity="1" /><path clip-path="url(#clip560)" d="M313.701 1134.83 Q310.09 1134.83 308.261 1138.39 Q306.455 1141.94 306.455 1149.07 Q306.455 1156.17 308.261 1159.74 Q310.09 1163.28 313.701 1163.28 Q317.335 1163.28 319.14 1159.74 Q320.969 1156.17 320.969 1149.07 Q320.969 1141.94 319.14 1138.39 Q317.335 1134.83 313.701 1134.83 M313.701 1131.13 Q319.511 1131.13 322.566 1135.73 Q325.645 1140.32 325.645 1149.07 Q325.645 1157.79 322.566 1162.4 Q319.511 1166.98 313.701 1166.98 Q307.891 1166.98 304.812 1162.4 Q301.756 1157.79 301.756 1149.07 Q301.756 1140.32 304.812 1135.73 Q307.891 1131.13 313.701 1131.13 Z" fill="#8f9191" fill-rule="nonzero" fill-opacity="1" /><path clip-path="url(#clip560)" d="M333.863 1160.43 L338.747 1160.43 L338.747 1166.31 L333.863 1166.31 L333.863 1160.43 Z" fill="#8f9191" fill-rule="nonzero" fill-opacity="1" /><path clip-path="url(#clip560)" d="M361.779 1135.82 L349.974 1154.27 L361.779 1154.27 L361.779 1135.82 M360.552 1131.75 L366.432 1131.75 L366.432 1154.27 L371.362 1154.27 L371.362 1158.16 L366.432 1158.16 L366.432 1166.31 L361.779 1166.31 L361.779 1158.16 L346.177 1158.16 L346.177 1153.65 L360.552 1131.75 Z" fill="#8f9191" fill-rule="nonzero" fill-opacity="1" /><path clip-path="url(#clip560)" d="M266.016 905.552 L295.692 905.552 L295.692 909.488 L266.016 909.488 L266.016 905.552 Z" fill="#8f9191" fill-rule="nonzero" fill-opacity="1" /><path clip-path="url(#clip560)" d="M315.784 890.9 Q312.173 890.9 310.344 894.465 Q308.539 898.006 308.539 905.136 Q308.539 912.242 310.344 915.807 Q312.173 919.349 315.784 919.349 Q319.418 919.349 321.224 915.807 Q323.052 912.242 323.052 905.136 Q323.052 898.006 321.224 894.465 Q319.418 890.9 315.784 890.9 M315.784 887.196 Q321.594 887.196 324.65 891.803 Q327.728 896.386 327.728 905.136 Q327.728 913.863 324.65 918.469 Q321.594 923.052 315.784 923.052 Q309.974 923.052 306.895 918.469 Q303.84 913.863 303.84 905.136 Q303.84 896.386 306.895 891.803 Q309.974 887.196 315.784 887.196 Z" fill="#8f9191" fill-rule="nonzero" fill-opacity="1" /><path clip-path="url(#clip560)" d="M335.946 916.501 L340.83 916.501 L340.83 922.381 L335.946 922.381 L335.946 916.501 Z" fill="#8f9191" fill-rule="nonzero" fill-opacity="1" /><path clip-path="url(#clip560)" d="M355.043 918.446 L371.362 918.446 L371.362 922.381 L349.418 922.381 L349.418 918.446 Q352.08 915.691 356.663 911.062 Q361.27 906.409 362.45 905.066 Q364.696 902.543 365.575 900.807 Q366.478 899.048 366.478 897.358 Q366.478 894.603 364.534 892.867 Q362.612 891.131 359.511 891.131 Q357.312 891.131 354.858 891.895 Q352.427 892.659 349.65 894.21 L349.65 889.488 Q352.474 888.353 354.927 887.775 Q357.381 887.196 359.418 887.196 Q364.788 887.196 367.983 889.881 Q371.177 892.566 371.177 897.057 Q371.177 899.187 370.367 901.108 Q369.58 903.006 367.474 905.599 Q366.895 906.27 363.793 909.488 Q360.691 912.682 355.043 918.446 Z" fill="#8f9191" fill-rule="nonzero" fill-opacity="1" /><path clip-path="url(#clip560)" d="M314.187 646.97 Q310.576 646.97 308.747 650.535 Q306.941 654.076 306.941 661.206 Q306.941 668.312 308.747 671.877 Q310.576 675.419 314.187 675.419 Q317.821 675.419 319.627 671.877 Q321.455 668.312 321.455 661.206 Q321.455 654.076 319.627 650.535 Q317.821 646.97 314.187 646.97 M314.187 643.266 Q319.997 643.266 323.052 647.873 Q326.131 652.456 326.131 661.206 Q326.131 669.933 323.052 674.539 Q319.997 679.123 314.187 679.123 Q308.377 679.123 305.298 674.539 Q302.242 669.933 302.242 661.206 Q302.242 652.456 305.298 647.873 Q308.377 643.266 314.187 643.266 Z" fill="#8f9191" fill-rule="nonzero" fill-opacity="1" /><path clip-path="url(#clip560)" d="M334.349 672.572 L339.233 672.572 L339.233 678.451 L334.349 678.451 L334.349 672.572 Z" fill="#8f9191" fill-rule="nonzero" fill-opacity="1" /><path clip-path="url(#clip560)" d="M359.418 646.97 Q355.807 646.97 353.978 650.535 Q352.173 654.076 352.173 661.206 Q352.173 668.312 353.978 671.877 Q355.807 675.419 359.418 675.419 Q363.052 675.419 364.858 671.877 Q366.687 668.312 366.687 661.206 Q366.687 654.076 364.858 650.535 Q363.052 646.97 359.418 646.97 M359.418 643.266 Q365.228 643.266 368.284 647.873 Q371.362 652.456 371.362 661.206 Q371.362 669.933 368.284 674.539 Q365.228 679.123 359.418 679.123 Q353.608 679.123 350.529 674.539 Q347.474 669.933 347.474 661.206 Q347.474 652.456 350.529 647.873 Q353.608 643.266 359.418 643.266 Z" fill="#8f9191" fill-rule="nonzero" fill-opacity="1" /><path clip-path="url(#clip560)" d="M315.784 403.04 Q312.173 403.04 310.344 406.605 Q308.539 410.147 308.539 417.276 Q308.539 424.383 310.344 427.947 Q312.173 431.489 315.784 431.489 Q319.418 431.489 321.224 427.947 Q323.052 424.383 323.052 417.276 Q323.052 410.147 321.224 406.605 Q319.418 403.04 315.784 403.04 M315.784 399.336 Q321.594 399.336 324.65 403.943 Q327.728 408.526 327.728 417.276 Q327.728 426.003 324.65 430.609 Q321.594 435.193 315.784 435.193 Q309.974 435.193 306.895 430.609 Q303.84 426.003 303.84 417.276 Q303.84 408.526 306.895 403.943 Q309.974 399.336 315.784 399.336 Z" fill="#8f9191" fill-rule="nonzero" fill-opacity="1" /><path clip-path="url(#clip560)" d="M335.946 428.642 L340.83 428.642 L340.83 434.521 L335.946 434.521 L335.946 428.642 Z" fill="#8f9191" fill-rule="nonzero" fill-opacity="1" /><path clip-path="url(#clip560)" d="M355.043 430.586 L371.362 430.586 L371.362 434.521 L349.418 434.521 L349.418 430.586 Q352.08 427.832 356.663 423.202 Q361.27 418.549 362.45 417.207 Q364.696 414.684 365.575 412.948 Q366.478 411.188 366.478 409.498 Q366.478 406.744 364.534 405.008 Q362.612 403.272 359.511 403.272 Q357.312 403.272 354.858 404.036 Q352.427 404.799 349.65 406.35 L349.65 401.628 Q352.474 400.494 354.927 399.915 Q357.381 399.336 359.418 399.336 Q364.788 399.336 367.983 402.022 Q371.177 404.707 371.177 409.198 Q371.177 411.327 370.367 413.248 Q369.58 415.147 367.474 417.739 Q366.895 418.41 363.793 421.628 Q360.691 424.822 355.043 430.586 Z" fill="#8f9191" fill-rule="nonzero" fill-opacity="1" /><path clip-path="url(#clip560)" d="M313.701 159.11 Q310.09 159.11 308.261 162.675 Q306.455 166.217 306.455 173.346 Q306.455 180.453 308.261 184.018 Q310.09 187.559 313.701 187.559 Q317.335 187.559 319.14 184.018 Q320.969 180.453 320.969 173.346 Q320.969 166.217 319.14 162.675 Q317.335 159.11 313.701 159.11 M313.701 155.407 Q319.511 155.407 322.566 160.013 Q325.645 164.596 325.645 173.346 Q325.645 182.073 322.566 186.68 Q319.511 191.263 313.701 191.263 Q307.891 191.263 304.812 186.68 Q301.756 182.073 301.756 173.346 Q301.756 164.596 304.812 160.013 Q307.891 155.407 313.701 155.407 Z" fill="#8f9191" fill-rule="nonzero" fill-opacity="1" /><path clip-path="url(#clip560)" d="M333.863 184.712 L338.747 184.712 L338.747 190.592 L333.863 190.592 L333.863 184.712 Z" fill="#8f9191" fill-rule="nonzero" fill-opacity="1" /><path clip-path="url(#clip560)" d="M361.779 160.106 L349.974 178.555 L361.779 178.555 L361.779 160.106 M360.552 156.032 L366.432 156.032 L366.432 178.555 L371.362 178.555 L371.362 182.444 L366.432 182.444 L366.432 190.592 L361.779 190.592 L361.779 182.444 L346.177 182.444 L346.177 177.93 L360.552 156.032 Z" fill="#8f9191" fill-rule="nonzero" fill-opacity="1" /><path clip-path="url(#clip560)" d="M177.091 633.584 Q177.091 634.035 176.801 635.098 L170.488 660.283 Q169.103 665.886 164.595 669.816 Q160.118 673.745 155.03 673.745 Q151.97 673.745 150.005 672.102 Q148.041 670.492 148.041 668.012 Q148.041 665.822 149.2 664.759 Q150.36 663.729 151.745 663.729 Q152.195 663.729 152.678 663.857 Q153.162 663.986 153.677 664.534 Q154.192 665.081 154.192 666.015 Q154.192 667.529 152.872 668.721 Q152.228 669.268 151.616 669.397 Q151.036 669.526 150.038 669.526 Q150.424 670.427 151.133 671.039 Q151.841 671.651 152.646 671.877 Q153.451 672.134 153.967 672.199 Q154.514 672.295 155.03 672.295 Q159.152 672.295 162.308 668.141 Q163.242 666.885 163.918 665.629 Q164.627 664.405 165.142 662.891 Q165.657 661.41 165.883 660.605 Q166.141 659.8 166.591 657.964 Q163.596 660.959 159.925 660.959 Q158.379 660.959 156.994 660.54 Q155.641 660.122 154.45 659.252 Q153.258 658.35 152.55 656.772 Q151.873 655.194 151.873 653.101 Q151.873 650.879 152.743 647.851 Q153.612 644.824 155.706 639.252 Q156.833 636.128 156.833 634.615 Q156.833 633.874 156.672 633.423 Q156.511 632.94 156.189 632.779 Q155.867 632.586 155.674 632.553 Q155.513 632.521 155.191 632.521 Q153.29 632.521 151.519 634.454 Q149.748 636.386 148.524 640.701 Q148.266 641.507 148.105 641.7 Q147.944 641.893 147.461 641.893 Q146.656 641.861 146.656 641.217 Q146.656 640.959 146.946 639.961 Q147.236 638.93 147.912 637.416 Q148.621 635.871 149.587 634.486 Q150.553 633.069 152.067 632.07 Q153.612 631.072 155.384 631.072 Q157.799 631.072 159.281 632.65 Q160.794 634.196 160.794 636.482 Q160.794 637.416 160.537 638.254 Q160.311 639.059 159.474 641.217 Q156.092 649.912 156.092 654.163 Q156.092 655.194 156.253 656.064 Q156.447 656.901 156.865 657.738 Q157.284 658.543 158.121 659.027 Q158.991 659.477 160.182 659.477 Q161.696 659.477 163.113 658.769 Q164.562 658.028 165.464 657.03 Q166.398 656.031 166.946 655.194 Q167.525 654.325 167.654 653.874 L170.617 642.022 L171.938 636.74 Q172.549 633.874 172.839 633.165 Q173.226 632.489 173.902 632.135 Q174.578 631.78 175.158 631.78 Q175.963 631.78 176.511 632.264 Q177.091 632.747 177.091 633.584 Z" fill="#8f9191" fill-rule="nonzero" fill-opacity="1" /><polyline clip-path="url(#clip562)" style="stroke:#6496c8; stroke-linecap:round; stroke-linejoin:round; stroke-width:4; stroke-opacity:1; fill:none" points="1908.85,661.171 1908.38,661.207 1906.97,661.314 1904.62,661.493 1901.34,661.742 1897.13,662.06 1892,662.447 1885.95,662.902 1879,663.422 1871.16,664.006 1862.43,664.653 1852.83,665.361 1842.38,666.127 1831.09,666.95 1818.98,667.828 1806.07,668.758 1792.38,669.738 1777.93,670.767 1762.74,671.842 1746.83,672.96 1730.24,674.121 1712.97,675.321 1695.07,676.559 1676.56,677.832 1657.47,679.137 1637.82,680.473 1617.66,681.836 1597,683.224 1575.88,684.633 1554.33,686.061 1532.39,687.503 1510.09,688.955 1487.47,690.414 1464.56,691.874 1441.38,693.33 1417.99,694.776 1394.42,696.207 1370.7,697.616 1346.87,698.996 1322.97,700.34 1299.02,701.64 1275.08,702.888 1251.18,704.076 1227.35,705.196 1203.63,706.238 1180.05,707.194 1156.66,708.078 1133.49,708.92 1110.58,709.708 1087.95,710.433 1065.65,711.083 1043.72,711.647 1022.17,712.116 1001.05,712.479 980.392,712.726 960.224,712.848 940.578,712.835 921.485,712.681 902.975,712.376 885.075,711.914 867.813,711.29 851.216,710.496 835.31,709.53 820.119,708.387 805.666,707.064 791.974,705.559 779.063,703.87 766.955,701.996 755.666,699.937 745.216,697.693 735.62,695.264 726.892,692.652 719.047,689.858 712.095,686.883 706.049,683.73 700.917,680.4 696.708,676.896 693.427,673.219 691.079,669.371 689.67,665.354 689.2,661.171 689.67,656.894 691.079,652.596 693.427,648.282 696.708,643.957 700.917,639.627 706.049,635.301 712.095,630.988 719.047,626.698 726.892,622.443 735.62,618.236 745.216,614.09 755.666,610.018 766.955,606.035 779.063,602.155 791.974,598.394 805.666,594.765 820.119,591.285 835.31,587.966 851.216,584.823 867.813,581.87 885.075,579.118 902.975,576.579 921.485,574.265 940.578,572.184 960.224,570.346 980.392,568.759 1001.05,567.427 1022.17,566.358 1043.72,565.554 1065.65,565.018 1087.95,564.751 1110.58,564.754 1133.49,565.026 1156.66,565.564 1180.05,566.364 1203.63,567.383 1227.35,568.591 1251.18,569.981 1275.08,571.544 1299.02,573.272 1322.97,575.156 1346.87,577.187 1370.7,579.356 1394.42,581.654 1417.99,584.069 1441.38,586.592 1464.56,589.213 1487.47,591.921 1510.09,594.706 1532.39,597.556 1554.33,600.463 1575.88,603.413 1597,606.398 1617.66,609.405 1637.82,612.425 1657.47,615.445 1676.56,618.455 1695.07,621.443 1712.97,624.4 1730.24,627.313 1746.83,630.171 1762.74,632.964 1777.93,635.681 1792.38,638.311 1806.07,640.844 1818.98,643.269 1831.09,645.576 1842.38,647.756 1852.83,649.799 1862.43,651.696 1871.16,653.44 1879,655.022 1885.95,656.436 1892,657.675 1897.13,658.733 1901.34,659.605 1904.62,660.288 1906.97,660.778 1908.38,661.073 1908.85,661.171 "/>
<polyline clip-path="url(#clip562)" style="stroke:#c86464; stroke-linecap:round; stroke-linejoin:round; stroke-width:4; stroke-opacity:1; fill:none" points="1419.65,590.272 1419.28,590.223 1418.16,590.079 1416.29,589.838 1413.68,589.502 1410.33,589.071 1406.24,588.547 1401.43,587.931 1395.9,587.224 1389.66,586.429 1382.71,585.546 1375.08,584.579 1366.76,583.53 1357.77,582.399 1348.14,581.191 1337.86,579.908 1326.97,578.551 1315.46,577.124 1303.37,575.63 1290.71,574.07 1277.5,572.448 1263.76,570.766 1249.51,569.028 1234.78,567.236 1219.58,565.393 1203.94,563.504 1187.88,561.57 1171.44,559.597 1154.62,557.587 1137.47,555.544 1120,553.473 1102.25,551.379 1084.24,549.267 1065.99,547.141 1047.54,545.008 1028.91,542.873 1010.14,540.743 991.25,538.624 972.269,536.524 953.228,534.449 934.155,532.408 915.08,530.409 896.033,528.459 877.041,526.567 858.134,524.741 839.341,522.99 820.692,521.304 802.217,519.662 783.943,518.073 765.898,516.547 748.111,515.094 730.607,513.724 713.414,512.447 696.557,511.273 680.063,510.211 663.956,509.269 648.26,508.457 633,507.781 618.199,507.249 603.88,506.869 590.063,506.645 576.771,506.584 564.023,506.69 551.838,506.967 540.236,507.419 529.235,508.048 518.85,508.857 509.098,509.847 499.993,511.019 491.551,512.375 483.782,513.913 476.7,515.635 470.316,517.538 464.638,519.624 459.675,521.89 455.436,524.335 451.926,526.959 449.151,529.759 447.115,532.734 445.821,535.884 445.27,539.206 445.466,542.643 446.413,546.136 448.107,549.68 450.547,553.273 453.729,556.909 457.648,560.58 462.298,564.279 467.671,567.997 473.761,571.724 480.557,575.451 488.05,579.165 496.229,582.856 505.08,586.511 514.591,590.117 524.748,593.663 535.535,597.135 546.935,600.52 558.933,603.808 571.509,606.984 584.644,610.039 598.32,612.96 612.514,615.738 627.205,618.362 642.371,620.823 657.989,623.114 674.035,625.227 690.484,627.156 707.311,628.894 724.49,630.439 741.995,631.785 759.799,632.932 777.874,633.877 796.192,634.619 814.725,635.16 833.445,635.5 852.321,635.672 871.321,635.7 890.418,635.588 909.581,635.34 928.781,634.962 947.986,634.459 967.169,633.837 986.298,633.102 1005.34,632.26 1024.28,631.318 1043.07,630.281 1061.69,629.158 1080.11,627.953 1098.3,626.676 1116.24,625.332 1133.89,623.929 1151.22,622.473 1168.22,620.973 1184.85,619.436 1201.09,617.868 1216.91,616.278 1232.29,614.672 1247.2,613.06 1261.63,611.447 1275.54,609.843 1288.92,608.254 1301.74,606.689 1313.99,605.154 1325.65,603.658 1336.69,602.208 1347.11,600.811 1356.88,599.475 1365.99,598.206 1374.42,597.012 1382.17,595.898 1389.22,594.87 1395.55,593.934 1401.16,593.096 1406.04,592.36 1410.19,591.729 1413.59,591.209 1416.24,590.8 1418.13,590.507 1419.27,590.331 1419.65,590.272 "/>
<path clip-path="url(#clip560)" d="M1430.74 240.262 L1901.04 240.262 L1901.04 84.7422 L1430.74 84.7422  Z" fill="#000000" fill-rule="evenodd" fill-opacity="0"/>
<polyline clip-path="url(#clip560)" style="stroke:#000000; stroke-linecap:round; stroke-linejoin:round; stroke-width:4; stroke-opacity:0; fill:none" points="1430.74,240.262 1901.04,240.262 1901.04,84.7422 1430.74,84.7422 1430.74,240.262 "/>
<polyline clip-path="url(#clip560)" style="stroke:#6496c8; stroke-linecap:round; stroke-linejoin:round; stroke-width:4; stroke-opacity:1; fill:none" points="1447.98,136.582 1551.41,136.582 "/>
<path clip-path="url(#clip560)" d="M1568.64 119.302 L1573.34 119.302 L1573.34 140.297 Q1573.34 145.853 1575.36 148.307 Q1577.37 150.737 1581.89 150.737 Q1586.38 150.737 1588.39 148.307 Q1590.4 145.853 1590.4 140.297 L1590.4 119.302 L1595.1 119.302 L1595.1 140.876 Q1595.1 147.635 1591.75 151.084 Q1588.41 154.534 1581.89 154.534 Q1575.33 154.534 1571.98 151.084 Q1568.64 147.635 1568.64 140.876 L1568.64 119.302 Z" fill="#8f9191" fill-rule="nonzero" fill-opacity="1" /><path clip-path="url(#clip560)" d="M1625.24 138.214 L1625.24 153.862 L1620.98 153.862 L1620.98 138.353 Q1620.98 134.672 1619.55 132.844 Q1618.11 131.015 1615.24 131.015 Q1611.79 131.015 1609.8 133.214 Q1607.81 135.413 1607.81 139.21 L1607.81 153.862 L1603.53 153.862 L1603.53 127.936 L1607.81 127.936 L1607.81 131.964 Q1609.34 129.626 1611.4 128.469 Q1613.48 127.311 1616.19 127.311 Q1620.66 127.311 1622.95 130.089 Q1625.24 132.844 1625.24 138.214 Z" fill="#8f9191" fill-rule="nonzero" fill-opacity="1" /><path clip-path="url(#clip560)" d="M1650.26 128.7 L1650.26 132.728 Q1648.46 131.802 1646.51 131.339 Q1644.57 130.876 1642.49 130.876 Q1639.32 130.876 1637.72 131.848 Q1636.14 132.821 1636.14 134.765 Q1636.14 136.247 1637.28 137.103 Q1638.41 137.936 1641.84 138.7 L1643.3 139.024 Q1647.83 139.997 1649.73 141.779 Q1651.65 143.538 1651.65 146.709 Q1651.65 150.321 1648.78 152.427 Q1645.94 154.534 1640.94 154.534 Q1638.85 154.534 1636.58 154.117 Q1634.34 153.723 1631.84 152.913 L1631.84 148.515 Q1634.2 149.742 1636.49 150.367 Q1638.78 150.969 1641.03 150.969 Q1644.04 150.969 1645.66 149.95 Q1647.28 148.909 1647.28 147.034 Q1647.28 145.297 1646.1 144.372 Q1644.94 143.446 1640.98 142.589 L1639.5 142.242 Q1635.54 141.409 1633.78 139.696 Q1632.02 137.96 1632.02 134.95 Q1632.02 131.293 1634.62 129.302 Q1637.21 127.311 1641.98 127.311 Q1644.34 127.311 1646.42 127.659 Q1648.51 128.006 1650.26 128.7 Z" fill="#8f9191" fill-rule="nonzero" fill-opacity="1" /><path clip-path="url(#clip560)" d="M1677.09 128.932 L1677.09 132.913 Q1675.29 131.918 1673.46 131.432 Q1671.65 130.923 1669.8 130.923 Q1665.66 130.923 1663.37 133.561 Q1661.07 136.177 1661.07 140.922 Q1661.07 145.668 1663.37 148.307 Q1665.66 150.922 1669.8 150.922 Q1671.65 150.922 1673.46 150.436 Q1675.29 149.927 1677.09 148.932 L1677.09 152.867 Q1675.31 153.7 1673.39 154.117 Q1671.49 154.534 1669.34 154.534 Q1663.48 154.534 1660.03 150.853 Q1656.58 147.172 1656.58 140.922 Q1656.58 134.58 1660.06 130.946 Q1663.55 127.311 1669.62 127.311 Q1671.58 127.311 1673.46 127.728 Q1675.33 128.122 1677.09 128.932 Z" fill="#8f9191" fill-rule="nonzero" fill-opacity="1" /><path clip-path="url(#clip560)" d="M1696.28 140.83 Q1691.12 140.83 1689.13 142.01 Q1687.14 143.191 1687.14 146.038 Q1687.14 148.307 1688.62 149.649 Q1690.13 150.969 1692.69 150.969 Q1696.24 150.969 1698.37 148.469 Q1700.52 145.946 1700.52 141.779 L1700.52 140.83 L1696.28 140.83 M1704.78 139.071 L1704.78 153.862 L1700.52 153.862 L1700.52 149.927 Q1699.06 152.288 1696.88 153.422 Q1694.71 154.534 1691.56 154.534 Q1687.58 154.534 1685.22 152.311 Q1682.88 150.066 1682.88 146.316 Q1682.88 141.941 1685.8 139.719 Q1688.74 137.497 1694.55 137.497 L1700.52 137.497 L1700.52 137.08 Q1700.52 134.14 1698.57 132.543 Q1696.65 130.923 1693.16 130.923 Q1690.94 130.923 1688.83 131.455 Q1686.72 131.987 1684.78 133.052 L1684.78 129.117 Q1687.12 128.214 1689.32 127.774 Q1691.51 127.311 1693.6 127.311 Q1699.22 127.311 1702 130.228 Q1704.78 133.145 1704.78 139.071 Z" fill="#8f9191" fill-rule="nonzero" fill-opacity="1" /><path clip-path="url(#clip560)" d="M1713.55 117.844 L1717.81 117.844 L1717.81 153.862 L1713.55 153.862 L1713.55 117.844 Z" fill="#8f9191" fill-rule="nonzero" fill-opacity="1" /><path clip-path="url(#clip560)" d="M1748.9 139.835 L1748.9 141.918 L1729.32 141.918 Q1729.59 146.316 1731.95 148.631 Q1734.34 150.922 1738.57 150.922 Q1741.03 150.922 1743.32 150.321 Q1745.63 149.719 1747.9 148.515 L1747.9 152.543 Q1745.61 153.515 1743.2 154.024 Q1740.8 154.534 1738.32 154.534 Q1732.12 154.534 1728.48 150.922 Q1724.87 147.311 1724.87 141.154 Q1724.87 134.788 1728.3 131.061 Q1731.75 127.311 1737.58 127.311 Q1742.81 127.311 1745.84 130.691 Q1748.9 134.048 1748.9 139.835 M1744.64 138.585 Q1744.59 135.089 1742.67 133.006 Q1740.77 130.923 1737.63 130.923 Q1734.06 130.923 1731.91 132.936 Q1729.78 134.95 1729.45 138.608 L1744.64 138.585 Z" fill="#8f9191" fill-rule="nonzero" fill-opacity="1" /><path clip-path="url(#clip560)" d="M1772.95 131.872 L1772.95 117.844 L1777.21 117.844 L1777.21 153.862 L1772.95 153.862 L1772.95 149.973 Q1771.61 152.288 1769.55 153.422 Q1767.51 154.534 1764.64 154.534 Q1759.94 154.534 1756.98 150.784 Q1754.04 147.034 1754.04 140.922 Q1754.04 134.811 1756.98 131.061 Q1759.94 127.311 1764.64 127.311 Q1767.51 127.311 1769.55 128.446 Q1771.61 129.557 1772.95 131.872 M1758.44 140.922 Q1758.44 145.622 1760.36 148.307 Q1762.3 150.969 1765.68 150.969 Q1769.06 150.969 1771 148.307 Q1772.95 145.622 1772.95 140.922 Q1772.95 136.223 1771 133.561 Q1769.06 130.876 1765.68 130.876 Q1762.3 130.876 1760.36 133.561 Q1758.44 136.223 1758.44 140.922 Z" fill="#8f9191" fill-rule="nonzero" fill-opacity="1" /><polyline clip-path="url(#clip560)" style="stroke:#c86464; stroke-linecap:round; stroke-linejoin:round; stroke-width:4; stroke-opacity:1; fill:none" points="1447.98,188.422 1551.41,188.422 "/>
<path clip-path="url(#clip560)" d="M1585.03 189.499 Q1586.54 190.008 1587.95 191.675 Q1589.39 193.341 1590.82 196.258 L1595.57 205.702 L1590.54 205.702 L1586.12 196.837 Q1584.41 193.364 1582.79 192.23 Q1581.19 191.096 1578.41 191.096 L1573.32 191.096 L1573.32 205.702 L1568.64 205.702 L1568.64 171.142 L1579.2 171.142 Q1585.13 171.142 1588.04 173.619 Q1590.96 176.096 1590.96 181.096 Q1590.96 184.36 1589.43 186.512 Q1587.93 188.665 1585.03 189.499 M1573.32 174.985 L1573.32 187.253 L1579.2 187.253 Q1582.58 187.253 1584.29 185.702 Q1586.03 184.128 1586.03 181.096 Q1586.03 178.063 1584.29 176.536 Q1582.58 174.985 1579.2 174.985 L1573.32 174.985 Z" fill="#8f9191" fill-rule="nonzero" fill-opacity="1" /><path clip-path="url(#clip560)" d="M1621.45 191.675 L1621.45 193.758 L1601.86 193.758 Q1602.14 198.156 1604.5 200.471 Q1606.89 202.762 1611.12 202.762 Q1613.58 202.762 1615.87 202.161 Q1618.18 201.559 1620.45 200.355 L1620.45 204.383 Q1618.16 205.355 1615.75 205.864 Q1613.34 206.374 1610.87 206.374 Q1604.66 206.374 1601.03 202.762 Q1597.42 199.151 1597.42 192.994 Q1597.42 186.628 1600.84 182.901 Q1604.29 179.151 1610.13 179.151 Q1615.36 179.151 1618.39 182.531 Q1621.45 185.888 1621.45 191.675 M1617.19 190.425 Q1617.14 186.929 1615.22 184.846 Q1613.32 182.763 1610.17 182.763 Q1606.61 182.763 1604.45 184.776 Q1602.33 186.79 1602 190.448 L1617.19 190.425 Z" fill="#8f9191" fill-rule="nonzero" fill-opacity="1" /><path clip-path="url(#clip560)" d="M1626.28 190.818 L1638.76 190.818 L1638.76 194.614 L1626.28 194.614 L1626.28 190.818 Z" fill="#8f9191" fill-rule="nonzero" fill-opacity="1" /><path clip-path="url(#clip560)" d="M1649.66 201.813 L1649.66 215.563 L1645.38 215.563 L1645.38 179.776 L1649.66 179.776 L1649.66 183.712 Q1651.01 181.397 1653.04 180.286 Q1655.1 179.151 1657.95 179.151 Q1662.67 179.151 1665.61 182.901 Q1668.57 186.651 1668.57 192.762 Q1668.57 198.874 1665.61 202.624 Q1662.67 206.374 1657.95 206.374 Q1655.1 206.374 1653.04 205.262 Q1651.01 204.128 1649.66 201.813 M1664.15 192.762 Q1664.15 188.063 1662.21 185.401 Q1660.29 182.716 1656.91 182.716 Q1653.53 182.716 1651.58 185.401 Q1649.66 188.063 1649.66 192.762 Q1649.66 197.462 1651.58 200.147 Q1653.53 202.809 1656.91 202.809 Q1660.29 202.809 1662.21 200.147 Q1664.15 197.462 1664.15 192.762 Z" fill="#8f9191" fill-rule="nonzero" fill-opacity="1" /><path clip-path="url(#clip560)" d="M1685.68 182.763 Q1682.26 182.763 1680.26 185.448 Q1678.27 188.11 1678.27 192.762 Q1678.27 197.415 1680.24 200.1 Q1682.23 202.762 1685.68 202.762 Q1689.08 202.762 1691.07 200.077 Q1693.07 197.392 1693.07 192.762 Q1693.07 188.156 1691.07 185.471 Q1689.08 182.763 1685.68 182.763 M1685.68 179.151 Q1691.24 179.151 1694.41 182.763 Q1697.58 186.374 1697.58 192.762 Q1697.58 199.128 1694.41 202.762 Q1691.24 206.374 1685.68 206.374 Q1680.1 206.374 1676.93 202.762 Q1673.78 199.128 1673.78 192.762 Q1673.78 186.374 1676.93 182.763 Q1680.1 179.151 1685.68 179.151 Z" fill="#8f9191" fill-rule="nonzero" fill-opacity="1" /><path clip-path="url(#clip560)" d="M1721.17 180.54 L1721.17 184.568 Q1719.36 183.642 1717.42 183.179 Q1715.47 182.716 1713.39 182.716 Q1710.22 182.716 1708.62 183.688 Q1707.05 184.661 1707.05 186.605 Q1707.05 188.087 1708.18 188.943 Q1709.32 189.776 1712.74 190.54 L1714.2 190.864 Q1718.74 191.837 1720.63 193.619 Q1722.56 195.378 1722.56 198.549 Q1722.56 202.161 1719.69 204.267 Q1716.84 206.374 1711.84 206.374 Q1709.76 206.374 1707.49 205.957 Q1705.24 205.563 1702.74 204.753 L1702.74 200.355 Q1705.1 201.582 1707.39 202.207 Q1709.69 202.809 1711.93 202.809 Q1714.94 202.809 1716.56 201.79 Q1718.18 200.749 1718.18 198.874 Q1718.18 197.137 1717 196.212 Q1715.84 195.286 1711.88 194.429 L1710.4 194.082 Q1706.44 193.249 1704.69 191.536 Q1702.93 189.8 1702.93 186.79 Q1702.93 183.133 1705.52 181.142 Q1708.11 179.151 1712.88 179.151 Q1715.24 179.151 1717.32 179.499 Q1719.41 179.846 1721.17 180.54 Z" fill="#8f9191" fill-rule="nonzero" fill-opacity="1" /><path clip-path="url(#clip560)" d="M1729.34 179.776 L1733.6 179.776 L1733.6 205.702 L1729.34 205.702 L1729.34 179.776 M1729.34 169.684 L1733.6 169.684 L1733.6 175.077 L1729.34 175.077 L1729.34 169.684 Z" fill="#8f9191" fill-rule="nonzero" fill-opacity="1" /><path clip-path="url(#clip560)" d="M1746.72 172.415 L1746.72 179.776 L1755.5 179.776 L1755.5 183.087 L1746.72 183.087 L1746.72 197.161 Q1746.72 200.332 1747.58 201.235 Q1748.46 202.137 1751.12 202.137 L1755.5 202.137 L1755.5 205.702 L1751.12 205.702 Q1746.19 205.702 1744.32 203.874 Q1742.44 202.022 1742.44 197.161 L1742.44 183.087 L1739.32 183.087 L1739.32 179.776 L1742.44 179.776 L1742.44 172.415 L1746.72 172.415 Z" fill="#8f9191" fill-rule="nonzero" fill-opacity="1" /><path clip-path="url(#clip560)" d="M1761.1 179.776 L1765.36 179.776 L1765.36 205.702 L1761.1 205.702 L1761.1 179.776 M1761.1 169.684 L1765.36 169.684 L1765.36 175.077 L1761.1 175.077 L1761.1 169.684 Z" fill="#8f9191" fill-rule="nonzero" fill-opacity="1" /><path clip-path="url(#clip560)" d="M1784.31 182.763 Q1780.89 182.763 1778.9 185.448 Q1776.91 188.11 1776.91 192.762 Q1776.91 197.415 1778.88 200.1 Q1780.87 202.762 1784.31 202.762 Q1787.72 202.762 1789.71 200.077 Q1791.7 197.392 1791.7 192.762 Q1791.7 188.156 1789.71 185.471 Q1787.72 182.763 1784.31 182.763 M1784.31 179.151 Q1789.87 179.151 1793.04 182.763 Q1796.21 186.374 1796.21 192.762 Q1796.21 199.128 1793.04 202.762 Q1789.87 206.374 1784.31 206.374 Q1778.74 206.374 1775.56 202.762 Q1772.42 199.128 1772.42 192.762 Q1772.42 186.374 1775.56 182.763 Q1778.74 179.151 1784.31 179.151 Z" fill="#8f9191" fill-rule="nonzero" fill-opacity="1" /><path clip-path="url(#clip560)" d="M1824.82 190.054 L1824.82 205.702 L1820.56 205.702 L1820.56 190.193 Q1820.56 186.512 1819.13 184.684 Q1817.69 182.855 1814.82 182.855 Q1811.37 182.855 1809.38 185.054 Q1807.39 187.253 1807.39 191.05 L1807.39 205.702 L1803.11 205.702 L1803.11 179.776 L1807.39 179.776 L1807.39 183.804 Q1808.92 181.466 1810.98 180.309 Q1813.06 179.151 1815.77 179.151 Q1820.24 179.151 1822.53 181.929 Q1824.82 184.684 1824.82 190.054 Z" fill="#8f9191" fill-rule="nonzero" fill-opacity="1" /><path clip-path="url(#clip560)" d="M1855.5 191.675 L1855.5 193.758 L1835.91 193.758 Q1836.19 198.156 1838.55 200.471 Q1840.93 202.762 1845.17 202.762 Q1847.62 202.762 1849.92 202.161 Q1852.23 201.559 1854.5 200.355 L1854.5 204.383 Q1852.21 205.355 1849.8 205.864 Q1847.39 206.374 1844.92 206.374 Q1838.71 206.374 1835.08 202.762 Q1831.47 199.151 1831.47 192.994 Q1831.47 186.628 1834.89 182.901 Q1838.34 179.151 1844.18 179.151 Q1849.41 179.151 1852.44 182.531 Q1855.5 185.888 1855.5 191.675 M1851.24 190.425 Q1851.19 186.929 1849.27 184.846 Q1847.37 182.763 1844.22 182.763 Q1840.66 182.763 1838.5 184.776 Q1836.37 186.79 1836.05 190.448 L1851.24 190.425 Z" fill="#8f9191" fill-rule="nonzero" fill-opacity="1" /><path clip-path="url(#clip560)" d="M1879.55 183.712 L1879.55 169.684 L1883.81 169.684 L1883.81 205.702 L1879.55 205.702 L1879.55 201.813 Q1878.2 204.128 1876.14 205.262 Q1874.11 206.374 1871.24 206.374 Q1866.54 206.374 1863.57 202.624 Q1860.63 198.874 1860.63 192.762 Q1860.63 186.651 1863.57 182.901 Q1866.54 179.151 1871.24 179.151 Q1874.11 179.151 1876.14 180.286 Q1878.2 181.397 1879.55 183.712 M1865.03 192.762 Q1865.03 197.462 1866.95 200.147 Q1868.9 202.809 1872.28 202.809 Q1875.66 202.809 1877.6 200.147 Q1879.55 197.462 1879.55 192.762 Q1879.55 188.063 1877.6 185.401 Q1875.66 182.716 1872.28 182.716 Q1868.9 182.716 1866.95 185.401 Q1865.03 188.063 1865.03 192.762 Z" fill="#8f9191" fill-rule="nonzero" fill-opacity="1" /></svg>
